<svg viewBox="0 0 800 600" xmlns="http://www.w3.org/2000/svg">
<line x1="100" y1="500" x2="600" y2="500" stroke="#2e2e2c"/>
<line x1="162.5" y1="500" x2="162.5" y2="505" stroke="#2e2e2c"/>
<line x1="287.5" y1="500" x2="287.5" y2="505" stroke="#2e2e2c"/>
<line x1="412.5" y1="500" x2="412.5" y2="505" stroke="#2e2e2c"/>
<line x1="537.5" y1="500" x2="537.5" y2="505" stroke="#2e2e2c"/>
<text x="162.5" y="510" text-anchor="middle" dominant-baseline="hanging">Apples</text>
<text x="287.5" y="510" text-anchor="middle" dominant-baseline="hanging">Bananas</text>
<text x="412.5" y="510" text-anchor="middle" dominant-baseline="hanging">Cherries</text>
<text x="537.5" y="510" text-anchor="middle" dominant-baseline="hanging">Durians</text>
<line x1="100" y1="100" x2="100" y2="500" stroke="#2e2e2c"/>
<line x1="95" y1="500.0" x2="100" y2="500.0" stroke="#2e2e2c"/>
<line x1="95" y1="450.0" x2="100" y2="450.0" stroke="#2e2e2c"/>
<line x1="95" y1="400.0" x2="100" y2="400.0" stroke="#2e2e2c"/>
<line x1="95" y1="350.0" x2="100" y2="350.0" stroke="#2e2e2c"/>
<line x1="95" y1="300.0" x2="100" y2="300.0" stroke="#2e2e2c"/>
<line x1="95" y1="250.0" x2="100" y2="250.0" stroke="#2e2e2c"/>
<line x1="95" y1="200.0" x2="100" y2="200.0" stroke="#2e2e2c"/>
<line x1="95" y1="150.0" x2="100" y2="150.0" stroke="#2e2e2c"/>
<line x1="95" y1="100.0" x2="100" y2="100.0" stroke="#2e2e2c"/>
<text x="90" y="500.0" text-anchor="end" dominant-baseline="middle">0</text>
<text x="90" y="450.0" text-anchor="end" dominant-baseline="middle">5</text>
<text x="90" y="400.0" text-anchor="end" dominant-baseline="middle">10</text>
<text x="90" y="350.0" text-anchor="end" dominant-baseline="middle">15</text>
<text x="90" y="300.0" text-anchor="end" dominant-baseline="middle">20</text>
<text x="90" y="250.0" text-anchor="end" dominant-baseline="middle">25</text>
<text x="90" y="200.0" text-anchor="end" dominant-baseline="middle">30</text>
<text x="90" y="150.0" text-anchor="end" dominant-baseline="middle">35</text>
<text x="90" y="100.0" text-anchor="end" dominant-baseline="middle">40</text>
<rect x="630" y="197.5" width="30" height="5" stroke="none" fill="green"/>
<text x="665" y="200" alignment-baseline="middle">Number of fruit</text>
<rect x="142.5" y="387.0" width="40" height="113.0" stroke="none" fill="green"/>
<rect x="267.5" y="300.0" width="40" height="200.0" stroke="none" fill="green"/>
<rect x="392.5" y="200.0" width="40" height="300.0" stroke="none" fill="green"/>
<rect x="517.5" y="100.0" width="40" height="400.0" stroke="none" fill="green"/>
</svg>