<svg viewBox="0 0 900 600" xmlns="http://www.w3.org/2000/svg">
<line x1="100" y1="500" x2="700" y2="500" stroke="#2e2e2c"/>
<line x1="175.0" y1="500" x2="175.0" y2="505" stroke="#2e2e2c"/>
<line x1="325.0" y1="500" x2="325.0" y2="505" stroke="#2e2e2c"/>
<line x1="475.0" y1="500" x2="475.0" y2="505" stroke="#2e2e2c"/>
<line x1="625.0" y1="500" x2="625.0" y2="505" stroke="#2e2e2c"/>
<text x="175.0" y="510" text-anchor="middle" dominant-baseline="hanging">Apples</text>
<text x="325.0" y="510" text-anchor="middle" dominant-baseline="hanging">Bananas</text>
<text x="475.0" y="510" text-anchor="middle" dominant-baseline="hanging">Cherries</text>
<text x="625.0" y="510" text-anchor="middle" dominant-baseline="hanging">Durians</text>
<line x1="100" y1="100" x2="100" y2="500" stroke="#2e2e2c"/>
<line x1="95" y1="500.0" x2="100" y2="500.0" stroke="#2e2e2c"/>
<line x1="95" y1="450.0" x2="100" y2="450.0" stroke="#2e2e2c"/>
<line x1="95" y1="400.0" x2="100" y2="400.0" stroke="#2e2e2c"/>
<line x1="95" y1="350.0" x2="100" y2="350.0" stroke="#2e2e2c"/>
<line x1="95" y1="300.0" x2="100" y2="300.0" stroke="#2e2e2c"/>
<line x1="95" y1="250.0" x2="100" y2="250.0" stroke="#2e2e2c"/>
<line x1="95" y1="200.0" x2="100" y2="200.0" stroke="#2e2e2c"/>
<line x1="95" y1="150.0" x2="100" y2="150.0" stroke="#2e2e2c"/>
<line x1="95" y1="100.0" x2="100" y2="100.0" stroke="#2e2e2c"/>
<text x="90" y="500.0" text-anchor="end" dominant-baseline="middle">0</text>
<text x="90" y="450.0" text-anchor="end" dominant-baseline="middle">5</text>
<text x="90" y="400.0" text-anchor="end" dominant-baseline="middle">10</text>
<text x="90" y="350.0" text-anchor="end" dominant-baseline="middle">15</text>
<text x="90" y="300.0" text-anchor="end" dominant-baseline="middle">20</text>
<text x="90" y="250.0" text-anchor="end" dominant-baseline="middle">25</text>
<text x="90" y="200.0" text-anchor="end" dominant-baseline="middle">30</text>
<text x="90" y="150.0" text-anchor="end" dominant-baseline="middle">35</text>
<text x="90" y="100.0" text-anchor="end" dominant-baseline="middle">40</text>
<rect x="730" y="197.5" width="30" height="5" stroke="none" fill="green"/>
<rect x="730" y="217.5" width="30" height="5" stroke="none" fill="red"/>
<text x="765" y="200" alignment-baseline="middle">Monday</text>
<text x="765" y="220" alignment-baseline="middle">Tuesday</text>
<rect x="134.0" y="400.0" width="40" height="100.0" stroke="none" fill="green"/>
<rect x="284.0" y="300.0" width="40" height="200.0" stroke="none" fill="green"/>
<rect x="434.0" y="200.0" width="40" height="300.0" stroke="none" fill="green"/>
<rect x="584.0" y="100.0" width="40" height="400.0" stroke="none" fill="green"/>
<rect x="176.0" y="200.0" width="40" height="300.0" stroke="none" fill="red"/>
<rect x="326.0" y="400.0" width="40" height="100.0" stroke="none" fill="red"/>
<rect x="476.0" y="400.0" width="40" height="100.0" stroke="none" fill="red"/>
<rect x="626.0" y="300.0" width="40" height="200.0" stroke="none" fill="red"/>
</svg>