<svg viewBox="0 0 1200 600" xmlns="http://www.w3.org/2000/svg">
<text x="100.0" y="510" text-anchor="middle" dominant-baseline="hanging">Oct</text>
<text x="155.55555555555554" y="510" text-anchor="middle" dominant-baseline="hanging">Nov</text>
<text x="211.11111111111111" y="510" text-anchor="middle" dominant-baseline="hanging">Dec</text>
<text x="266.66666666666663" y="510" text-anchor="middle" dominant-baseline="hanging">Jan</text>
<text x="322.22222222222223" y="510" text-anchor="middle" dominant-baseline="hanging">Feb</text>
<text x="377.77777777777777" y="510" text-anchor="middle" dominant-baseline="hanging">Mar</text>
<text x="433.3333333333333" y="510" text-anchor="middle" dominant-baseline="hanging">Apr</text>
<text x="488.8888888888889" y="510" text-anchor="middle" dominant-baseline="hanging">May</text>
<text x="544.4444444444445" y="510" text-anchor="middle" dominant-baseline="hanging">Jun</text>
<text x="600.0" y="510" text-anchor="middle" dominant-baseline="hanging">Jul</text>
<text x="655.5555555555555" y="510" text-anchor="middle" dominant-baseline="hanging">Aug</text>
<text x="711.1111111111111" y="510" text-anchor="middle" dominant-baseline="hanging">Sep</text>
<text x="766.6666666666666" y="510" text-anchor="middle" dominant-baseline="hanging">Oct</text>
<text x="822.2222222222222" y="510" text-anchor="middle" dominant-baseline="hanging">Nov</text>
<text x="877.7777777777778" y="510" text-anchor="middle" dominant-baseline="hanging">Dec</text>
<text x="933.3333333333334" y="510" text-anchor="middle" dominant-baseline="hanging">Jan</text>
<text x="988.8888888888889" y="510" text-anchor="middle" dominant-baseline="hanging">Feb</text>
<text x="1044.4444444444443" y="510" text-anchor="middle" dominant-baseline="hanging">Mar</text>
<text x="1100.0" y="510" text-anchor="middle" dominant-baseline="hanging">Apr</text>
<line x1="100" y1="100" x2="100" y2="500" stroke="#E9E9DE"/>
<text x="90" y="500.0" text-anchor="end" dominant-baseline="middle">0</text>
<text x="90" y="460.0" text-anchor="end" dominant-baseline="middle">20K</text>
<text x="90" y="420.0" text-anchor="end" dominant-baseline="middle">40K</text>
<text x="90" y="380.0" text-anchor="end" dominant-baseline="middle">60K</text>
<text x="90" y="340.0" text-anchor="end" dominant-baseline="middle">80K</text>
<text x="90" y="300.0" text-anchor="end" dominant-baseline="middle">100K</text>
<text x="90" y="260.0" text-anchor="end" dominant-baseline="middle">120K</text>
<text x="90" y="220.0" text-anchor="end" dominant-baseline="middle">140K</text>
<text x="90" y="180.0" text-anchor="end" dominant-baseline="middle">160K</text>
<text x="90" y="140.0" text-anchor="end" dominant-baseline="middle">180K</text>
<text x="90" y="100.0" text-anchor="end" dominant-baseline="middle">200K</text>
<line x1="155.55555555555554" y1="100" x2="155.55555555555554" y2="500" stroke="#E9E9DE"/>
<line x1="211.11111111111111" y1="100" x2="211.11111111111111" y2="500" stroke="#E9E9DE"/>
<line x1="266.66666666666663" y1="100" x2="266.66666666666663" y2="500" stroke="#E9E9DE"/>
<line x1="322.22222222222223" y1="100" x2="322.22222222222223" y2="500" stroke="#E9E9DE"/>
<line x1="377.77777777777777" y1="100" x2="377.77777777777777" y2="500" stroke="#E9E9DE"/>
<line x1="433.3333333333333" y1="100" x2="433.3333333333333" y2="500" stroke="#E9E9DE"/>
<line x1="488.8888888888889" y1="100" x2="488.8888888888889" y2="500" stroke="#E9E9DE"/>
<line x1="544.4444444444445" y1="100" x2="544.4444444444445" y2="500" stroke="#E9E9DE"/>
<line x1="600.0" y1="100" x2="600.0" y2="500" stroke="#E9E9DE"/>
<line x1="655.5555555555555" y1="100" x2="655.5555555555555" y2="500" stroke="#E9E9DE"/>
<line x1="711.1111111111111" y1="100" x2="711.1111111111111" y2="500" stroke="#E9E9DE"/>
<line x1="766.6666666666666" y1="100" x2="766.6666666666666" y2="500" stroke="#E9E9DE"/>
<line x1="822.2222222222222" y1="100" x2="822.2222222222222" y2="500" stroke="#E9E9DE"/>
<line x1="877.7777777777778" y1="100" x2="877.7777777777778" y2="500" stroke="#E9E9DE"/>
<line x1="933.3333333333334" y1="100" x2="933.3333333333334" y2="500" stroke="#E9E9DE"/>
<line x1="988.8888888888889" y1="100" x2="988.8888888888889" y2="500" stroke="#E9E9DE"/>
<line x1="1044.4444444444443" y1="100" x2="1044.4444444444443" y2="500" stroke="#E9E9DE"/>
<line x1="1100.0" y1="100" x2="1100.0" y2="500" stroke="#E9E9DE"/>
<line x1="700" y1="60" x2="735" y2="60" stroke="#DB7D33" stroke-width="3"/>
<line x1="900" y1="60" x2="935" y2="60" stroke="#2D2D2D" stroke-width="3" stroke-dasharray="4,4"/>
<text x="755" y="60" alignment-baseline="middle">Actual sales</text>
<text x="955" y="60" alignment-baseline="middle">Predicted sales</text>
<path d="M 100.0 307.335904216896 L 114.08450704225352 311.9895137145225 L 128.16901408450704 303.5594633567801 L 142.25352112676057 318.60993326733944 L 156.33802816901408 322.21383599254 L 170.4225352112676 348.81462070148865 L 184.50704225352112 338.080271575309 L 198.59154929577466 383.11547156175675 L 212.67605633802816 386.211900286264 L 226.7605633802817 368.52663297547076 L 240.8450704225352 396.2046057923476 L 254.92957746478874 401.1751120241229 L 269.01408450704224 425.56629311922603 L 283.09859154929575 422.5195886437488 L 297.1830985915493 421.45010982045636 L 311.2676056338028 446.9309024155833 L 325.3521126760563 433.9430663346463 L 339.4366197183099 468.75570135526186 L 353.5211267605634 455.8016509326741 L 367.6056338028169 443.06501892619445 L 381.6901408450704 465.6184373700383 L 395.77464788732397 444.10806700284985 L 409.85915492957747 469.024316124771 L 423.943661971831 453.61426741361015 L 438.0281690140845 435.64780654392536 L 452.11267605633805 423.3574507538822 L 466.19718309859155 443.2338798325547 L 480.28169014084506 437.9811762924777 L 494.36619718309856 414.03978568683004 L 508.4507042253521 417.42921206712316 L 522.5352112676056 381.18646739747425 L 536.6197183098591 369.4822972903514 L 550.7042253521126 391.2392086549094 L 564.7887323943662 338.5513277061485 L 578.8732394366198 342.7461192299227 L 592.9577464788732 317.97999999999996 L 607.0422535211268 334.7358807700773 L 621.1267605633802 314.86667229385137 L 635.2112676056338 284.9367913450905 L 649.2957746478874 275.6097027096485 L 663.3802816901408 267.77353260252573 L 677.4647887323944 268.18878793287683 L 691.5492957746479 245.67221431317 L 705.6338028169014 214.8208237075223 L 719.7183098591549 238.5721201674452 L 733.8028169014085 231.12254924611776 L 747.887323943662 199.23419345607462 L 761.9718309859155 222.2937325863899 L 776.056338028169 189.09368387522898 L 790.1408450704225 214.3819329971501 L 804.2253521126761 214.25956262996175 L 818.3098591549295 192.9809810738056 L 832.3943661971831 190.90834906732593 L 846.4788732394367 220.21229864473815 L 860.5633802816901 218.95293366535373 L 874.6478873239437 208.12509758441675 L 888.7323943661971 210.30589017954364 L 902.8169014084507 230.51641135625118 L 916.9014084507043 253.24370688077397 L 930.9859154929577 241.19088797587716 L 945.0704225352113 273.12739420765246 L 959.1549295774648 275.8553670245293 L 973.2394366197183 281.8401192299228 L 987.3239436619718 293.3313277061486 L 1001.4084507042254 298.5652086549095 L 1015.4929577464789 302.32029729035156 L 1029.5774647887324 314.94646739747435 L 1043.6619718309857 344.0852120671232 L 1057.7464788732395 342.2977856868301 L 1071.8309859154929 349.2731762924777 L 1085.9154929577464 364.07187983255477 L 1100.0 349.10945075388224" fill="none" stroke="#DB7D33" stroke-width="3"/>
<path d="M 100.0 325.95790421689605 L 114.08450704225352 293.4355137145225 L 128.16901408450704 287.2594633567801 L 142.25352112676057 323.5299332673394 L 156.33802816901408 303.64983599254003 L 170.4225352112676 354.38262070148863 L 184.50704225352112 357.61027157530896 L 198.59154929577466 398.46347156175676 L 212.67605633802816 402.3539002862639 L 226.7605633802817 373.5246329754707 L 240.8450704225352 411.78860579234754 L 254.92957746478874 419.1171120241229 L 269.01408450704224 423.91229311922604 L 283.09859154929575 437.8775886437488 L 297.1830985915493 407.7561098204564 L 311.2676056338028 451.3349024155833 L 325.3521126760563 435.6930663346463 L 339.4366197183099 456.94370135526185 L 353.5211267605634 461.76165093267406 L 367.6056338028169 427.72701892619443 L 381.6901408450704 476.9484373700382 L 395.77464788732397 426.6860670028498 L 409.85915492957747 451.262316124771 L 423.943661971831 442.63826741361015 L 438.0281690140845 439.7238065439254 L 452.11267605633805 412.3614507538822 L 466.19718309859155 436.5578798325547 L 480.28169014084506 445.5031762924777 L 494.36619718309856 427.85978568683004 L 508.4507042253521 431.0772120671232 L 522.5352112676056 372.93846739747426 L 536.6197183098591 366.2642972903514 L 550.7042253521126 383.48120865490944 L 564.7887323943662 331.61132770614853 L 578.8732394366198 332.1401192299227 L 592.9577464788732 334.42999999999995 L 607.0422535211268 348.2878807700772 L 621.1267605633802 330.8946722938514 L 635.2112676056338 278.5507913450905 L 649.2957746478874 273.3737027096485 L 663.3802816901408 280.61353260252577 L 677.4647887323944 271.8947879328768 L 691.5492957746479 253.11621431316996 L 705.6338028169014 222.35682370752232 L 719.7183098591549 223.42612016744522 L 733.8028169014085 221.72254924611775 L 747.887323943662 210.04819345607464 L 761.9718309859155 214.6457325863899 L 776.056338028169 197.06968387522898 L 790.1408450704225 216.1279329971501 L 804.2253521126761 203.94156262996177 L 818.3098591549295 196.61098107380562 L 832.3943661971831 205.96834906732596 L 846.4788732394367 211.17229864473813 L 860.5633802816901 202.88693366535372 L 874.6478873239437 221.70909758441675 L 888.7323943661971 226.99189017954362 L 902.8169014084507 215.09041135625114 L 916.9014084507043 272.27770688077396 L 930.9859154929577 255.07888797587714 L 945.0704225352113 277.6373942076525 L 959.1549295774648 284.9573670245293 L 973.2394366197183 275.20611922992276 L 987.3239436619718 281.5053277061486 L 1001.4084507042254 287.01920865490956 L 1015.4929577464789 308.3122972903516 L 1029.5774647887324 308.66446739747437 L 1043.6619718309857 360.24321206712324 L 1057.7464788732395 351.50978568683007 L 1071.8309859154929 344.4371762924777 L 1085.9154929577464 383.9318798325547 L 1100.0 343.52345075388223" fill="none" stroke="#2D2D2D" stroke-width="3" stroke-dasharray="4,4"/>
<circle cx="735" cy="60" r="4" fill="#FFFFFF" stroke="#DB7D33" stroke-width="3"/>
<circle cx="935" cy="60" r="4" fill="#2D2D2D" stroke="#2D2D2D" stroke-width="3"/>
<text x="266.66666666666663" y="525" text-anchor="middle" dominant-baseline="hanging">2024</text>
<text x="933.3333333333334" y="525" text-anchor="middle" dominant-baseline="hanging">2025</text>
</svg>