<svg viewBox="0 0 1200 600" xmlns="http://www.w3.org/2000/svg">
<text x="100.0" y="510" text-anchor="middle" dominant-baseline="hanging">Oct</text>
<text x="158.8235294117647" y="510" text-anchor="middle" dominant-baseline="hanging">Nov</text>
<text x="217.6470588235294" y="510" text-anchor="middle" dominant-baseline="hanging">Dec</text>
<text x="276.47058823529414" y="510" text-anchor="middle" dominant-baseline="hanging">Jan</text>
<text x="335.2941176470588" y="510" text-anchor="middle" dominant-baseline="hanging">Feb</text>
<text x="394.11764705882354" y="510" text-anchor="middle" dominant-baseline="hanging">Mar</text>
<text x="452.94117647058823" y="510" text-anchor="middle" dominant-baseline="hanging">Apr</text>
<text x="511.7647058823529" y="510" text-anchor="middle" dominant-baseline="hanging">May</text>
<text x="570.5882352941176" y="510" text-anchor="middle" dominant-baseline="hanging">Jun</text>
<text x="629.4117647058823" y="510" text-anchor="middle" dominant-baseline="hanging">Jul</text>
<text x="688.2352941176471" y="510" text-anchor="middle" dominant-baseline="hanging">Aug</text>
<text x="747.0588235294117" y="510" text-anchor="middle" dominant-baseline="hanging">Sep</text>
<text x="805.8823529411765" y="510" text-anchor="middle" dominant-baseline="hanging">Oct</text>
<text x="864.7058823529412" y="510" text-anchor="middle" dominant-baseline="hanging">Nov</text>
<text x="923.5294117647059" y="510" text-anchor="middle" dominant-baseline="hanging">Dec</text>
<text x="982.3529411764706" y="510" text-anchor="middle" dominant-baseline="hanging">Jan</text>
<text x="1041.1764705882351" y="510" text-anchor="middle" dominant-baseline="hanging">Feb</text>
<text x="1100.0" y="510" text-anchor="middle" dominant-baseline="hanging">Mar</text>
<line x1="100" y1="100" x2="100" y2="500" stroke="#E9E9DE"/>
<text x="90" y="500.0" text-anchor="end" dominant-baseline="middle">0</text>
<text x="90" y="460.0" text-anchor="end" dominant-baseline="middle">20K</text>
<text x="90" y="420.0" text-anchor="end" dominant-baseline="middle">40K</text>
<text x="90" y="380.0" text-anchor="end" dominant-baseline="middle">60K</text>
<text x="90" y="340.0" text-anchor="end" dominant-baseline="middle">80K</text>
<text x="90" y="300.0" text-anchor="end" dominant-baseline="middle">100K</text>
<text x="90" y="260.0" text-anchor="end" dominant-baseline="middle">120K</text>
<text x="90" y="220.0" text-anchor="end" dominant-baseline="middle">140K</text>
<text x="90" y="180.0" text-anchor="end" dominant-baseline="middle">160K</text>
<text x="90" y="140.0" text-anchor="end" dominant-baseline="middle">180K</text>
<text x="90" y="100.0" text-anchor="end" dominant-baseline="middle">200K</text>
<line x1="158.8235294117647" y1="100" x2="158.8235294117647" y2="500" stroke="#E9E9DE"/>
<line x1="217.6470588235294" y1="100" x2="217.6470588235294" y2="500" stroke="#E9E9DE"/>
<line x1="276.47058823529414" y1="100" x2="276.47058823529414" y2="500" stroke="#E9E9DE"/>
<line x1="335.2941176470588" y1="100" x2="335.2941176470588" y2="500" stroke="#E9E9DE"/>
<line x1="394.11764705882354" y1="100" x2="394.11764705882354" y2="500" stroke="#E9E9DE"/>
<line x1="452.94117647058823" y1="100" x2="452.94117647058823" y2="500" stroke="#E9E9DE"/>
<line x1="511.7647058823529" y1="100" x2="511.7647058823529" y2="500" stroke="#E9E9DE"/>
<line x1="570.5882352941176" y1="100" x2="570.5882352941176" y2="500" stroke="#E9E9DE"/>
<line x1="629.4117647058823" y1="100" x2="629.4117647058823" y2="500" stroke="#E9E9DE"/>
<line x1="688.2352941176471" y1="100" x2="688.2352941176471" y2="500" stroke="#E9E9DE"/>
<line x1="747.0588235294117" y1="100" x2="747.0588235294117" y2="500" stroke="#E9E9DE"/>
<line x1="805.8823529411765" y1="100" x2="805.8823529411765" y2="500" stroke="#E9E9DE"/>
<line x1="864.7058823529412" y1="100" x2="864.7058823529412" y2="500" stroke="#E9E9DE"/>
<line x1="923.5294117647059" y1="100" x2="923.5294117647059" y2="500" stroke="#E9E9DE"/>
<line x1="982.3529411764706" y1="100" x2="982.3529411764706" y2="500" stroke="#E9E9DE"/>
<line x1="1041.1764705882351" y1="100" x2="1041.1764705882351" y2="500" stroke="#E9E9DE"/>
<line x1="1100.0" y1="100" x2="1100.0" y2="500" stroke="#E9E9DE"/>
<line x1="700" y1="60" x2="735" y2="60" stroke="#DB7D33" stroke-width="3"/>
<line x1="900" y1="60" x2="935" y2="60" stroke="#2D2D2D" stroke-width="3" stroke-dasharray="4,4"/>
<text x="755" y="60" alignment-baseline="middle">Actual sales</text>
<text x="955" y="60" alignment-baseline="middle">Predicted sales</text>
<path d="M 100.0 312.7868237075223 L 114.28571428571429 318.44821431316996 L 128.57142857142858 310.93278793287686 L 142.85714285714286 326.7915326025257 L 157.14285714285714 331.0857027096485 L 171.42857142857144 358.2487913450905 L 185.71428571428572 347.94067229385143 L 200.0 393.2598807700773 L 214.28571428571428 396.494 L 228.57142857142858 378.79811922992275 L 242.85714285714286 406.31732770614855 L 257.1428571428571 410.9832086549095 L 271.42857142857144 434.9282972903515 L 285.7142857142857 431.3004673974743 L 300.0 429.5232120671232 L 314.2857142857143 454.1797856868301 L 328.57142857142856 440.26317629247774 L 342.8571428571429 474.0558798325547 L 357.14285714285717 460.0054507538822 L 371.42857142857144 446.1118065439254 L 385.7142857142857 467.4642674136102 L 400.0 444.72631612477096 L 414.2857142857143 468.40606700284985 L 428.57142857142856 451.76843737003827 L 442.85714285714283 432.60101892619446 L 457.14285714285717 419.15365093267405 L 471.42857142857144 437.9337013552618 L 485.7142857142857 431.66106633464625 L 500.0 406.79090241558333 L 514.2857142857142 409.35610982045637 L 528.5714285714286 372.4055886437488 L 542.8571428571429 360.1202931192259 L 557.1428571428571 381.4311120241229 L 571.4285714285714 328.4386057923476 L 585.7142857142858 332.47463297547074 L 600.0 307.697900286264 L 614.2857142857143 324.59147156175675 L 628.5714285714286 305.0062715753089 L 642.8571428571429 275.5026207014886 L 657.1428571428571 266.73783599254 L 671.4285714285714 259.5919332673394 L 685.7142857142857 260.81546335678007 L 700.0 239.21351371452246 L 714.2857142857143 209.36990421689603 L 728.5714285714286 234.20760317485048 L 742.8571428571429 227.90738640462348 L 757.1428571428571 197.21475869803174 L 771.4285714285714 221.4991532485687 L 785.7142857142857 189.5354205803962 L 800.0 216.05361435166492 L 814.2857142857143 217.13707712163387 L 828.5714285714286 197.0228248445247 L 842.8571428571429 196.05622454436067 L 857.1428571428571 226.39195539634 L 871.4285714285714 226.07523935257845 L 885.7142857142857 216.0873235622768 L 900.0 218.9931932046136 L 914.2857142857143 239.8034900292999 L 928.5714285714286 262.996608932709 L 942.8571428571429 251.2689423295938 L 957.1428571428571 283.38523994867563 L 971.4285714285714 287.8540997137361 L 985.7142857142857 291.9845284382433 L 1000.0 303.19172842469095 L 1014.2857142857143 307.99937929851137 L 1028.5714285714284 311.19216400746006 L 1042.857142857143 323.1280667326606 L 1057.142857142857 351.45853664322 L 1071.4285714285716 348.75648628547754 L 1085.7142857142858 354.72409578310396 L 1100.0 368.4363968251495" fill="none" stroke="#DB7D33" stroke-width="3"/>
<path d="M 100.0 310.63082370752227 L 114.28571428571429 337.07021431317 L 128.57142857142858 292.37878793287683 L 142.85714285714286 310.49153260252575 L 157.14285714285714 336.0057027096485 L 171.42857142857144 339.6847913450905 L 185.71428571428572 353.5086722938514 L 200.0 412.7898807700773 L 214.28571428571428 411.84200000000004 L 228.57142857142858 394.94011922992274 L 242.85714285714286 411.3153277061486 L 257.1428571428571 426.56720865490956 L 271.42857142857144 452.8702972903515 L 285.7142857142857 429.6464673974743 L 300.0 444.8812120671232 L 314.2857142857143 440.48578568683007 L 328.57142857142856 444.6671762924777 L 342.8571428571429 475.8058798325547 L 357.14285714285717 448.19345075388225 L 371.42857142857144 452.07180654392533 L 385.7142857142857 452.12626741361015 L 400.0 456.056316124771 L 414.2857142857143 450.9840670028498 L 428.57142857142856 434.00643737003827 L 442.85714285714283 421.62501892619446 L 457.14285714285717 423.2296509326741 L 471.42857142857144 426.9377013552619 L 485.7142857142857 424.98506633464626 L 500.0 414.31290241558327 L 514.2857142857142 423.17610982045636 L 528.5714285714286 386.0535886437488 L 542.8571428571429 351.87229311922596 L 557.1428571428571 378.2131120241229 L 571.4285714285714 320.6806057923476 L 585.7142857142858 325.53463297547074 L 600.0 297.091900286264 L 614.2857142857143 341.04147156175674 L 628.5714285714286 318.558271575309 L 642.8571428571429 291.5306207014886 L 657.1428571428571 260.35183599254003 L 671.4285714285714 257.3559332673394 L 685.7142857142857 273.65546335678005 L 700.0 242.9195137145225 L 714.2857142857143 216.81390421689605 L 728.5714285714286 241.74360317485048 L 742.8571428571429 212.76138640462352 L 757.1428571428571 187.8147586980317 L 771.4285714285714 232.3131532485687 L 785.7142857142857 181.8874205803962 L 800.0 224.02961435166492 L 814.2857142857143 218.88307712163385 L 828.5714285714286 186.7048248445247 L 842.8571428571429 199.68622454436064 L 857.1428571428571 241.45195539634 L 871.4285714285714 217.03523935257846 L 885.7142857142857 200.0213235622768 L 900.0 232.5771932046136 L 914.2857142857143 256.4894900292999 L 928.5714285714286 247.57060893270898 L 942.8571428571429 270.30294232959386 L 957.1428571428571 297.2732399486756 L 971.4285714285714 292.3640997137361 L 985.7142857142857 301.0865284382433 L 1000.0 296.55772842469094 L 1014.2857142857143 296.17337929851135 L 1028.5714285714284 299.64616400746 L 1042.857142857143 329.12006673266063 L 1057.142857142857 345.17653664321995 L 1071.4285714285716 364.9144862854775 L 1085.7142857142858 363.93609578310395 L 1100.0 363.60039682514946" fill="none" stroke="#2D2D2D" stroke-width="3" stroke-dasharray="4,4"/>
<circle cx="735" cy="60" r="4" fill="#FFFFFF" stroke="#DB7D33" stroke-width="3"/>
<circle cx="935" cy="60" r="4" fill="#2D2D2D" stroke="#2D2D2D" stroke-width="3"/>
<text x="276.47058823529414" y="525" text-anchor="middle" dominant-baseline="hanging">2024</text>
<text x="982.3529411764706" y="525" text-anchor="middle" dominant-baseline="hanging">2025</text>
</svg>