<svg viewBox="0 0 1200 600" xmlns="http://www.w3.org/2000/svg">
<text x="100.0" y="510" text-anchor="middle" dominant-baseline="hanging">Oct</text>
<text x="158.8235294117647" y="510" text-anchor="middle" dominant-baseline="hanging">Nov</text>
<text x="217.6470588235294" y="510" text-anchor="middle" dominant-baseline="hanging">Dec</text>
<text x="276.47058823529414" y="510" text-anchor="middle" dominant-baseline="hanging">Jan</text>
<text x="335.2941176470588" y="510" text-anchor="middle" dominant-baseline="hanging">Feb</text>
<text x="394.11764705882354" y="510" text-anchor="middle" dominant-baseline="hanging">Mar</text>
<text x="452.94117647058823" y="510" text-anchor="middle" dominant-baseline="hanging">Apr</text>
<text x="511.7647058823529" y="510" text-anchor="middle" dominant-baseline="hanging">May</text>
<text x="570.5882352941176" y="510" text-anchor="middle" dominant-baseline="hanging">Jun</text>
<text x="629.4117647058823" y="510" text-anchor="middle" dominant-baseline="hanging">Jul</text>
<text x="688.2352941176471" y="510" text-anchor="middle" dominant-baseline="hanging">Aug</text>
<text x="747.0588235294117" y="510" text-anchor="middle" dominant-baseline="hanging">Sep</text>
<text x="805.8823529411765" y="510" text-anchor="middle" dominant-baseline="hanging">Oct</text>
<text x="864.7058823529412" y="510" text-anchor="middle" dominant-baseline="hanging">Nov</text>
<text x="923.5294117647059" y="510" text-anchor="middle" dominant-baseline="hanging">Dec</text>
<text x="982.3529411764706" y="510" text-anchor="middle" dominant-baseline="hanging">Jan</text>
<text x="1041.1764705882351" y="510" text-anchor="middle" dominant-baseline="hanging">Feb</text>
<text x="1100.0" y="510" text-anchor="middle" dominant-baseline="hanging">Mar</text>
<line x1="100" y1="100" x2="100" y2="500" stroke="#E9E9DE"/>
<text x="90" y="500.0" text-anchor="end" dominant-baseline="middle">0</text>
<text x="90" y="460.0" text-anchor="end" dominant-baseline="middle">20K</text>
<text x="90" y="420.0" text-anchor="end" dominant-baseline="middle">40K</text>
<text x="90" y="380.0" text-anchor="end" dominant-baseline="middle">60K</text>
<text x="90" y="340.0" text-anchor="end" dominant-baseline="middle">80K</text>
<text x="90" y="300.0" text-anchor="end" dominant-baseline="middle">100K</text>
<text x="90" y="260.0" text-anchor="end" dominant-baseline="middle">120K</text>
<text x="90" y="220.0" text-anchor="end" dominant-baseline="middle">140K</text>
<text x="90" y="180.0" text-anchor="end" dominant-baseline="middle">160K</text>
<text x="90" y="140.0" text-anchor="end" dominant-baseline="middle">180K</text>
<text x="90" y="100.0" text-anchor="end" dominant-baseline="middle">200K</text>
<line x1="158.8235294117647" y1="100" x2="158.8235294117647" y2="500" stroke="#E9E9DE"/>
<line x1="217.6470588235294" y1="100" x2="217.6470588235294" y2="500" stroke="#E9E9DE"/>
<line x1="276.47058823529414" y1="100" x2="276.47058823529414" y2="500" stroke="#E9E9DE"/>
<line x1="335.2941176470588" y1="100" x2="335.2941176470588" y2="500" stroke="#E9E9DE"/>
<line x1="394.11764705882354" y1="100" x2="394.11764705882354" y2="500" stroke="#E9E9DE"/>
<line x1="452.94117647058823" y1="100" x2="452.94117647058823" y2="500" stroke="#E9E9DE"/>
<line x1="511.7647058823529" y1="100" x2="511.7647058823529" y2="500" stroke="#E9E9DE"/>
<line x1="570.5882352941176" y1="100" x2="570.5882352941176" y2="500" stroke="#E9E9DE"/>
<line x1="629.4117647058823" y1="100" x2="629.4117647058823" y2="500" stroke="#E9E9DE"/>
<line x1="688.2352941176471" y1="100" x2="688.2352941176471" y2="500" stroke="#E9E9DE"/>
<line x1="747.0588235294117" y1="100" x2="747.0588235294117" y2="500" stroke="#E9E9DE"/>
<line x1="805.8823529411765" y1="100" x2="805.8823529411765" y2="500" stroke="#E9E9DE"/>
<line x1="864.7058823529412" y1="100" x2="864.7058823529412" y2="500" stroke="#E9E9DE"/>
<line x1="923.5294117647059" y1="100" x2="923.5294117647059" y2="500" stroke="#E9E9DE"/>
<line x1="982.3529411764706" y1="100" x2="982.3529411764706" y2="500" stroke="#E9E9DE"/>
<line x1="1041.1764705882351" y1="100" x2="1041.1764705882351" y2="500" stroke="#E9E9DE"/>
<line x1="1100.0" y1="100" x2="1100.0" y2="500" stroke="#E9E9DE"/>
<line x1="700" y1="60" x2="735" y2="60" stroke="#DB7D33" stroke-width="3"/>
<line x1="900" y1="60" x2="935" y2="60" stroke="#2D2D2D" stroke-width="3" stroke-dasharray="4,4"/>
<text x="755" y="60" alignment-baseline="middle">Actual sales</text>
<text x="955" y="60" alignment-baseline="middle">Predicted sales</text>
<path d="M 100.0 309.4788237075223 L 114.28571428571429 340.55621431317 L 128.57142857142858 325.0847879328768 L 142.85714285714286 338.7795326025257 L 157.14285714285714 361.3337027096485 L 171.42857142857144 358.51479134509054 L 185.71428571428572 379.2346722938515 L 200.0 364.4198807700773 L 214.28571428571428 391.47800000000007 L 228.57142857142858 384.3521192299228 L 242.85714285714286 423.6353277061486 L 257.1428571428571 395.9892086549095 L 271.42857142857144 415.11829729035156 L 285.7142857142857 418.87046739747433 L 300.0 445.5432120671232 L 314.2857142857143 431.56778568683006 L 328.57142857142856 451.8371762924777 L 342.8571428571429 450.47987983255473 L 357.14285714285717 451.8794507538822 L 371.42857142857144 468.8078065439254 L 385.7142857142857 444.0142674136101 L 400.0 457.050316124771 L 414.2857142857143 451.08606700284986 L 428.57142857142856 434.3284373700382 L 442.85714285714283 460.8170189261944 L 457.14285714285717 438.22165093267404 L 471.42857142857144 422.66170135526187 L 485.7142857142857 439.94706633464625 L 500.0 425.5529024155833 L 514.2857142857142 399.11810982045637 L 528.5714285714286 392.66158864374876 L 542.8571428571429 384.9602931192259 L 557.1428571428571 363.7471120241229 L 571.4285714285714 350.82260579234753 L 585.7142857142858 323.3846329754707 L 600.0 331.90390028626393 L 614.2857142857143 307.09147156175675 L 628.5714285714286 295.1602715753089 L 642.8571428571429 259.6126207014886 L 657.1428571428571 260.23383599254 L 671.4285714285714 256.6839332673394 L 685.7142857142857 224.65346335678015 L 700.0 247.15951371452246 L 714.2857142857143 243.03390421689605 L 728.5714285714286 210.92560317485044 L 742.8571428571429 202.4613864046235 L 757.1428571428571 210.8867586980317 L 771.4285714285714 192.7291532485687 L 785.7142857142857 193.93742058039618 L 800.0 203.6916143516649 L 814.2857142857143 213.79707712163383 L 828.5714285714286 213.55682484452473 L 842.8571428571429 208.66022454436063 L 857.1428571428571 199.39195539634 L 871.4285714285714 211.27723935257845 L 885.7142857142857 218.8453235622768 L 900.0 245.96119320461355 L 914.2857142857143 229.22749002929987 L 928.5714285714286 244.79460893270902 L 942.8571428571429 282.6909423295938 L 957.1428571428571 281.8932399486756 L 971.4285714285714 277.21609971373607 L 985.7142857142857 302.13452843824325 L 1000.0 305.72172842469104 L 1014.2857142857143 324.8333792985114 L 1028.5714285714284 316.9361640074601 L 1042.857142857143 334.7640667326607 L 1057.142857142857 344.54653664321995 L 1071.4285714285716 326.6084862854775 L 1085.7142857142858 330.592095783104 L 1100.0 341.0723968251495" fill="none" stroke="#DB7D33" stroke-width="3"/>
<path d="M 100.0 291.0288237075223 L 114.28571428571429 330.16221431316995 L 128.57142857142858 336.4027879328768 L 142.85714285714286 345.9595326025257 L 157.14285714285714 357.98170270964846 L 171.42857142857144 350.8087913450905 L 185.71428571428572 370.77467229385144 L 200.0 351.3118807700773 L 214.28571428571428 398.7080000000001 L 228.57142857142858 394.55011922992276 L 242.85714285714286 406.1033277061486 L 257.1428571428571 404.88120865490947 L 271.42857142857144 422.5682972903515 L 285.7142857142857 434.5564673974743 L 300.0 458.0272120671232 L 314.2857142857143 450.72178568683006 L 328.57142857142856 448.1911762924777 L 342.8571428571429 463.4798798325547 L 357.14285714285717 462.00145075388224 L 371.42857142857144 462.0458065439254 L 385.7142857142857 444.17426741361015 L 400.0 475.918316124771 L 414.2857142857143 458.89206700284984 L 428.57142857142856 449.0864373700383 L 442.85714285714283 443.55301892619445 L 457.14285714285717 443.42365093267404 L 471.42857142857144 410.1877013552619 L 485.7142857142857 434.86106633464624 L 500.0 424.90690241558326 L 514.2857142857142 393.39010982045636 L 528.5714285714286 393.2875886437488 L 542.8571428571429 370.93229311922596 L 557.1428571428571 349.26311202412285 L 571.4285714285714 369.0706057923476 L 585.7142857142858 314.9826329754707 L 600.0 320.15990028626396 L 614.2857142857143 320.2574715617567 L 628.5714285714286 286.68227157530896 L 642.8571428571429 248.56062070148857 L 657.1428571428571 261.06383599254 L 671.4285714285714 252.9759332673394 L 685.7142857142857 219.9054633567801 L 700.0 253.43151371452248 L 714.2857142857143 257.66990421689604 L 728.5714285714286 230.0316031748505 L 742.8571428571429 185.0933864046235 L 757.1428571428571 206.97075869803172 L 771.4285714285714 180.7571532485687 L 785.7142857142857 197.2294205803962 L 800.0 216.1476143516649 L 814.2857142857143 207.86307712163386 L 828.5714285714286 208.81282484452473 L 842.8571428571429 216.69422454436065 L 857.1428571428571 203.75995539634 L 871.4285714285714 201.3172393525785 L 885.7142857142857 236.2713235622768 L 900.0 238.37919320461359 L 914.2857142857143 216.93749002929988 L 928.5714285714286 241.41260893270902 L 942.8571428571429 285.4209423295938 L 957.1428571428571 267.65923994867563 L 971.4285714285714 270.5140997137361 L 985.7142857142857 282.5985284382433 L 1000.0 306.94572842469097 L 1014.2857142857143 341.0133792985114 L 1028.5714285714284 299.58416400746 L 1042.857142857143 316.24406673266066 L 1057.142857142857 361.05053664321997 L 1071.4285714285716 308.7484862854775 L 1085.7142857142858 333.42209578310394 L 1100.0 348.32639682514946" fill="none" stroke="#2D2D2D" stroke-width="3" stroke-dasharray="4,4"/>
<circle cx="735" cy="60" r="4" fill="#FFFFFF" stroke="#DB7D33" stroke-width="3"/>
<circle cx="935" cy="60" r="4" fill="#2D2D2D" stroke="#2D2D2D" stroke-width="3"/>
<text x="276.47058823529414" y="525" text-anchor="middle" dominant-baseline="hanging">2024</text>
<text x="982.3529411764706" y="525" text-anchor="middle" dominant-baseline="hanging">2025</text>
</svg>