<svg viewBox="0 0 400 400" xmlns="http://www.w3.org/2000/svg">
<path d="M 201.3030214988503,340.95389311788625 A 150 150 0 0 1 98.30860776328069 340.81193120126443 L 131.0464895132029,251.63104144046363 A 55 55 0 0 0 168.81110788291178 251.68309414322496 Z" fill="green"></path>
<path d="M 98.30860776328069,340.81193120126443 A 150 150 0 0 1 0.03478566797480198 196.76975382521024 L 95.0127547449241,198.81557640257708 A 55 55 0 0 0 131.0464895132029 251.63104144046363 Z" fill="red"></path>
<path d="M 0.03478566797480198,196.76975382521024 A 150 150 0 0 1 195.97386870711517 57.21903699687084 L 166.8570851926089,147.64698023218597 A 55 55 0 0 0 95.0127547449241 198.81557640257708 Z" fill="blue"></path>
<path d="M 195.97386870711517,57.21903699687084 A 150 150 0 0 1 201.30302149885028 340.95389311788625 L 168.81110788291178,251.68309414322496 A 55 55 0 0 0 166.8570851926089 147.64698023218597 Z" fill="orange"></path>
<circle cx="325" cy="175" r="5" fill="green"/>
<circle cx="325" cy="195" r="5" fill="red"/>
<circle cx="325" cy="215" r="5" fill="blue"/>
<circle cx="325" cy="235" r="5" fill="orange"/>
<text x="335" y="175" alignment-baseline="middle">Series 1</text>
<text x="335" y="195" alignment-baseline="middle">Series 2</text>
<text x="335" y="215" alignment-baseline="middle">Series 3</text>
<text x="335" y="235" alignment-baseline="middle">Series 4</text>
</svg>