<svg viewBox="0 0 200 200" xmlns="http://www.w3.org/2000/svg">
<path d="M 99.99999999999999,0.0 A 100 100 0 0 1 158.7785252292473 19.098300562505244 L 132.32818887608602,55.504065309377886 A 55 55 0 0 0 99.99999999999999 45.0 Z" fill="green"></path>
<path d="M 158.7785252292473,19.098300562505244 A 100 100 0 0 1 195.10565162951536 130.90169943749473 L 152.30810839623345,116.9959346906221 A 55 55 0 0 0 132.32818887608602 55.504065309377886 Z" fill="red"></path>
<path d="M 195.10565162951536,130.90169943749473 A 100 100 0 0 1 41.22147477075271 180.90169943749476 L 67.67181112391398,144.4959346906221 A 55 55 0 0 0 152.30810839623345 116.9959346906221 Z" fill="blue"></path>
<path d="M 41.22147477075271,180.90169943749476 A 100 100 0 0 1 99.99999999999996 0.0 L 99.99999999999997,45.0 A 55 55 0 0 0 67.67181112391398 144.4959346906221 Z" fill="orange"></path>
</svg>