<svg viewBox="0 0 200 200" xmlns="http://www.w3.org/2000/svg">
<path d="M 99.99999999999999,0.0 A 100 100 0 0 1 164.4896911562772 23.573043142043247 L 135.46933013595248,57.96517372812379 A 55 55 0 0 0 99.99999999999999 45.0 Z" fill="green" ></path>
<path d="M 164.4896911562772,23.573043142043247 A 100 100 0 0 1 193.2109306818016 136.21770839565053 L 151.26601187499088,119.91973961760779 A 55 55 0 0 0 135.46933013595248 57.96517372812379 Z" fill="red" ></path>
<path d="M 193.2109306818016,136.21770839565053 A 100 100 0 0 1 38.643152930957605 178.96415210553548 L 66.25373411202668,143.43028365804452 A 55 55 0 0 0 151.26601187499088 119.91973961760779 Z" fill="blue" ></path>
<path d="M 38.643152930957605,178.96415210553548 A 100 100 0 0 1 99.99999999999996 0.0 L 99.99999999999997,45.0 A 55 55 0 0 0 66.25373411202668 143.43028365804452 Z" fill="orange" ></path>
</svg>