<svg viewBox="0 0 200 200" xmlns="http://www.w3.org/2000/svg">
<style>
.psc-hover-group text {
     display: none;;
}

.psc-hover-group:hover text {
     display: inline;
}
</style>
<g class="psc-hover-group">
<path d="M 99.99999999999999,0.0 A 100 100 0 0 1 158.7785252292473 19.098300562505244 L 132.32818887608602,55.504065309377886 A 55 55 0 0 0 99.99999999999999 45.0 Z" fill="green" class="psc-hover-target"></path>
<text x="100" y="90" alignment-baseline="middle" text-anchor="middle">Apples</text>
<text x="100" y="110" alignment-baseline="middle" text-anchor="middle">10.00%</text>
</g>
<g class="psc-hover-group">
<path d="M 158.7785252292473,19.098300562505244 A 100 100 0 0 1 195.10565162951536 130.90169943749473 L 152.30810839623345,116.9959346906221 A 55 55 0 0 0 132.32818887608602 55.504065309377886 Z" fill="red" class="psc-hover-target"></path>
<text x="100" y="90" alignment-baseline="middle" text-anchor="middle">Bananas</text>
<text x="100" y="110" alignment-baseline="middle" text-anchor="middle">20.00%</text>
</g>
<g class="psc-hover-group">
<path d="M 195.10565162951536,130.90169943749473 A 100 100 0 0 1 41.22147477075271 180.90169943749476 L 67.67181112391398,144.4959346906221 A 55 55 0 0 0 152.30810839623345 116.9959346906221 Z" fill="blue" class="psc-hover-target"></path>
<text x="100" y="90" alignment-baseline="middle" text-anchor="middle">Cherries</text>
<text x="100" y="110" alignment-baseline="middle" text-anchor="middle">30.00%</text>
</g>
<g class="psc-hover-group">
<path d="M 41.22147477075271,180.90169943749476 A 100 100 0 0 1 99.99999999999996 0.0 L 99.99999999999997,45.0 A 55 55 0 0 0 67.67181112391398 144.4959346906221 Z" fill="orange" class="psc-hover-target"></path>
<text x="100" y="90" alignment-baseline="middle" text-anchor="middle">Durians</text>
<text x="100" y="110" alignment-baseline="middle" text-anchor="middle">40.00%</text>
</g>
</svg>