<svg viewBox="0 0 800 600" xmlns="http://www.w3.org/2000/svg">
<line x1="100" y1="500" x2="700" y2="500" stroke="#2e2e2c"/>
<line x1="100.0" y1="500" x2="100.0" y2="505" stroke="#2e2e2c"/>
<line x1="166.66666666666666" y1="500" x2="166.66666666666666" y2="505" stroke="#2e2e2c"/>
<line x1="233.33333333333331" y1="500" x2="233.33333333333331" y2="505" stroke="#2e2e2c"/>
<line x1="300.0" y1="500" x2="300.0" y2="505" stroke="#2e2e2c"/>
<line x1="366.66666666666663" y1="500" x2="366.66666666666663" y2="505" stroke="#2e2e2c"/>
<line x1="433.33333333333337" y1="500" x2="433.33333333333337" y2="505" stroke="#2e2e2c"/>
<line x1="500.0" y1="500" x2="500.0" y2="505" stroke="#2e2e2c"/>
<line x1="566.6666666666667" y1="500" x2="566.6666666666667" y2="505" stroke="#2e2e2c"/>
<line x1="633.3333333333333" y1="500" x2="633.3333333333333" y2="505" stroke="#2e2e2c"/>
<line x1="700.0" y1="500" x2="700.0" y2="505" stroke="#2e2e2c"/>
<text x="100.0" y="510" text-anchor="middle" dominant-baseline="hanging">-25</text>
<text x="166.66666666666666" y="510" text-anchor="middle" dominant-baseline="hanging">-20</text>
<text x="233.33333333333331" y="510" text-anchor="middle" dominant-baseline="hanging">-15</text>
<text x="300.0" y="510" text-anchor="middle" dominant-baseline="hanging">-10</text>
<text x="366.66666666666663" y="510" text-anchor="middle" dominant-baseline="hanging">-5</text>
<text x="433.33333333333337" y="510" text-anchor="middle" dominant-baseline="hanging">0</text>
<text x="500.0" y="510" text-anchor="middle" dominant-baseline="hanging">5</text>
<text x="566.6666666666667" y="510" text-anchor="middle" dominant-baseline="hanging">10</text>
<text x="633.3333333333333" y="510" text-anchor="middle" dominant-baseline="hanging">15</text>
<text x="700.0" y="510" text-anchor="middle" dominant-baseline="hanging">20</text>
<line x1="433.33333333333337" y1="100" x2="433.33333333333337" y2="500" stroke="#2e2e2c"/>
<text x="90" y="166.66666666666666" text-anchor="end" dominant-baseline="middle">A</text>
<text x="90" y="300.0" text-anchor="end" dominant-baseline="middle">B</text>
<text x="90" y="433.3333333333333" text-anchor="end" dominant-baseline="middle">C</text>
<rect x="300.0" y="125.66666666666666" width="133.33333333333337" height="40" stroke="none" fill="green"/>
<rect x="433.33333333333337" y="259.0" width="266.66666666666663" height="40" stroke="none" fill="green"/>
<rect x="366.66666666666663" y="392.3333333333333" width="66.66666666666674" height="40" stroke="none" fill="green"/>
<rect x="433.33333333333337" y="167.66666666666666" width="199.9999999999999" height="40" stroke="none" fill="red"/>
<rect x="100.0" y="301.0" width="333.33333333333337" height="40" stroke="none" fill="red"/>
<rect x="433.33333333333337" y="434.3333333333333" width="133.33333333333337" height="40" stroke="none" fill="red"/>
</svg>