<svg viewBox="0 0 800 600" xmlns="http://www.w3.org/2000/svg">
<line x1="100" y1="500" x2="700" y2="500" stroke="#2e2e2c"/>
<line x1="100.0" y1="500" x2="100.0" y2="505" stroke="#2e2e2c"/>
<line x1="175.0" y1="500" x2="175.0" y2="505" stroke="#2e2e2c"/>
<line x1="250.0" y1="500" x2="250.0" y2="505" stroke="#2e2e2c"/>
<line x1="325.0" y1="500" x2="325.0" y2="505" stroke="#2e2e2c"/>
<line x1="400.0" y1="500" x2="400.0" y2="505" stroke="#2e2e2c"/>
<line x1="475.0" y1="500" x2="475.0" y2="505" stroke="#2e2e2c"/>
<line x1="550.0" y1="500" x2="550.0" y2="505" stroke="#2e2e2c"/>
<line x1="625.0" y1="500" x2="625.0" y2="505" stroke="#2e2e2c"/>
<line x1="700.0" y1="500" x2="700.0" y2="505" stroke="#2e2e2c"/>
<text x="100.0" y="510" text-anchor="middle" dominant-baseline="hanging">0</text>
<text x="175.0" y="510" text-anchor="middle" dominant-baseline="hanging">5</text>
<text x="250.0" y="510" text-anchor="middle" dominant-baseline="hanging">10</text>
<text x="325.0" y="510" text-anchor="middle" dominant-baseline="hanging">15</text>
<text x="400.0" y="510" text-anchor="middle" dominant-baseline="hanging">20</text>
<text x="475.0" y="510" text-anchor="middle" dominant-baseline="hanging">25</text>
<text x="550.0" y="510" text-anchor="middle" dominant-baseline="hanging">30</text>
<text x="625.0" y="510" text-anchor="middle" dominant-baseline="hanging">35</text>
<text x="700.0" y="510" text-anchor="middle" dominant-baseline="hanging">40</text>
<line x1="100.0" y1="100" x2="100.0" y2="500" stroke="#2e2e2c"/>
<line x1="95" y1="140.0" x2="100" y2="140.0" stroke="#2e2e2c"/>
<line x1="95" y1="220.0" x2="100" y2="220.0" stroke="#2e2e2c"/>
<line x1="95" y1="300.0" x2="100" y2="300.0" stroke="#2e2e2c"/>
<line x1="95" y1="380.0" x2="100" y2="380.0" stroke="#2e2e2c"/>
<line x1="95" y1="460.0" x2="100" y2="460.0" stroke="#2e2e2c"/>
<text x="90" y="140.0" text-anchor="end" dominant-baseline="middle">Apples</text>
<text x="90" y="220.0" text-anchor="end" dominant-baseline="middle">Bananas</text>
<text x="90" y="300.0" text-anchor="end" dominant-baseline="middle">Cherries</text>
<text x="90" y="380.0" text-anchor="end" dominant-baseline="middle">Dates</text>
<text x="90" y="460.0" text-anchor="end" dominant-baseline="middle">Elderberries</text>
<rect x="100.0" y="120.0" width="375.0" height="40" stroke="none" fill="green"/>
<rect x="100.0" y="200.0" width="600.0" height="40" stroke="none" fill="green"/>
<rect x="100.0" y="280.0" width="225.0" height="40" stroke="none" fill="green"/>
<rect x="100.0" y="360.0" width="450.0" height="40" stroke="none" fill="green"/>
<rect x="100.0" y="440.0" width="525.0" height="40" stroke="none" fill="green"/>
</svg>