<svg viewBox="0 0 900 600" xmlns="http://www.w3.org/2000/svg">
<line x1="100" y1="450" x2="700" y2="450" stroke="#2e2e2c"/>
<line x1="100.0" y1="450" x2="100.0" y2="455" stroke="#2e2e2c"/>
<line x1="130.0" y1="450" x2="130.0" y2="455" stroke="#2e2e2c"/>
<line x1="160.0" y1="450" x2="160.0" y2="455" stroke="#2e2e2c"/>
<line x1="190.0" y1="450" x2="190.0" y2="455" stroke="#2e2e2c"/>
<line x1="220.0" y1="450" x2="220.0" y2="455" stroke="#2e2e2c"/>
<line x1="250.0" y1="450" x2="250.0" y2="455" stroke="#2e2e2c"/>
<line x1="280.0" y1="450" x2="280.0" y2="455" stroke="#2e2e2c"/>
<line x1="310.0" y1="450" x2="310.0" y2="455" stroke="#2e2e2c"/>
<line x1="340.0" y1="450" x2="340.0" y2="455" stroke="#2e2e2c"/>
<line x1="370.0" y1="450" x2="370.0" y2="455" stroke="#2e2e2c"/>
<line x1="400.0" y1="450" x2="400.0" y2="455" stroke="#2e2e2c"/>
<line x1="430.0" y1="450" x2="430.0" y2="455" stroke="#2e2e2c"/>
<line x1="460.0" y1="450" x2="460.0" y2="455" stroke="#2e2e2c"/>
<line x1="490.0" y1="450" x2="490.0" y2="455" stroke="#2e2e2c"/>
<line x1="520.0" y1="450" x2="520.0" y2="455" stroke="#2e2e2c"/>
<line x1="550.0" y1="450" x2="550.0" y2="455" stroke="#2e2e2c"/>
<line x1="580.0" y1="450" x2="580.0" y2="455" stroke="#2e2e2c"/>
<line x1="610.0" y1="450" x2="610.0" y2="455" stroke="#2e2e2c"/>
<line x1="640.0" y1="450" x2="640.0" y2="455" stroke="#2e2e2c"/>
<line x1="670.0" y1="450" x2="670.0" y2="455" stroke="#2e2e2c"/>
<line x1="700.0" y1="450" x2="700.0" y2="455" stroke="#2e2e2c"/>
<text x="100.0" y="460" text-anchor="middle" dominant-baseline="hanging">0</text>
<text x="130.0" y="460" text-anchor="middle" dominant-baseline="hanging">5</text>
<text x="160.0" y="460" text-anchor="middle" dominant-baseline="hanging">10</text>
<text x="190.0" y="460" text-anchor="middle" dominant-baseline="hanging">15</text>
<text x="220.0" y="460" text-anchor="middle" dominant-baseline="hanging">20</text>
<text x="250.0" y="460" text-anchor="middle" dominant-baseline="hanging">25</text>
<text x="280.0" y="460" text-anchor="middle" dominant-baseline="hanging">30</text>
<text x="310.0" y="460" text-anchor="middle" dominant-baseline="hanging">35</text>
<text x="340.0" y="460" text-anchor="middle" dominant-baseline="hanging">40</text>
<text x="370.0" y="460" text-anchor="middle" dominant-baseline="hanging">45</text>
<text x="400.0" y="460" text-anchor="middle" dominant-baseline="hanging">50</text>
<text x="430.0" y="460" text-anchor="middle" dominant-baseline="hanging">55</text>
<text x="460.0" y="460" text-anchor="middle" dominant-baseline="hanging">60</text>
<text x="490.0" y="460" text-anchor="middle" dominant-baseline="hanging">65</text>
<text x="520.0" y="460" text-anchor="middle" dominant-baseline="hanging">70</text>
<text x="550.0" y="460" text-anchor="middle" dominant-baseline="hanging">75</text>
<text x="580.0" y="460" text-anchor="middle" dominant-baseline="hanging">80</text>
<text x="610.0" y="460" text-anchor="middle" dominant-baseline="hanging">85</text>
<text x="640.0" y="460" text-anchor="middle" dominant-baseline="hanging">90</text>
<text x="670.0" y="460" text-anchor="middle" dominant-baseline="hanging">95</text>
<text x="700.0" y="460" text-anchor="middle" dominant-baseline="hanging">100</text>
<line x1="100" y1="150" x2="100" y2="450" stroke="#2e2e2c"/>
<line x1="95" y1="450.0" x2="100" y2="450.0" stroke="#2e2e2c"/>
<line x1="95" y1="420.0" x2="100" y2="420.0" stroke="#2e2e2c"/>
<line x1="95" y1="390.0" x2="100" y2="390.0" stroke="#2e2e2c"/>
<line x1="95" y1="360.0" x2="100" y2="360.0" stroke="#2e2e2c"/>
<line x1="95" y1="330.0" x2="100" y2="330.0" stroke="#2e2e2c"/>
<line x1="95" y1="300.0" x2="100" y2="300.0" stroke="#2e2e2c"/>
<line x1="95" y1="270.0" x2="100" y2="270.0" stroke="#2e2e2c"/>
<line x1="95" y1="240.0" x2="100" y2="240.0" stroke="#2e2e2c"/>
<line x1="95" y1="210.0" x2="100" y2="210.0" stroke="#2e2e2c"/>
<line x1="95" y1="180.0" x2="100" y2="180.0" stroke="#2e2e2c"/>
<line x1="95" y1="150.0" x2="100" y2="150.0" stroke="#2e2e2c"/>
<text x="90" y="450.0" text-anchor="end" dominant-baseline="middle">0</text>
<text x="90" y="420.0" text-anchor="end" dominant-baseline="middle">1,000</text>
<text x="90" y="390.0" text-anchor="end" dominant-baseline="middle">2,000</text>
<text x="90" y="360.0" text-anchor="end" dominant-baseline="middle">3,000</text>
<text x="90" y="330.0" text-anchor="end" dominant-baseline="middle">4,000</text>
<text x="90" y="300.0" text-anchor="end" dominant-baseline="middle">5,000</text>
<text x="90" y="270.0" text-anchor="end" dominant-baseline="middle">6,000</text>
<text x="90" y="240.0" text-anchor="end" dominant-baseline="middle">7,000</text>
<text x="90" y="210.0" text-anchor="end" dominant-baseline="middle">8,000</text>
<text x="90" y="180.0" text-anchor="end" dominant-baseline="middle">9,000</text>
<text x="90" y="150.0" text-anchor="end" dominant-baseline="middle">10,000</text>
<line x1="130.0" y1="150" x2="130.0" y2="450" stroke="#6e6e6e" stroke-width="0.6"/>
<line x1="124.0" y1="150" x2="124.0" y2="450" stroke="#6e6e6e" stroke-width="0.2"/>
<line x1="118.0" y1="150" x2="118.0" y2="450" stroke="#6e6e6e" stroke-width="0.2"/>
<line x1="112.0" y1="150" x2="112.0" y2="450" stroke="#6e6e6e" stroke-width="0.2"/>
<line x1="106.0" y1="150" x2="106.0" y2="450" stroke="#6e6e6e" stroke-width="0.2"/>
<line x1="160.0" y1="150" x2="160.0" y2="450" stroke="#6e6e6e" stroke-width="0.6"/>
<line x1="154.0" y1="150" x2="154.0" y2="450" stroke="#6e6e6e" stroke-width="0.2"/>
<line x1="148.0" y1="150" x2="148.0" y2="450" stroke="#6e6e6e" stroke-width="0.2"/>
<line x1="142.0" y1="150" x2="142.0" y2="450" stroke="#6e6e6e" stroke-width="0.2"/>
<line x1="136.0" y1="150" x2="136.0" y2="450" stroke="#6e6e6e" stroke-width="0.2"/>
<line x1="190.0" y1="150" x2="190.0" y2="450" stroke="#6e6e6e" stroke-width="0.6"/>
<line x1="184.0" y1="150" x2="184.0" y2="450" stroke="#6e6e6e" stroke-width="0.2"/>
<line x1="178.0" y1="150" x2="178.0" y2="450" stroke="#6e6e6e" stroke-width="0.2"/>
<line x1="172.0" y1="150" x2="172.0" y2="450" stroke="#6e6e6e" stroke-width="0.2"/>
<line x1="166.0" y1="150" x2="166.0" y2="450" stroke="#6e6e6e" stroke-width="0.2"/>
<line x1="220.0" y1="150" x2="220.0" y2="450" stroke="#6e6e6e" stroke-width="0.6"/>
<line x1="214.0" y1="150" x2="214.0" y2="450" stroke="#6e6e6e" stroke-width="0.2"/>
<line x1="208.0" y1="150" x2="208.0" y2="450" stroke="#6e6e6e" stroke-width="0.2"/>
<line x1="202.0" y1="150" x2="202.0" y2="450" stroke="#6e6e6e" stroke-width="0.2"/>
<line x1="196.0" y1="150" x2="196.0" y2="450" stroke="#6e6e6e" stroke-width="0.2"/>
<line x1="250.0" y1="150" x2="250.0" y2="450" stroke="#6e6e6e" stroke-width="0.6"/>
<line x1="244.0" y1="150" x2="244.0" y2="450" stroke="#6e6e6e" stroke-width="0.2"/>
<line x1="238.0" y1="150" x2="238.0" y2="450" stroke="#6e6e6e" stroke-width="0.2"/>
<line x1="232.0" y1="150" x2="232.0" y2="450" stroke="#6e6e6e" stroke-width="0.2"/>
<line x1="226.0" y1="150" x2="226.0" y2="450" stroke="#6e6e6e" stroke-width="0.2"/>
<line x1="280.0" y1="150" x2="280.0" y2="450" stroke="#6e6e6e" stroke-width="0.6"/>
<line x1="274.0" y1="150" x2="274.0" y2="450" stroke="#6e6e6e" stroke-width="0.2"/>
<line x1="268.0" y1="150" x2="268.0" y2="450" stroke="#6e6e6e" stroke-width="0.2"/>
<line x1="262.0" y1="150" x2="262.0" y2="450" stroke="#6e6e6e" stroke-width="0.2"/>
<line x1="256.0" y1="150" x2="256.0" y2="450" stroke="#6e6e6e" stroke-width="0.2"/>
<line x1="310.0" y1="150" x2="310.0" y2="450" stroke="#6e6e6e" stroke-width="0.6"/>
<line x1="304.0" y1="150" x2="304.0" y2="450" stroke="#6e6e6e" stroke-width="0.2"/>
<line x1="298.0" y1="150" x2="298.0" y2="450" stroke="#6e6e6e" stroke-width="0.2"/>
<line x1="292.0" y1="150" x2="292.0" y2="450" stroke="#6e6e6e" stroke-width="0.2"/>
<line x1="286.0" y1="150" x2="286.0" y2="450" stroke="#6e6e6e" stroke-width="0.2"/>
<line x1="340.0" y1="150" x2="340.0" y2="450" stroke="#6e6e6e" stroke-width="0.6"/>
<line x1="334.0" y1="150" x2="334.0" y2="450" stroke="#6e6e6e" stroke-width="0.2"/>
<line x1="328.0" y1="150" x2="328.0" y2="450" stroke="#6e6e6e" stroke-width="0.2"/>
<line x1="322.0" y1="150" x2="322.0" y2="450" stroke="#6e6e6e" stroke-width="0.2"/>
<line x1="316.0" y1="150" x2="316.0" y2="450" stroke="#6e6e6e" stroke-width="0.2"/>
<line x1="370.0" y1="150" x2="370.0" y2="450" stroke="#6e6e6e" stroke-width="0.6"/>
<line x1="364.0" y1="150" x2="364.0" y2="450" stroke="#6e6e6e" stroke-width="0.2"/>
<line x1="358.0" y1="150" x2="358.0" y2="450" stroke="#6e6e6e" stroke-width="0.2"/>
<line x1="352.0" y1="150" x2="352.0" y2="450" stroke="#6e6e6e" stroke-width="0.2"/>
<line x1="346.0" y1="150" x2="346.0" y2="450" stroke="#6e6e6e" stroke-width="0.2"/>
<line x1="400.0" y1="150" x2="400.0" y2="450" stroke="#6e6e6e" stroke-width="0.6"/>
<line x1="394.0" y1="150" x2="394.0" y2="450" stroke="#6e6e6e" stroke-width="0.2"/>
<line x1="388.0" y1="150" x2="388.0" y2="450" stroke="#6e6e6e" stroke-width="0.2"/>
<line x1="382.0" y1="150" x2="382.0" y2="450" stroke="#6e6e6e" stroke-width="0.2"/>
<line x1="376.0" y1="150" x2="376.0" y2="450" stroke="#6e6e6e" stroke-width="0.2"/>
<line x1="430.0" y1="150" x2="430.0" y2="450" stroke="#6e6e6e" stroke-width="0.6"/>
<line x1="424.0" y1="150" x2="424.0" y2="450" stroke="#6e6e6e" stroke-width="0.2"/>
<line x1="418.0" y1="150" x2="418.0" y2="450" stroke="#6e6e6e" stroke-width="0.2"/>
<line x1="412.0" y1="150" x2="412.0" y2="450" stroke="#6e6e6e" stroke-width="0.2"/>
<line x1="406.0" y1="150" x2="406.0" y2="450" stroke="#6e6e6e" stroke-width="0.2"/>
<line x1="460.0" y1="150" x2="460.0" y2="450" stroke="#6e6e6e" stroke-width="0.6"/>
<line x1="454.0" y1="150" x2="454.0" y2="450" stroke="#6e6e6e" stroke-width="0.2"/>
<line x1="448.0" y1="150" x2="448.0" y2="450" stroke="#6e6e6e" stroke-width="0.2"/>
<line x1="442.0" y1="150" x2="442.0" y2="450" stroke="#6e6e6e" stroke-width="0.2"/>
<line x1="436.0" y1="150" x2="436.0" y2="450" stroke="#6e6e6e" stroke-width="0.2"/>
<line x1="490.0" y1="150" x2="490.0" y2="450" stroke="#6e6e6e" stroke-width="0.6"/>
<line x1="484.0" y1="150" x2="484.0" y2="450" stroke="#6e6e6e" stroke-width="0.2"/>
<line x1="478.0" y1="150" x2="478.0" y2="450" stroke="#6e6e6e" stroke-width="0.2"/>
<line x1="472.0" y1="150" x2="472.0" y2="450" stroke="#6e6e6e" stroke-width="0.2"/>
<line x1="466.0" y1="150" x2="466.0" y2="450" stroke="#6e6e6e" stroke-width="0.2"/>
<line x1="520.0" y1="150" x2="520.0" y2="450" stroke="#6e6e6e" stroke-width="0.6"/>
<line x1="514.0" y1="150" x2="514.0" y2="450" stroke="#6e6e6e" stroke-width="0.2"/>
<line x1="508.0" y1="150" x2="508.0" y2="450" stroke="#6e6e6e" stroke-width="0.2"/>
<line x1="502.0" y1="150" x2="502.0" y2="450" stroke="#6e6e6e" stroke-width="0.2"/>
<line x1="496.0" y1="150" x2="496.0" y2="450" stroke="#6e6e6e" stroke-width="0.2"/>
<line x1="550.0" y1="150" x2="550.0" y2="450" stroke="#6e6e6e" stroke-width="0.6"/>
<line x1="544.0" y1="150" x2="544.0" y2="450" stroke="#6e6e6e" stroke-width="0.2"/>
<line x1="538.0" y1="150" x2="538.0" y2="450" stroke="#6e6e6e" stroke-width="0.2"/>
<line x1="532.0" y1="150" x2="532.0" y2="450" stroke="#6e6e6e" stroke-width="0.2"/>
<line x1="526.0" y1="150" x2="526.0" y2="450" stroke="#6e6e6e" stroke-width="0.2"/>
<line x1="580.0" y1="150" x2="580.0" y2="450" stroke="#6e6e6e" stroke-width="0.6"/>
<line x1="574.0" y1="150" x2="574.0" y2="450" stroke="#6e6e6e" stroke-width="0.2"/>
<line x1="568.0" y1="150" x2="568.0" y2="450" stroke="#6e6e6e" stroke-width="0.2"/>
<line x1="562.0" y1="150" x2="562.0" y2="450" stroke="#6e6e6e" stroke-width="0.2"/>
<line x1="556.0" y1="150" x2="556.0" y2="450" stroke="#6e6e6e" stroke-width="0.2"/>
<line x1="610.0" y1="150" x2="610.0" y2="450" stroke="#6e6e6e" stroke-width="0.6"/>
<line x1="604.0" y1="150" x2="604.0" y2="450" stroke="#6e6e6e" stroke-width="0.2"/>
<line x1="598.0" y1="150" x2="598.0" y2="450" stroke="#6e6e6e" stroke-width="0.2"/>
<line x1="592.0" y1="150" x2="592.0" y2="450" stroke="#6e6e6e" stroke-width="0.2"/>
<line x1="586.0" y1="150" x2="586.0" y2="450" stroke="#6e6e6e" stroke-width="0.2"/>
<line x1="640.0" y1="150" x2="640.0" y2="450" stroke="#6e6e6e" stroke-width="0.6"/>
<line x1="634.0" y1="150" x2="634.0" y2="450" stroke="#6e6e6e" stroke-width="0.2"/>
<line x1="628.0" y1="150" x2="628.0" y2="450" stroke="#6e6e6e" stroke-width="0.2"/>
<line x1="622.0" y1="150" x2="622.0" y2="450" stroke="#6e6e6e" stroke-width="0.2"/>
<line x1="616.0" y1="150" x2="616.0" y2="450" stroke="#6e6e6e" stroke-width="0.2"/>
<line x1="670.0" y1="150" x2="670.0" y2="450" stroke="#6e6e6e" stroke-width="0.6"/>
<line x1="664.0" y1="150" x2="664.0" y2="450" stroke="#6e6e6e" stroke-width="0.2"/>
<line x1="658.0" y1="150" x2="658.0" y2="450" stroke="#6e6e6e" stroke-width="0.2"/>
<line x1="652.0" y1="150" x2="652.0" y2="450" stroke="#6e6e6e" stroke-width="0.2"/>
<line x1="646.0" y1="150" x2="646.0" y2="450" stroke="#6e6e6e" stroke-width="0.2"/>
<line x1="700.0" y1="150" x2="700.0" y2="450" stroke="#6e6e6e" stroke-width="0.6"/>
<line x1="694.0" y1="150" x2="694.0" y2="450" stroke="#6e6e6e" stroke-width="0.2"/>
<line x1="688.0" y1="150" x2="688.0" y2="450" stroke="#6e6e6e" stroke-width="0.2"/>
<line x1="682.0" y1="150" x2="682.0" y2="450" stroke="#6e6e6e" stroke-width="0.2"/>
<line x1="676.0" y1="150" x2="676.0" y2="450" stroke="#6e6e6e" stroke-width="0.2"/>
<line x1="100" y1="420.0" x2="700" y2="420.0" stroke="#6e6e6e" stroke-width="0.6"/>
<line x1="100" y1="426.0" x2="700" y2="426.0" stroke="#6e6e6e" stroke-width="0.2"/>
<line x1="100" y1="432.0" x2="700" y2="432.0" stroke="#6e6e6e" stroke-width="0.2"/>
<line x1="100" y1="438.0" x2="700" y2="438.0" stroke="#6e6e6e" stroke-width="0.2"/>
<line x1="100" y1="444.0" x2="700" y2="444.0" stroke="#6e6e6e" stroke-width="0.2"/>
<line x1="100" y1="390.0" x2="700" y2="390.0" stroke="#6e6e6e" stroke-width="0.6"/>
<line x1="100" y1="396.0" x2="700" y2="396.0" stroke="#6e6e6e" stroke-width="0.2"/>
<line x1="100" y1="402.0" x2="700" y2="402.0" stroke="#6e6e6e" stroke-width="0.2"/>
<line x1="100" y1="408.0" x2="700" y2="408.0" stroke="#6e6e6e" stroke-width="0.2"/>
<line x1="100" y1="414.0" x2="700" y2="414.0" stroke="#6e6e6e" stroke-width="0.2"/>
<line x1="100" y1="360.0" x2="700" y2="360.0" stroke="#6e6e6e" stroke-width="0.6"/>
<line x1="100" y1="366.0" x2="700" y2="366.0" stroke="#6e6e6e" stroke-width="0.2"/>
<line x1="100" y1="372.0" x2="700" y2="372.0" stroke="#6e6e6e" stroke-width="0.2"/>
<line x1="100" y1="378.0" x2="700" y2="378.0" stroke="#6e6e6e" stroke-width="0.2"/>
<line x1="100" y1="384.0" x2="700" y2="384.0" stroke="#6e6e6e" stroke-width="0.2"/>
<line x1="100" y1="330.0" x2="700" y2="330.0" stroke="#6e6e6e" stroke-width="0.6"/>
<line x1="100" y1="336.0" x2="700" y2="336.0" stroke="#6e6e6e" stroke-width="0.2"/>
<line x1="100" y1="342.0" x2="700" y2="342.0" stroke="#6e6e6e" stroke-width="0.2"/>
<line x1="100" y1="348.0" x2="700" y2="348.0" stroke="#6e6e6e" stroke-width="0.2"/>
<line x1="100" y1="354.0" x2="700" y2="354.0" stroke="#6e6e6e" stroke-width="0.2"/>
<line x1="100" y1="300.0" x2="700" y2="300.0" stroke="#6e6e6e" stroke-width="0.6"/>
<line x1="100" y1="306.0" x2="700" y2="306.0" stroke="#6e6e6e" stroke-width="0.2"/>
<line x1="100" y1="312.0" x2="700" y2="312.0" stroke="#6e6e6e" stroke-width="0.2"/>
<line x1="100" y1="318.0" x2="700" y2="318.0" stroke="#6e6e6e" stroke-width="0.2"/>
<line x1="100" y1="324.0" x2="700" y2="324.0" stroke="#6e6e6e" stroke-width="0.2"/>
<line x1="100" y1="270.0" x2="700" y2="270.0" stroke="#6e6e6e" stroke-width="0.6"/>
<line x1="100" y1="276.0" x2="700" y2="276.0" stroke="#6e6e6e" stroke-width="0.2"/>
<line x1="100" y1="282.0" x2="700" y2="282.0" stroke="#6e6e6e" stroke-width="0.2"/>
<line x1="100" y1="288.0" x2="700" y2="288.0" stroke="#6e6e6e" stroke-width="0.2"/>
<line x1="100" y1="294.0" x2="700" y2="294.0" stroke="#6e6e6e" stroke-width="0.2"/>
<line x1="100" y1="240.0" x2="700" y2="240.0" stroke="#6e6e6e" stroke-width="0.6"/>
<line x1="100" y1="246.0" x2="700" y2="246.0" stroke="#6e6e6e" stroke-width="0.2"/>
<line x1="100" y1="252.0" x2="700" y2="252.0" stroke="#6e6e6e" stroke-width="0.2"/>
<line x1="100" y1="258.0" x2="700" y2="258.0" stroke="#6e6e6e" stroke-width="0.2"/>
<line x1="100" y1="264.0" x2="700" y2="264.0" stroke="#6e6e6e" stroke-width="0.2"/>
<line x1="100" y1="210.0" x2="700" y2="210.0" stroke="#6e6e6e" stroke-width="0.6"/>
<line x1="100" y1="216.0" x2="700" y2="216.0" stroke="#6e6e6e" stroke-width="0.2"/>
<line x1="100" y1="222.0" x2="700" y2="222.0" stroke="#6e6e6e" stroke-width="0.2"/>
<line x1="100" y1="228.0" x2="700" y2="228.0" stroke="#6e6e6e" stroke-width="0.2"/>
<line x1="100" y1="234.0" x2="700" y2="234.0" stroke="#6e6e6e" stroke-width="0.2"/>
<line x1="100" y1="180.0" x2="700" y2="180.0" stroke="#6e6e6e" stroke-width="0.6"/>
<line x1="100" y1="186.0" x2="700" y2="186.0" stroke="#6e6e6e" stroke-width="0.2"/>
<line x1="100" y1="192.0" x2="700" y2="192.0" stroke="#6e6e6e" stroke-width="0.2"/>
<line x1="100" y1="198.0" x2="700" y2="198.0" stroke="#6e6e6e" stroke-width="0.2"/>
<line x1="100" y1="204.0" x2="700" y2="204.0" stroke="#6e6e6e" stroke-width="0.2"/>
<line x1="100" y1="150.0" x2="700" y2="150.0" stroke="#6e6e6e" stroke-width="0.6"/>
<line x1="100" y1="156.0" x2="700" y2="156.0" stroke="#6e6e6e" stroke-width="0.2"/>
<line x1="100" y1="162.0" x2="700" y2="162.0" stroke="#6e6e6e" stroke-width="0.2"/>
<line x1="100" y1="168.0" x2="700" y2="168.0" stroke="#6e6e6e" stroke-width="0.2"/>
<line x1="100" y1="174.0" x2="700" y2="174.0" stroke="#6e6e6e" stroke-width="0.2"/>
<line x1="730" y1="200" x2="750" y2="200" stroke-width="2" stroke="green"/>
<line x1="730" y1="220" x2="750" y2="220" stroke-width="2" stroke="red"/>
<text x="755" y="200" alignment-baseline="middle">predicted</text>
<text x="755" y="220" alignment-baseline="middle">actual</text>
<path d="M 100.0 330.0 L 106.0 327.0 L 112.0 324.0 L 118.0 321.0 L 124.0 321.0 L 130.0 318.0 L 136.0 318.0 L 142.0 315.0 L 148.0 315.0 L 154.0 312.0 L 160.0 309.0 L 166.0 309.0 L 172.0 309.0 L 178.0 309.0 L 184.0 309.0 L 190.0 306.0 L 196.0 306.0 L 202.0 306.0 L 208.0 306.0 L 214.0 303.0 L 220.0 300.0 L 226.0 297.0 L 232.0 294.0 L 238.0 294.0 L 244.0 291.0 L 250.0 288.0 L 256.0 288.0 L 262.0 285.0 L 268.0 285.0 L 274.0 285.0 L 280.0 285.0 L 286.0 285.0 L 292.0 282.0 L 298.0 279.0 L 304.0 276.0 L 310.0 276.0 L 316.0 273.0 L 322.0 273.0 L 328.0 273.0 L 334.0 273.0 L 340.0 270.0 L 346.0 267.0 L 352.0 264.0 L 358.0 264.0 L 364.0 264.0 L 370.0 261.0 L 376.0 261.0 L 382.0 258.0 L 388.0 255.0 L 394.0 252.0 L 400.0 252.0 L 406.0 249.0 L 412.0 249.0 L 418.0 249.0 L 424.0 246.0 L 430.0 243.0 L 436.00000000000006 240.0 L 441.99999999999994 237.0 L 448.0 237.0 L 454.0 237.0 L 460.0 234.0 L 466.0 234.0 L 472.0 234.0 L 478.0 234.0 L 484.0 234.0 L 490.0 234.0 L 496.0 231.0 L 502.0 231.0 L 508.00000000000006 228.0 L 514.0 225.0 L 520.0 222.0 L 526.0 219.0 L 532.0 219.0 L 538.0 219.0 L 544.0 216.0 L 550.0 213.0 L 556.0 213.0 L 562.0 210.0 L 568.0 207.0 L 574.0 207.0 L 580.0 204.0 L 586.0 204.0 L 592.0 201.0 L 598.0 201.0 L 604.0 201.0 L 610.0 198.0 L 616.0 198.0 L 622.0 198.0 L 628.0 195.0 L 634.0 195.0 L 640.0 195.0 L 646.0 192.0 L 652.0 189.0 L 658.0 189.0 L 664.0 189.0 L 670.0 186.0 L 676.0 183.0 L 682.0 183.0 L 688.0 183.0 L 694.0 183.0" fill="none" stroke-width="2" stroke="green"/>
<path d="M 100.0 300.0 L 106.0 297.0 L 112.0 294.0 L 118.0 291.0 L 124.0 291.0 L 130.0 288.0 L 136.0 288.0 L 142.0 285.0 L 148.0 285.0 L 154.0 282.0 L 160.0 279.0 L 166.0 279.0 L 172.0 279.0 L 178.0 279.0 L 184.0 279.0 L 190.0 276.0 L 196.0 276.0 L 202.0 276.0 L 208.0 276.0 L 214.0 273.0 L 220.0 270.0 L 226.0 267.0 L 232.0 264.0 L 238.0 264.0 L 244.0 261.0 L 250.0 258.0 L 256.0 258.0 L 262.0 255.0 L 268.0 255.0 L 274.0 255.0 L 280.0 255.0 L 286.0 255.0 L 292.0 252.0 L 298.0 249.0 L 304.0 246.0 L 310.0 246.0 L 316.0 243.0 L 322.0 243.0 L 328.0 243.0 L 334.0 243.0 L 340.0 240.0 L 346.0 237.0 L 352.0 234.0 L 358.0 234.0 L 364.0 234.0 L 370.0 231.0 L 376.0 231.0 L 382.0 228.0 L 388.0 225.0 L 394.0 222.0 L 400.0 222.0 L 406.0 219.0 L 412.0 219.0 L 418.0 219.0 L 424.0 216.0 L 430.0 213.0 L 436.00000000000006 210.0 L 441.99999999999994 207.0 L 448.0 207.0 L 454.0 207.0 L 460.0 204.0 L 466.0 204.0 L 472.0 204.0 L 478.0 204.0 L 484.0 204.0 L 490.0 204.0 L 496.0 201.0 L 502.0 201.0 L 508.00000000000006 198.0 L 514.0 195.0 L 520.0 192.0 L 526.0 189.0 L 532.0 189.0 L 538.0 189.0 L 544.0 186.0 L 550.0 183.0 L 556.0 183.0 L 562.0 180.0 L 568.0 177.0 L 574.0 177.0 L 580.0 174.0 L 586.0 174.0 L 592.0 171.0 L 598.0 171.0 L 604.0 171.0 L 610.0 168.0 L 616.0 168.0 L 622.0 168.0 L 628.0 165.0 L 634.0 165.0 L 640.0 165.0 L 646.0 162.0 L 652.0 159.0 L 658.0 159.0 L 664.0 159.0 L 670.0 156.0 L 676.0 153.0 L 682.0 153.0 L 688.0 153.0 L 694.0 153.0" fill="none" stroke-width="2" stroke="red"/>
</svg>