<svg viewBox="0 0 900 600" xmlns="http://www.w3.org/2000/svg">
<line x1="100" y1="500" x2="700" y2="500" stroke="#2e2e2c"/>
<line x1="175.0" y1="500" x2="175.0" y2="505" stroke="#2e2e2c"/>
<line x1="325.0" y1="500" x2="325.0" y2="505" stroke="#2e2e2c"/>
<line x1="475.0" y1="500" x2="475.0" y2="505" stroke="#2e2e2c"/>
<line x1="625.0" y1="500" x2="625.0" y2="505" stroke="#2e2e2c"/>
<text x="175.0" y="510" text-anchor="middle" dominant-baseline="hanging">Apples</text>
<text x="325.0" y="510" text-anchor="middle" dominant-baseline="hanging">Bananas</text>
<text x="475.0" y="510" text-anchor="middle" dominant-baseline="hanging">Cherries</text>
<text x="625.0" y="510" text-anchor="middle" dominant-baseline="hanging">Durians</text>
<line x1="100" y1="100" x2="100" y2="500" stroke="#2e2e2c"/>
<line x1="95" y1="500.0" x2="100" y2="500.0" stroke="#2e2e2c"/>
<line x1="95" y1="460.0" x2="100" y2="460.0" stroke="#2e2e2c"/>
<line x1="95" y1="420.0" x2="100" y2="420.0" stroke="#2e2e2c"/>
<line x1="95" y1="380.0" x2="100" y2="380.0" stroke="#2e2e2c"/>
<line x1="95" y1="340.0" x2="100" y2="340.0" stroke="#2e2e2c"/>
<line x1="95" y1="300.0" x2="100" y2="300.0" stroke="#2e2e2c"/>
<line x1="95" y1="260.0" x2="100" y2="260.0" stroke="#2e2e2c"/>
<line x1="95" y1="220.0" x2="100" y2="220.0" stroke="#2e2e2c"/>
<line x1="95" y1="180.0" x2="100" y2="180.0" stroke="#2e2e2c"/>
<line x1="95" y1="140.0" x2="100" y2="140.0" stroke="#2e2e2c"/>
<line x1="95" y1="100.0" x2="100" y2="100.0" stroke="#2e2e2c"/>
<text x="90" y="500.0" text-anchor="end" dominant-baseline="middle">0%</text>
<text x="90" y="460.0" text-anchor="end" dominant-baseline="middle">10%</text>
<text x="90" y="420.0" text-anchor="end" dominant-baseline="middle">20%</text>
<text x="90" y="380.0" text-anchor="end" dominant-baseline="middle">30%</text>
<text x="90" y="340.0" text-anchor="end" dominant-baseline="middle">40%</text>
<text x="90" y="300.0" text-anchor="end" dominant-baseline="middle">50%</text>
<text x="90" y="260.0" text-anchor="end" dominant-baseline="middle">60%</text>
<text x="90" y="220.0" text-anchor="end" dominant-baseline="middle">70%</text>
<text x="90" y="180.0" text-anchor="end" dominant-baseline="middle">80%</text>
<text x="90" y="140.0" text-anchor="end" dominant-baseline="middle">90%</text>
<text x="90" y="100.0" text-anchor="end" dominant-baseline="middle">100%</text>
<rect x="730" y="197.5" width="30" height="5" stroke="none" fill="green"/>
<rect x="730" y="217.5" width="30" height="5" stroke="none" fill="red"/>
<text x="765" y="200" alignment-baseline="middle">Monday</text>
<text x="765" y="220" alignment-baseline="middle">Tuesday</text>
<rect x="155.0" y="400.0" width="40" height="100.0" stroke="none" fill="green"/>
<rect x="305.0" y="233.33333333333334" width="40" height="266.66666666666663" stroke="none" fill="green"/>
<rect x="455.0" y="200.0" width="40" height="300.0" stroke="none" fill="green"/>
<rect x="605.0" y="233.33333333333334" width="40" height="266.66666666666663" stroke="none" fill="green"/>
<rect x="155.0" y="100.0" width="40" height="300.0" stroke="none" fill="red"/>
<rect x="305.0" y="100.0" width="40" height="133.33333333333334" stroke="none" fill="red"/>
<rect x="455.0" y="100.0" width="40" height="100.0" stroke="none" fill="red"/>
<rect x="605.0" y="100.0" width="40" height="133.33333333333334" stroke="none" fill="red"/>
</svg>