<svg viewBox="0 0 800 600" xmlns="http://www.w3.org/2000/svg">
<line x1="100" y1="500" x2="700" y2="500" stroke="#2e2e2c"/>
<line x1="100.0" y1="500" x2="100.0" y2="505" stroke="#2e2e2c"/>
<line x1="160.0" y1="500" x2="160.0" y2="505" stroke="#2e2e2c"/>
<line x1="220.0" y1="500" x2="220.0" y2="505" stroke="#2e2e2c"/>
<line x1="280.0" y1="500" x2="280.0" y2="505" stroke="#2e2e2c"/>
<line x1="340.0" y1="500" x2="340.0" y2="505" stroke="#2e2e2c"/>
<line x1="400.0" y1="500" x2="400.0" y2="505" stroke="#2e2e2c"/>
<line x1="460.0" y1="500" x2="460.0" y2="505" stroke="#2e2e2c"/>
<line x1="520.0" y1="500" x2="520.0" y2="505" stroke="#2e2e2c"/>
<line x1="580.0" y1="500" x2="580.0" y2="505" stroke="#2e2e2c"/>
<line x1="640.0" y1="500" x2="640.0" y2="505" stroke="#2e2e2c"/>
<line x1="700.0" y1="500" x2="700.0" y2="505" stroke="#2e2e2c"/>
<text x="100.0" y="510" text-anchor="middle" dominant-baseline="hanging">0.0</text>
<text x="160.0" y="510" text-anchor="middle" dominant-baseline="hanging">0.1</text>
<text x="220.0" y="510" text-anchor="middle" dominant-baseline="hanging">0.2</text>
<text x="280.0" y="510" text-anchor="middle" dominant-baseline="hanging">0.3</text>
<text x="340.0" y="510" text-anchor="middle" dominant-baseline="hanging">0.4</text>
<text x="400.0" y="510" text-anchor="middle" dominant-baseline="hanging">0.5</text>
<text x="460.0" y="510" text-anchor="middle" dominant-baseline="hanging">0.6</text>
<text x="520.0" y="510" text-anchor="middle" dominant-baseline="hanging">0.7</text>
<text x="580.0" y="510" text-anchor="middle" dominant-baseline="hanging">0.8</text>
<text x="640.0" y="510" text-anchor="middle" dominant-baseline="hanging">0.9</text>
<text x="700.0" y="510" text-anchor="middle" dominant-baseline="hanging">1.0</text>
<line x1="100" y1="100" x2="100" y2="500" stroke="#2e2e2c"/>
<line x1="95" y1="500.0" x2="100" y2="500.0" stroke="#2e2e2c"/>
<line x1="95" y1="460.0" x2="100" y2="460.0" stroke="#2e2e2c"/>
<line x1="95" y1="420.0" x2="100" y2="420.0" stroke="#2e2e2c"/>
<line x1="95" y1="380.0" x2="100" y2="380.0" stroke="#2e2e2c"/>
<line x1="95" y1="340.0" x2="100" y2="340.0" stroke="#2e2e2c"/>
<line x1="95" y1="300.0" x2="100" y2="300.0" stroke="#2e2e2c"/>
<line x1="95" y1="260.0" x2="100" y2="260.0" stroke="#2e2e2c"/>
<line x1="95" y1="220.0" x2="100" y2="220.0" stroke="#2e2e2c"/>
<line x1="95" y1="180.0" x2="100" y2="180.0" stroke="#2e2e2c"/>
<line x1="95" y1="140.0" x2="100" y2="140.0" stroke="#2e2e2c"/>
<line x1="95" y1="100.0" x2="100" y2="100.0" stroke="#2e2e2c"/>
<text x="90" y="500.0" text-anchor="end" dominant-baseline="middle">0.0</text>
<text x="90" y="460.0" text-anchor="end" dominant-baseline="middle">0.1</text>
<text x="90" y="420.0" text-anchor="end" dominant-baseline="middle">0.2</text>
<text x="90" y="380.0" text-anchor="end" dominant-baseline="middle">0.3</text>
<text x="90" y="340.0" text-anchor="end" dominant-baseline="middle">0.4</text>
<text x="90" y="300.0" text-anchor="end" dominant-baseline="middle">0.5</text>
<text x="90" y="260.0" text-anchor="end" dominant-baseline="middle">0.6</text>
<text x="90" y="220.0" text-anchor="end" dominant-baseline="middle">0.7</text>
<text x="90" y="180.0" text-anchor="end" dominant-baseline="middle">0.8</text>
<text x="90" y="140.0" text-anchor="end" dominant-baseline="middle">0.9</text>
<text x="90" y="100.0" text-anchor="end" dominant-baseline="middle">1.0</text>
<circle cx="730" cy="200" r="3" fill="green"/>
<circle cx="730" cy="220" r="3" fill="red"/>
<text x="735" y="200" alignment-baseline="middle">A</text>
<text x="735" y="220" alignment-baseline="middle">B</text>
<circle cx="123.84499737343864" cy="263.01353550109087" r="3" fill="green"/>
<circle cx="149.1900432969253" cy="477.8176980368809" r="3" fill="green"/>
<circle cx="494.42389868351347" cy="327.7193894538726" r="3" fill="green"/>
<circle cx="439.13615430645365" cy="395.54326414223266" r="3" fill="green"/>
<circle cx="289.8219075860363" cy="187.69219141071866" r="3" fill="green"/>
<circle cx="256.4594173621797" cy="423.46516317087594" r="3" fill="green"/>
<circle cx="501.83558486189753" cy="295.9189397065823" r="3" fill="green"/>
<circle cx="288.51031767734565" cy="264.7110513717335" r="3" fill="green"/>
<circle cx="259.3687075188123" cy="311.07233635930857" r="3" fill="green"/>
<circle cx="178.52696927647386" cy="452.9699195796914" r="3" fill="green"/>
<circle cx="487.3004733025897" cy="157.92564240642312" r="3" fill="green"/>
<circle cx="374.3347435422712" cy="251.64755663990036" r="3" fill="green"/>
<circle cx="657.4109990233085" cy="346.78260026135285" r="3" fill="green"/>
<circle cx="661.440572466894" cy="377.6240068495886" r="3" fill="green"/>
<circle cx="105.58927413054784" cy="395.50166951047675" r="3" fill="green"/>
<circle cx="472.6955532958557" cy="270.7538622522295" r="3" fill="green"/>
<circle cx="437.7961873833676" cy="312.1004829167104" r="3" fill="green"/>
<circle cx="159.98874935475308" cy="476.29016984176917" r="3" fill="green"/>
<circle cx="422.5806424609764" cy="333.38144721617306" r="3" fill="green"/>
<circle cx="403.53081642925923" cy="178.02919376836502" r="3" fill="green"/>
<circle cx="179.47394221988037" cy="211.89025735119102" r="3" fill="green"/>
<circle cx="309.4053009787091" cy="446.94837393311707" r="3" fill="green"/>
<circle cx="141.27478843601156" cy="391.5584572826784" r="3" fill="green"/>
<circle cx="246.57064990487882" cy="279.7071972920628" r="3" fill="green"/>
<circle cx="270.99243472999405" cy="279.0601580760492" r="3" fill="green"/>
<circle cx="362.9107438046259" cy="348.3878335469817" r="3" fill="green"/>
<circle cx="425.9307773569521" cy="278.0464591683261" r="3" fill="green"/>
<circle cx="281.51028578733394" cy="218.7783802510277" r="3" fill="green"/>
<circle cx="690.3119861508893" cy="109.2632364313812" r="3" fill="green"/>
<circle cx="584.2599659590853" cy="193.29427568799193" r="3" fill="green"/>
<circle cx="417.364415561362" cy="177.31324656825177" r="3" fill="green"/>
<circle cx="500.71792222755016" cy="353.56996253026955" r="3" fill="green"/>
<circle cx="432.7613694938067" cy="387.9472313131159" r="3" fill="green"/>
<circle cx="659.0536236616465" cy="164.22090689373965" r="3" fill="green"/>
<circle cx="162.1519011509269" cy="437.9949560801079" r="3" fill="green"/>
<circle cx="626.8761789841552" cy="279.1823293041057" r="3" fill="green"/>
<circle cx="258.6795528922766" cy="418.04310366444673" r="3" fill="green"/>
<circle cx="633.8276242034254" cy="134.37803249168218" r="3" fill="green"/>
<circle cx="545.4500103885991" cy="191.84177900094332" r="3" fill="green"/>
<circle cx="193.2687458649943" cy="366.06656419256615" r="3" fill="green"/>
<circle cx="269.05376287473655" cy="278.6152512243576" r="3" fill="green"/>
<circle cx="226.37779288416584" cy="268.90833055136153" r="3" fill="green"/>
<circle cx="305.7281726759552" cy="389.36753795193675" r="3" fill="green"/>
<circle cx="512.4982772807983" cy="372.9249485092356" r="3" fill="green"/>
<circle cx="611.7476892351384" cy="201.29256947379682" r="3" fill="green"/>
<circle cx="403.2454348587923" cy="332.2392307010999" r="3" fill="green"/>
<circle cx="250.67275124193645" cy="459.0225596051925" r="3" fill="green"/>
<circle cx="644.8954277311432" cy="259.2277085496941" r="3" fill="green"/>
<circle cx="130.4793361975184" cy="438.0237403532858" r="3" fill="green"/>
<circle cx="480.5706683855165" cy="166.71933397863808" r="3" fill="green"/>
<circle cx="123.84499737343864" cy="422.11998265300343" r="3" fill="red"/>
<circle cx="149.1900432969253" cy="319.4960427067125" r="3" fill="red"/>
<circle cx="494.42389868351347" cy="194.26075993289385" r="3" fill="red"/>
<circle cx="439.13615430645365" cy="342.3699057900203" r="3" fill="red"/>
<circle cx="289.8219075860363" cy="304.7193942549287" r="3" fill="red"/>
<circle cx="256.4594173621797" cy="368.1536651663167" r="3" fill="red"/>
<circle cx="501.83558486189753" cy="310.3341928414334" r="3" fill="red"/>
<circle cx="288.51031767734565" cy="423.27907650832077" r="3" fill="red"/>
<circle cx="259.3687075188123" cy="292.211770005657" r="3" fill="red"/>
<circle cx="178.52696927647386" cy="403.5951177579583" r="3" fill="red"/>
<circle cx="487.3004733025897" cy="269.01870712686264" r="3" fill="red"/>
<circle cx="374.3347435422712" cy="272.6514618138568" r="3" fill="red"/>
<circle cx="657.4109990233085" cy="145.464101004481" r="3" fill="red"/>
<circle cx="661.440572466894" cy="246.6231688681539" r="3" fill="red"/>
<circle cx="105.58927413054784" cy="492.61680159922355" r="3" fill="red"/>
<circle cx="472.6955532958557" cy="200.3604665862694" r="3" fill="red"/>
<circle cx="437.7961873833676" cy="335.15823159416874" r="3" fill="red"/>
<circle cx="159.98874935475308" cy="363.88580346734074" r="3" fill="red"/>
<circle cx="422.5806424609764" cy="195.76300460305714" r="3" fill="red"/>
<circle cx="403.53081642925923" cy="391.1716217195944" r="3" fill="red"/>
<circle cx="179.47394221988037" cy="354.19443492915764" r="3" fill="red"/>
<circle cx="309.4053009787091" cy="361.06081067113695" r="3" fill="red"/>
<circle cx="141.27478843601156" cy="328.9561015472598" r="3" fill="red"/>
<circle cx="246.57064990487882" cy="363.86433992425214" r="3" fill="red"/>
<circle cx="270.99243472999405" cy="246.15535189335068" r="3" fill="red"/>
<circle cx="362.9107438046259" cy="389.2339285925919" r="3" fill="red"/>
<circle cx="425.9307773569521" cy="211.45546096544274" r="3" fill="red"/>
<circle cx="281.51028578733394" cy="401.48081650376287" r="3" fill="red"/>
<circle cx="690.3119861508893" cy="294.35203120705734" r="3" fill="red"/>
<circle cx="584.2599659590853" cy="251.36850825597708" r="3" fill="red"/>
<circle cx="417.364415561362" cy="290.2277917662289" r="3" fill="red"/>
<circle cx="500.71792222755016" cy="205.1251853174625" r="3" fill="red"/>
<circle cx="432.7613694938067" cy="251.7081141191591" r="3" fill="red"/>
<circle cx="659.0536236616465" cy="125.59616803327387" r="3" fill="red"/>
<circle cx="162.1519011509269" cy="331.87516091829764" r="3" fill="red"/>
<circle cx="626.8761789841552" cy="284.9675811849347" r="3" fill="red"/>
<circle cx="258.6795528922766" cy="360.8473357775771" r="3" fill="red"/>
<circle cx="633.8276242034254" cy="132.2825614045953" r="3" fill="red"/>
<circle cx="545.4500103885991" cy="167.3624919601922" r="3" fill="red"/>
<circle cx="193.2687458649943" cy="344.27933605572014" r="3" fill="red"/>
<circle cx="269.05376287473655" cy="310.9712504553123" r="3" fill="red"/>
<circle cx="226.37779288416584" cy="432.94900590573786" r="3" fill="red"/>
<circle cx="305.7281726759552" cy="251.41457542193" r="3" fill="red"/>
<circle cx="512.4982772807983" cy="261.07607343268006" r="3" fill="red"/>
<circle cx="611.7476892351384" cy="196.03885610047456" r="3" fill="red"/>
<circle cx="403.2454348587923" cy="333.6816074089226" r="3" fill="red"/>
<circle cx="250.67275124193645" cy="310.3340667471414" r="3" fill="red"/>
<circle cx="644.8954277311432" cy="207.4856952229269" r="3" fill="red"/>
<circle cx="130.4793361975184" cy="451.47220266946437" r="3" fill="red"/>
<circle cx="480.5706683855165" cy="240.1572236956069" r="3" fill="red"/>
</svg>