<svg viewBox="0 0 800 600" xmlns="http://www.w3.org/2000/svg">
<line x1="100" y1="500" x2="700" y2="500" stroke="#2e2e2c"/>
<line x1="100.0" y1="500" x2="100.0" y2="505" stroke="#2e2e2c"/>
<line x1="160.0" y1="500" x2="160.0" y2="505" stroke="#2e2e2c"/>
<line x1="220.0" y1="500" x2="220.0" y2="505" stroke="#2e2e2c"/>
<line x1="280.0" y1="500" x2="280.0" y2="505" stroke="#2e2e2c"/>
<line x1="340.0" y1="500" x2="340.0" y2="505" stroke="#2e2e2c"/>
<line x1="400.0" y1="500" x2="400.0" y2="505" stroke="#2e2e2c"/>
<line x1="460.0" y1="500" x2="460.0" y2="505" stroke="#2e2e2c"/>
<line x1="520.0" y1="500" x2="520.0" y2="505" stroke="#2e2e2c"/>
<line x1="580.0" y1="500" x2="580.0" y2="505" stroke="#2e2e2c"/>
<line x1="640.0" y1="500" x2="640.0" y2="505" stroke="#2e2e2c"/>
<line x1="700.0" y1="500" x2="700.0" y2="505" stroke="#2e2e2c"/>
<text x="100.0" y="510" text-anchor="middle" dominant-baseline="hanging">0.0</text>
<text x="160.0" y="510" text-anchor="middle" dominant-baseline="hanging">0.1</text>
<text x="220.0" y="510" text-anchor="middle" dominant-baseline="hanging">0.2</text>
<text x="280.0" y="510" text-anchor="middle" dominant-baseline="hanging">0.3</text>
<text x="340.0" y="510" text-anchor="middle" dominant-baseline="hanging">0.4</text>
<text x="400.0" y="510" text-anchor="middle" dominant-baseline="hanging">0.5</text>
<text x="460.0" y="510" text-anchor="middle" dominant-baseline="hanging">0.6</text>
<text x="520.0" y="510" text-anchor="middle" dominant-baseline="hanging">0.7</text>
<text x="580.0" y="510" text-anchor="middle" dominant-baseline="hanging">0.8</text>
<text x="640.0" y="510" text-anchor="middle" dominant-baseline="hanging">0.9</text>
<text x="700.0" y="510" text-anchor="middle" dominant-baseline="hanging">1.0</text>
<line x1="100" y1="100" x2="100" y2="500" stroke="#2e2e2c"/>
<line x1="95" y1="500.0" x2="100" y2="500.0" stroke="#2e2e2c"/>
<line x1="95" y1="460.0" x2="100" y2="460.0" stroke="#2e2e2c"/>
<line x1="95" y1="420.0" x2="100" y2="420.0" stroke="#2e2e2c"/>
<line x1="95" y1="380.0" x2="100" y2="380.0" stroke="#2e2e2c"/>
<line x1="95" y1="340.0" x2="100" y2="340.0" stroke="#2e2e2c"/>
<line x1="95" y1="300.0" x2="100" y2="300.0" stroke="#2e2e2c"/>
<line x1="95" y1="260.0" x2="100" y2="260.0" stroke="#2e2e2c"/>
<line x1="95" y1="220.0" x2="100" y2="220.0" stroke="#2e2e2c"/>
<line x1="95" y1="180.0" x2="100" y2="180.0" stroke="#2e2e2c"/>
<line x1="95" y1="140.0" x2="100" y2="140.0" stroke="#2e2e2c"/>
<line x1="95" y1="100.0" x2="100" y2="100.0" stroke="#2e2e2c"/>
<text x="90" y="500.0" text-anchor="end" dominant-baseline="middle">0.0</text>
<text x="90" y="460.0" text-anchor="end" dominant-baseline="middle">0.1</text>
<text x="90" y="420.0" text-anchor="end" dominant-baseline="middle">0.2</text>
<text x="90" y="380.0" text-anchor="end" dominant-baseline="middle">0.3</text>
<text x="90" y="340.0" text-anchor="end" dominant-baseline="middle">0.4</text>
<text x="90" y="300.0" text-anchor="end" dominant-baseline="middle">0.5</text>
<text x="90" y="260.0" text-anchor="end" dominant-baseline="middle">0.6</text>
<text x="90" y="220.0" text-anchor="end" dominant-baseline="middle">0.7</text>
<text x="90" y="180.0" text-anchor="end" dominant-baseline="middle">0.8</text>
<text x="90" y="140.0" text-anchor="end" dominant-baseline="middle">0.9</text>
<text x="90" y="100.0" text-anchor="end" dominant-baseline="middle">1.0</text>
<circle cx="730" cy="200" r="3" fill="green"/>
<circle cx="730" cy="220" r="3" fill="red"/>
<text x="735" y="200" alignment-baseline="middle">A</text>
<text x="735" y="220" alignment-baseline="middle">B</text>
<circle cx="413.6696293191753" cy="258.8743284917786" r="3" fill="green"/>
<circle cx="660.8237546418563" cy="314.4877755900112" r="3" fill="green"/>
<circle cx="222.55551965412184" cy="267.944241731755" r="3" fill="green"/>
<circle cx="529.7150804736489" cy="259.5864659898807" r="3" fill="green"/>
<circle cx="243.2115715695076" cy="351.6053483715083" r="3" fill="green"/>
<circle cx="337.4715080747527" cy="449.7981824947143" r="3" fill="green"/>
<circle cx="503.01413377598277" cy="398.3288924241487" r="3" fill="green"/>
<circle cx="279.9982478792573" cy="216.73056030010855" r="3" fill="green"/>
<circle cx="289.70631776311245" cy="208.95873641060746" r="3" fill="green"/>
<circle cx="551.1186954486413" cy="257.0109799327255" r="3" fill="green"/>
<circle cx="143.5258686958944" cy="257.6082206927365" r="3" fill="green"/>
<circle cx="374.97131357115165" cy="281.90305866862735" r="3" fill="green"/>
<circle cx="699.0726645126654" cy="338.71920713857173" r="3" fill="green"/>
<circle cx="697.6578687130567" cy="344.78368085838986" r="3" fill="green"/>
<circle cx="143.9564326597798" cy="404.89637548760663" r="3" fill="green"/>
<circle cx="227.89258736022424" cy="222.70666568003003" r="3" fill="green"/>
<circle cx="259.12024885024084" cy="245.26170486130016" r="3" fill="green"/>
<circle cx="659.9556267962255" cy="147.01215168050217" r="3" fill="green"/>
<circle cx="628.5185042118637" cy="142.5974009302144" r="3" fill="green"/>
<circle cx="627.5621454907257" cy="335.6661401667237" r="3" fill="green"/>
<circle cx="321.71625324333036" cy="385.7884223689151" r="3" fill="green"/>
<circle cx="194.64809941433919" cy="452.2881660490322" r="3" fill="green"/>
<circle cx="600.2469727838842" cy="181.51805771921926" r="3" fill="green"/>
<circle cx="522.1239550524226" cy="168.01749258323298" r="3" fill="green"/>
<circle cx="467.00665943557004" cy="312.8129989598933" r="3" fill="green"/>
<circle cx="692.3398381789026" cy="207.74680952201993" r="3" fill="green"/>
<circle cx="492.3857906264396" cy="378.2479071416948" r="3" fill="green"/>
<circle cx="104.69386429129477" cy="238.69454274751223" r="3" fill="green"/>
<circle cx="590.262481069277" cy="159.8579088445547" r="3" fill="green"/>
<circle cx="279.6272513199867" cy="190.73686051533303" r="3" fill="green"/>
<circle cx="498.03322897964637" cy="193.3772726207596" r="3" fill="green"/>
<circle cx="663.3580023562623" cy="140.53186222301673" r="3" fill="green"/>
<circle cx="180.57466863602065" cy="476.94488494130303" r="3" fill="green"/>
<circle cx="169.2572022514613" cy="279.91050745828477" r="3" fill="green"/>
<circle cx="164.2215866256506" cy="394.14375164986984" r="3" fill="green"/>
<circle cx="431.9341845308895" cy="172.984715000291" r="3" fill="green"/>
<circle cx="263.40892738888977" cy="242.69237561982317" r="3" fill="green"/>
<circle cx="462.89789621813435" cy="185.4824928112949" r="3" fill="green"/>
<circle cx="530.5673122832787" cy="186.87672890251537" r="3" fill="green"/>
<circle cx="222.15838739647177" cy="400.8627238342535" r="3" fill="green"/>
<circle cx="480.54277533104784" cy="203.42658237585852" r="3" fill="green"/>
<circle cx="258.39034097824566" cy="438.0551564115229" r="3" fill="green"/>
<circle cx="393.11911128962595" cy="197.1694785283697" r="3" fill="green"/>
<circle cx="643.2018946475939" cy="150.95351069590237" r="3" fill="green"/>
<circle cx="607.6622279769133" cy="336.1861134918313" r="3" fill="green"/>
<circle cx="155.37908062764006" cy="260.2799343073319" r="3" fill="green"/>
<circle cx="354.14546353823584" cy="320.28600158224907" r="3" fill="green"/>
<circle cx="266.00813438335103" cy="381.34493026852164" r="3" fill="green"/>
<circle cx="102.12741345266937" cy="276.8777775466648" r="3" fill="green"/>
<circle cx="562.6715338117763" cy="343.7389567634691" r="3" fill="green"/>
<circle cx="413.6696293191753" cy="390.71056995331793" r="3" fill="red"/>
<circle cx="660.8237546418563" cy="274.43279078717285" r="3" fill="red"/>
<circle cx="222.55551965412184" cy="393.49576987575136" r="3" fill="red"/>
<circle cx="529.7150804736489" cy="183.8910514360598" r="3" fill="red"/>
<circle cx="243.2115715695076" cy="258.88498866715855" r="3" fill="red"/>
<circle cx="337.4715080747527" cy="365.0178320973748" r="3" fill="red"/>
<circle cx="503.01413377598277" cy="237.36560768648022" r="3" fill="red"/>
<circle cx="279.9982478792573" cy="360.0649071682354" r="3" fill="red"/>
<circle cx="289.70631776311245" cy="240.53462330597716" r="3" fill="red"/>
<circle cx="551.1186954486413" cy="242.3839550213752" r="3" fill="red"/>
<circle cx="143.5258686958944" cy="297.6439490364254" r="3" fill="red"/>
<circle cx="374.97131357115165" cy="385.2745451059973" r="3" fill="red"/>
<circle cx="699.0726645126654" cy="106.22898962466594" r="3" fill="red"/>
<circle cx="697.6578687130567" cy="265.06714719448837" r="3" fill="red"/>
<circle cx="143.9564326597798" cy="292.84099262776226" r="3" fill="red"/>
<circle cx="227.89258736022424" cy="404.2758650419982" r="3" fill="red"/>
<circle cx="259.12024885024084" cy="425.2794076069775" r="3" fill="red"/>
<circle cx="659.9556267962255" cy="226.4353726883293" r="3" fill="red"/>
<circle cx="628.5185042118637" cy="178.11815313217122" r="3" fill="red"/>
<circle cx="627.5621454907257" cy="261.41048866409324" r="3" fill="red"/>
<circle cx="321.71625324333036" cy="304.8528115909946" r="3" fill="red"/>
<circle cx="194.64809941433919" cy="366.166021594658" r="3" fill="red"/>
<circle cx="600.2469727838842" cy="256.2119224030931" r="3" fill="red"/>
<circle cx="522.1239550524226" cy="243.9744062832059" r="3" fill="red"/>
<circle cx="467.00665943557004" cy="326.7199456270936" r="3" fill="red"/>
<circle cx="692.3398381789026" cy="160.79633050686502" r="3" fill="red"/>
<circle cx="492.3857906264396" cy="368.8664808141276" r="3" fill="red"/>
<circle cx="104.69386429129477" cy="313.3203454697519" r="3" fill="red"/>
<circle cx="590.262481069277" cy="228.88877355834927" r="3" fill="red"/>
<circle cx="279.6272513199867" cy="296.23824973103535" r="3" fill="red"/>
<circle cx="498.03322897964637" cy="218.93224143888924" r="3" fill="red"/>
<circle cx="663.3580023562623" cy="178.08829832797932" r="3" fill="red"/>
<circle cx="180.57466863602065" cy="400.29748276507365" r="3" fill="red"/>
<circle cx="169.2572022514613" cy="462.91950369091757" r="3" fill="red"/>
<circle cx="164.2215866256506" cy="345.74526747586197" r="3" fill="red"/>
<circle cx="431.9341845308895" cy="323.3152646145175" r="3" fill="red"/>
<circle cx="263.40892738888977" cy="382.7472285253648" r="3" fill="red"/>
<circle cx="462.89789621813435" cy="209.4309786926881" r="3" fill="red"/>
<circle cx="530.5673122832787" cy="212.5267099694504" r="3" fill="red"/>
<circle cx="222.15838739647177" cy="399.21608389225656" r="3" fill="red"/>
<circle cx="480.54277533104784" cy="311.29547578125334" r="3" fill="red"/>
<circle cx="258.39034097824566" cy="365.52463795007475" r="3" fill="red"/>
<circle cx="393.11911128962595" cy="321.8135521585798" r="3" fill="red"/>
<circle cx="643.2018946475939" cy="259.80166127894597" r="3" fill="red"/>
<circle cx="607.6622279769133" cy="305.3216975291983" r="3" fill="red"/>
<circle cx="155.37908062764006" cy="397.45103970287164" r="3" fill="red"/>
<circle cx="354.14546353823584" cy="227.21211134121813" r="3" fill="red"/>
<circle cx="266.00813438335103" cy="309.2003661510031" r="3" fill="red"/>
<circle cx="102.12741345266937" cy="318.72975303592705" r="3" fill="red"/>
<circle cx="562.6715338117763" cy="222.6731722057985" r="3" fill="red"/>
</svg>