<svg viewBox="0 0 800 600" xmlns="http://www.w3.org/2000/svg">
<line x1="100" y1="500" x2="700" y2="500" stroke="#2e2e2c"/>
<line x1="100.0" y1="500" x2="100.0" y2="505" stroke="#2e2e2c"/>
<line x1="300.0" y1="500" x2="300.0" y2="505" stroke="#2e2e2c"/>
<line x1="500.0" y1="500" x2="500.0" y2="505" stroke="#2e2e2c"/>
<line x1="700.0" y1="500" x2="700.0" y2="505" stroke="#2e2e2c"/>
<text x="100.0" y="510" text-anchor="middle" dominant-baseline="hanging">0.001</text>
<text x="300.0" y="510" text-anchor="middle" dominant-baseline="hanging">0.01</text>
<text x="500.0" y="510" text-anchor="middle" dominant-baseline="hanging">0.1</text>
<text x="700.0" y="510" text-anchor="middle" dominant-baseline="hanging">1</text>
<line x1="100" y1="100" x2="100" y2="500" stroke="#2e2e2c"/>
<line x1="95" y1="500.0" x2="100" y2="500.0" stroke="#2e2e2c"/>
<line x1="95" y1="300.0" x2="100" y2="300.0" stroke="#2e2e2c"/>
<line x1="95" y1="100.0" x2="100" y2="100.0" stroke="#2e2e2c"/>
<text x="90" y="500.0" text-anchor="end" dominant-baseline="middle">0.01</text>
<text x="90" y="300.0" text-anchor="end" dominant-baseline="middle">0.1</text>
<text x="90" y="100.0" text-anchor="end" dominant-baseline="middle">1</text>
<circle cx="730" cy="200" r="3" fill="green"/>
<circle cx="730" cy="220" r="3" fill="red"/>
<text x="735" y="200" alignment-baseline="middle">A</text>
<text x="735" y="220" alignment-baseline="middle">B</text>
<circle cx="643.6642440628092" cy="143.96330824248554" r="3" fill="green"/>
<circle cx="694.1350300488676" cy="166.73749168143928" r="3" fill="green"/>
<circle cx="562.036325078989" cy="147.29352835746448" r="3" fill="green"/>
<circle cx="671.0058689502854" cy="144.22021576545316" r="3" fill="green"/>
<circle cx="575.5653720452201" cy="186.1283485488113" r="3" fill="green"/>
<circle cx="619.492051975915" cy="280.26811014245413" r="3" fill="green"/>
<circle cx="665.4338053615587" cy="218.97248733315456" r="3" fill="green"/>
<circle cx="595.4234054549618" cy="129.9720535596028" r="3" fill="green"/>
<circle cx="599.9861087989157" cy="127.62108481292213" r="3" fill="green"/>
<circle cx="675.2279150599213" cy="143.29466834587265" r="3" fill="green"/>
<circle cx="472.11923944148305" cy="143.50842092749664" r="3" fill="green"/>
<circle cx="632.2272275928934" cy="152.68208328118806" r="3" fill="green"/>
<circle cx="699.8656505890808" cy="178.89546831040204" r="3" fill="green"/>
<circle cx="699.6602782757706" cy="182.22452222579193" r="3" fill="green"/>
<circle cx="472.9742378153374" cy="224.77258451904314" r="3" fill="green"/>
<circle cx="565.7388246331641" cy="131.82411227129595" r="3" fill="green"/>
<circle cx="584.7148397864187" cy="139.19315068060337" r="3" fill="green"/>
<circle cx="694.0004725384107" cy="110.86004727223467" r="3" fill="green"/>
<circle cx="688.981789363189" cy="109.78045698222046" r="3" fill="green"/>
<circle cx="688.82447507892" cy="177.26658707133618" r="3" fill="green"/>
<circle cx="613.529256101569" cy="208.86997214836276" r="3" fill="green"/>
<circle cx="539.5921294265472" cy="284.6867762010186" r="3" fill="green"/>
<circle cx="684.2066437648381" cy="119.79503563470142" r="3" fill="green"/>
<circle cx="669.4577496372045" cy="116.18895811063754" r="3" fill="green"/>
<circle cx="657.3045388662674" cy="165.95686097979652" r="3" fill="green"/>
<circle cx="698.8839383962319" cy="127.26014606995935" r="3" fill="green"/>
<circle cx="663.1124043211926" cy="203.31671121392316" r="3" fill="green"/>
<circle cx="278.67585575321175" cy="136.98230229035863" r="3" fill="green"/>
<circle cx="682.4554816673266" cy="114.0799227902705" r="3" fill="green"/>
<circle cx="595.2441947860716" cy="122.34636620312199" r="3" fill="green"/>
<circle cx="664.35361587575" cy="123.09112979950831" r="3" fill="green"/>
<circle cx="694.5266434710526" cy="109.27991790366546" r="3" fill="green"/>
<circle cx="525.6094555529633" cy="347.85853947602095" r="3" fill="green"/>
<circle cx="512.4627386414619" cy="151.89213645195233" r="3" fill="green"/>
<circle cx="505.90595608731576" cy="215.4686986449688" r="3" fill="green"/>
<circle cx="648.5801461046808" cy="117.4983877727466" r="3" fill="green"/>
<circle cx="587.0249057846106" cy="138.3214672363641" r="3" fill="green"/>
<circle cx="656.326640028798" cy="120.88303329259006" r="3" fill="green"/>
<circle cx="671.1779611360216" cy="121.26892921128523" r="3" fill="green"/>
<circle cx="561.754408122865" cy="221.1646018000951" r="3" fill="green"/>
<circle cx="660.4504461635685" cy="125.98555388768347" r="3" fill="green"/>
<circle cx="584.3154886722589" cy="262.0109661289042" r="3" fill="green"/>
<circle cx="637.778576972981" cy="124.17206938485808" r="3" fill="green"/>
<circle cx="691.3620051356249" cy="111.83534341609067" r="3" fill="green"/>
<circle cx="685.4847202085062" cy="177.5418554373104" r="3" fill="green"/>
<circle cx="493.0388982345901" cy="144.47112065796705" r="3" fill="green"/>
<circle cx="625.3862223254324" cy="169.49561690188733" r="3" fill="green"/>
<circle cx="588.3956237135114" cy="205.55473848754912" r="3" fill="green"/>
<circle cx="209.9401301570727" cy="150.70343283434812" r="3" fill="green"/>
<circle cx="677.4243059335724" cy="181.64185437793807" r="3" fill="green"/>
<circle cx="643.6642440628092" cy="212.69636604834562" r="3" fill="red"/>
<circle cx="694.1350300488676" cy="149.7568049949766" r="3" fill="red"/>
<circle cx="562.036325078989" cy="214.93862678926058" r="3" fill="red"/>
<circle cx="671.0058689502854" cy="120.44464021951654" r="3" fill="red"/>
<circle cx="575.5653720452201" cy="143.96714836258252" r="3" fill="red"/>
<circle cx="619.492051975915" cy="194.35671848216435" r="3" fill="red"/>
<circle cx="665.4338053615587" cy="136.54167888522107" r="3" fill="red"/>
<circle cx="595.4234054549618" cy="191.22667021781572" r="3" fill="red"/>
<circle cx="599.9861087989157" cy="137.59611558896148" r="3" fill="red"/>
<circle cx="675.2279150599213" cy="138.21741656788652" r="3" fill="red"/>
<circle cx="472.11923944148305" cy="159.18875917804445" r="3" fill="red"/>
<circle cx="632.2272275928934" cy="208.48004059031177" r="3" fill="red"/>
<circle cx="699.8656505890808" cy="101.36325026650113" r="3" fill="red"/>
<circle cx="699.6602782757706" cy="146.22324778831364" r="3" fill="red"/>
<circle cx="472.9742378153374" cy="157.1512339904669" r="3" fill="red"/>
<circle cx="565.7388246331641" cy="224.20770818651326" r="3" fill="red"/>
<circle cx="584.7148397864187" cy="245.72393699163229" r="3" fill="red"/>
<circle cx="694.0004725384107" cy="133.00001003353123" r="3" fill="red"/>
<circle cx="688.981789363189" cy="118.87270136117438" r="3" fill="red"/>
<circle cx="688.82447507892" cy="144.88172872987786" r="3" fill="red"/>
<circle cx="613.529256101569" cy="162.33953855617997" r="3" fill="red"/>
<circle cx="539.5921294265472" cy="195.0987206307365" r="3" fill="red"/>
<circle cx="684.2066437648381" cy="143.0095057207546" r="3" fill="red"/>
<circle cx="669.4577496372045" cy="138.75532187948193" r="3" fill="red"/>
<circle cx="657.3045388662674" cy="172.6622831542078" r="3" fill="red"/>
<circle cx="698.8839383962319" cy="114.31988990714785" r="3" fill="red"/>
<circle cx="663.1124043211926" cy="196.8692549896459" r="3" fill="red"/>
<circle cx="278.67585575321175" cy="166.192600564072" r="3" fill="red"/>
<circle cx="682.4554816673266" cy="133.78249793598562" r="3" fill="red"/>
<circle cx="595.2441947860716" cy="158.58746577231298" r="3" fill="red"/>
<circle cx="664.35361587575" cy="130.6497922049881" r="3" fill="red"/>
<circle cx="694.5266434710526" cy="118.86464550118166" r="3" fill="red"/>
<circle cx="525.6094555529633" cy="220.67077360940468" r="3" fill="red"/>
<circle cx="512.4627386414619" cy="306.5828905882886" r="3" fill="red"/>
<circle cx="505.90595608731576" cy="182.7642988589419" r="3" fill="red"/>
<circle cx="648.5801461046808" cy="170.97219218338478" r="3" fill="red"/>
<circle cx="587.0249057846106" cy="206.58737490174497" r="3" fill="red"/>
<circle cx="656.326640028798" cy="127.76213614411449" r="3" fill="red"/>
<circle cx="671.1779611360216" cy="128.69249839522556" r="3" fill="red"/>
<circle cx="561.754408122865" cy="219.7337523655111" r="3" fill="red"/>
<circle cx="660.4504461635685" cy="165.25553575281532" r="3" fill="red"/>
<circle cx="584.3154886722589" cy="194.68345382306194" r="3" fill="red"/>
<circle cx="637.778576972981" cy="170.23706421936316" r="3" fill="red"/>
<circle cx="691.3620051356249" cy="144.29799839057816" r="3" fill="red"/>
<circle cx="685.4847202085062" cy="162.54848812830494" r="3" fill="red"/>
<circle cx="493.0388982345901" cy="218.22574594784356" r="3" fill="red"/>
<circle cx="625.3862223254324" cy="133.24698137766538" r="3" fill="red"/>
<circle cx="588.3956237135114" cy="164.29649087700108" r="3" fill="red"/>
<circle cx="209.9401301570727" cy="168.74669297844372" r="3" fill="red"/>
<circle cx="677.4243059335724" cy="131.8136214654797" r="3" fill="red"/>
</svg>