<svg viewBox="0 0 800 600" xmlns="http://www.w3.org/2000/svg">
<line x1="100" y1="500" x2="700" y2="500" stroke="#2e2e2c"/>
<line x1="100.0" y1="500" x2="100.0" y2="505" stroke="#2e2e2c"/>
<line x1="150.0" y1="500" x2="150.0" y2="505" stroke="#2e2e2c"/>
<line x1="200.0" y1="500" x2="200.0" y2="505" stroke="#2e2e2c"/>
<line x1="250.0" y1="500" x2="250.0" y2="505" stroke="#2e2e2c"/>
<line x1="300.0" y1="500" x2="300.0" y2="505" stroke="#2e2e2c"/>
<line x1="350.0" y1="500" x2="350.0" y2="505" stroke="#2e2e2c"/>
<line x1="400.0" y1="500" x2="400.0" y2="505" stroke="#2e2e2c"/>
<line x1="450.0" y1="500" x2="450.0" y2="505" stroke="#2e2e2c"/>
<line x1="500.0" y1="500" x2="500.0" y2="505" stroke="#2e2e2c"/>
<line x1="550.0" y1="500" x2="550.0" y2="505" stroke="#2e2e2c"/>
<line x1="600.0" y1="500" x2="600.0" y2="505" stroke="#2e2e2c"/>
<line x1="650.0" y1="500" x2="650.0" y2="505" stroke="#2e2e2c"/>
<line x1="700.0" y1="500" x2="700.0" y2="505" stroke="#2e2e2c"/>
<text x="100.0" y="510" text-anchor="middle" dominant-baseline="hanging">0</text>
<text x="150.0" y="510" text-anchor="middle" dominant-baseline="hanging">10</text>
<text x="200.0" y="510" text-anchor="middle" dominant-baseline="hanging">20</text>
<text x="250.0" y="510" text-anchor="middle" dominant-baseline="hanging">30</text>
<text x="300.0" y="510" text-anchor="middle" dominant-baseline="hanging">40</text>
<text x="350.0" y="510" text-anchor="middle" dominant-baseline="hanging">50</text>
<text x="400.0" y="510" text-anchor="middle" dominant-baseline="hanging">60</text>
<text x="450.0" y="510" text-anchor="middle" dominant-baseline="hanging">70</text>
<text x="500.0" y="510" text-anchor="middle" dominant-baseline="hanging">80</text>
<text x="550.0" y="510" text-anchor="middle" dominant-baseline="hanging">90</text>
<text x="600.0" y="510" text-anchor="middle" dominant-baseline="hanging">100</text>
<text x="650.0" y="510" text-anchor="middle" dominant-baseline="hanging">110</text>
<text x="700.0" y="510" text-anchor="middle" dominant-baseline="hanging">120</text>
<line x1="100" y1="442.8571428571429" x2="700" y2="442.8571428571429" stroke="#2e2e2c"/>
<line x1="100" y1="385.7142857142858" x2="700" y2="385.7142857142858" stroke="#2e2e2c"/>
<line x1="100" y1="328.57142857142856" x2="700" y2="328.57142857142856" stroke="#2e2e2c"/>
<line x1="100" y1="271.42857142857144" x2="700" y2="271.42857142857144" stroke="#2e2e2c"/>
<line x1="100" y1="214.28571428571433" x2="700" y2="214.28571428571433" stroke="#2e2e2c"/>
<line x1="100" y1="157.1428571428571" x2="700" y2="157.1428571428571" stroke="#2e2e2c"/>
<line x1="100" y1="100.0" x2="700" y2="100.0" stroke="#2e2e2c"/>
<line x1="100" y1="100" x2="100" y2="500" stroke="#2e2e2c"/>
<line x1="95" y1="500.0" x2="100" y2="500.0" stroke="#2e2e2c"/>
<line x1="95" y1="442.85714285714283" x2="100" y2="442.85714285714283" stroke="#2e2e2c"/>
<line x1="95" y1="385.7142857142857" x2="100" y2="385.7142857142857" stroke="#2e2e2c"/>
<line x1="95" y1="328.57142857142856" x2="100" y2="328.57142857142856" stroke="#2e2e2c"/>
<line x1="95" y1="271.42857142857144" x2="100" y2="271.42857142857144" stroke="#2e2e2c"/>
<line x1="95" y1="214.28571428571428" x2="100" y2="214.28571428571428" stroke="#2e2e2c"/>
<line x1="95" y1="157.14285714285714" x2="100" y2="157.14285714285714" stroke="#2e2e2c"/>
<line x1="95" y1="100.0" x2="100" y2="100.0" stroke="#2e2e2c"/>
<text x="90" y="500.0" text-anchor="end" dominant-baseline="middle">0</text>
<text x="90" y="442.85714285714283" text-anchor="end" dominant-baseline="middle">2,000</text>
<text x="90" y="385.7142857142857" text-anchor="end" dominant-baseline="middle">4,000</text>
<text x="90" y="328.57142857142856" text-anchor="end" dominant-baseline="middle">6,000</text>
<text x="90" y="271.42857142857144" text-anchor="end" dominant-baseline="middle">8,000</text>
<text x="90" y="214.28571428571428" text-anchor="end" dominant-baseline="middle">10,000</text>
<text x="90" y="157.14285714285714" text-anchor="end" dominant-baseline="middle">12,000</text>
<text x="90" y="100.0" text-anchor="end" dominant-baseline="middle">14,000</text>
<line x1="150.0" y1="100" x2="150.0" y2="500" stroke="#2e2e2c"/>
<line x1="140.0" y1="100" x2="140.0" y2="500" stroke="#2e2e2c" stroke-width="0.4"/>
<line x1="130.0" y1="100" x2="130.0" y2="500" stroke="#2e2e2c" stroke-width="0.4"/>
<line x1="120.0" y1="100" x2="120.0" y2="500" stroke="#2e2e2c" stroke-width="0.4"/>
<line x1="110.0" y1="100" x2="110.0" y2="500" stroke="#2e2e2c" stroke-width="0.4"/>
<line x1="200.0" y1="100" x2="200.0" y2="500" stroke="#2e2e2c"/>
<line x1="190.0" y1="100" x2="190.0" y2="500" stroke="#2e2e2c" stroke-width="0.4"/>
<line x1="180.0" y1="100" x2="180.0" y2="500" stroke="#2e2e2c" stroke-width="0.4"/>
<line x1="170.0" y1="100" x2="170.0" y2="500" stroke="#2e2e2c" stroke-width="0.4"/>
<line x1="160.0" y1="100" x2="160.0" y2="500" stroke="#2e2e2c" stroke-width="0.4"/>
<line x1="250.0" y1="100" x2="250.0" y2="500" stroke="#2e2e2c"/>
<line x1="240.0" y1="100" x2="240.0" y2="500" stroke="#2e2e2c" stroke-width="0.4"/>
<line x1="230.0" y1="100" x2="230.0" y2="500" stroke="#2e2e2c" stroke-width="0.4"/>
<line x1="220.0" y1="100" x2="220.0" y2="500" stroke="#2e2e2c" stroke-width="0.4"/>
<line x1="210.0" y1="100" x2="210.0" y2="500" stroke="#2e2e2c" stroke-width="0.4"/>
<line x1="300.0" y1="100" x2="300.0" y2="500" stroke="#2e2e2c"/>
<line x1="290.0" y1="100" x2="290.0" y2="500" stroke="#2e2e2c" stroke-width="0.4"/>
<line x1="280.0" y1="100" x2="280.0" y2="500" stroke="#2e2e2c" stroke-width="0.4"/>
<line x1="270.0" y1="100" x2="270.0" y2="500" stroke="#2e2e2c" stroke-width="0.4"/>
<line x1="260.0" y1="100" x2="260.0" y2="500" stroke="#2e2e2c" stroke-width="0.4"/>
<line x1="350.0" y1="100" x2="350.0" y2="500" stroke="#2e2e2c"/>
<line x1="340.0" y1="100" x2="340.0" y2="500" stroke="#2e2e2c" stroke-width="0.4"/>
<line x1="330.0" y1="100" x2="330.0" y2="500" stroke="#2e2e2c" stroke-width="0.4"/>
<line x1="320.0" y1="100" x2="320.0" y2="500" stroke="#2e2e2c" stroke-width="0.4"/>
<line x1="310.0" y1="100" x2="310.0" y2="500" stroke="#2e2e2c" stroke-width="0.4"/>
<line x1="400.0" y1="100" x2="400.0" y2="500" stroke="#2e2e2c"/>
<line x1="390.0" y1="100" x2="390.0" y2="500" stroke="#2e2e2c" stroke-width="0.4"/>
<line x1="380.0" y1="100" x2="380.0" y2="500" stroke="#2e2e2c" stroke-width="0.4"/>
<line x1="370.0" y1="100" x2="370.0" y2="500" stroke="#2e2e2c" stroke-width="0.4"/>
<line x1="360.0" y1="100" x2="360.0" y2="500" stroke="#2e2e2c" stroke-width="0.4"/>
<line x1="450.0" y1="100" x2="450.0" y2="500" stroke="#2e2e2c"/>
<line x1="440.0" y1="100" x2="440.0" y2="500" stroke="#2e2e2c" stroke-width="0.4"/>
<line x1="430.0" y1="100" x2="430.0" y2="500" stroke="#2e2e2c" stroke-width="0.4"/>
<line x1="420.0" y1="100" x2="420.0" y2="500" stroke="#2e2e2c" stroke-width="0.4"/>
<line x1="410.0" y1="100" x2="410.0" y2="500" stroke="#2e2e2c" stroke-width="0.4"/>
<line x1="500.0" y1="100" x2="500.0" y2="500" stroke="#2e2e2c"/>
<line x1="490.0" y1="100" x2="490.0" y2="500" stroke="#2e2e2c" stroke-width="0.4"/>
<line x1="480.0" y1="100" x2="480.0" y2="500" stroke="#2e2e2c" stroke-width="0.4"/>
<line x1="470.0" y1="100" x2="470.0" y2="500" stroke="#2e2e2c" stroke-width="0.4"/>
<line x1="460.0" y1="100" x2="460.0" y2="500" stroke="#2e2e2c" stroke-width="0.4"/>
<line x1="550.0" y1="100" x2="550.0" y2="500" stroke="#2e2e2c"/>
<line x1="540.0" y1="100" x2="540.0" y2="500" stroke="#2e2e2c" stroke-width="0.4"/>
<line x1="530.0" y1="100" x2="530.0" y2="500" stroke="#2e2e2c" stroke-width="0.4"/>
<line x1="520.0" y1="100" x2="520.0" y2="500" stroke="#2e2e2c" stroke-width="0.4"/>
<line x1="510.0" y1="100" x2="510.0" y2="500" stroke="#2e2e2c" stroke-width="0.4"/>
<line x1="600.0" y1="100" x2="600.0" y2="500" stroke="#2e2e2c"/>
<line x1="590.0" y1="100" x2="590.0" y2="500" stroke="#2e2e2c" stroke-width="0.4"/>
<line x1="580.0" y1="100" x2="580.0" y2="500" stroke="#2e2e2c" stroke-width="0.4"/>
<line x1="570.0" y1="100" x2="570.0" y2="500" stroke="#2e2e2c" stroke-width="0.4"/>
<line x1="560.0" y1="100" x2="560.0" y2="500" stroke="#2e2e2c" stroke-width="0.4"/>
<line x1="650.0" y1="100" x2="650.0" y2="500" stroke="#2e2e2c"/>
<line x1="640.0" y1="100" x2="640.0" y2="500" stroke="#2e2e2c" stroke-width="0.4"/>
<line x1="630.0" y1="100" x2="630.0" y2="500" stroke="#2e2e2c" stroke-width="0.4"/>
<line x1="620.0" y1="100" x2="620.0" y2="500" stroke="#2e2e2c" stroke-width="0.4"/>
<line x1="610.0" y1="100" x2="610.0" y2="500" stroke="#2e2e2c" stroke-width="0.4"/>
<line x1="700.0" y1="100" x2="700.0" y2="500" stroke="#2e2e2c"/>
<line x1="690.0" y1="100" x2="690.0" y2="500" stroke="#2e2e2c" stroke-width="0.4"/>
<line x1="680.0" y1="100" x2="680.0" y2="500" stroke="#2e2e2c" stroke-width="0.4"/>
<line x1="670.0" y1="100" x2="670.0" y2="500" stroke="#2e2e2c" stroke-width="0.4"/>
<line x1="660.0" y1="100" x2="660.0" y2="500" stroke="#2e2e2c" stroke-width="0.4"/>
<line x1="100" y1="454.28571428571433" x2="700" y2="454.28571428571433" stroke="#2e2e2c" stroke-width="0.4"/>
<line x1="100" y1="465.7142857142858" x2="700" y2="465.7142857142858" stroke="#2e2e2c" stroke-width="0.4"/>
<line x1="100" y1="477.1428571428572" x2="700" y2="477.1428571428572" stroke="#2e2e2c" stroke-width="0.4"/>
<line x1="100" y1="488.57142857142856" x2="700" y2="488.57142857142856" stroke="#2e2e2c" stroke-width="0.4"/>
<line x1="100" y1="397.1428571428572" x2="700" y2="397.1428571428572" stroke="#2e2e2c" stroke-width="0.4"/>
<line x1="100" y1="408.57142857142867" x2="700" y2="408.57142857142867" stroke="#2e2e2c" stroke-width="0.4"/>
<line x1="100" y1="420.0000000000001" x2="700" y2="420.0000000000001" stroke="#2e2e2c" stroke-width="0.4"/>
<line x1="100" y1="431.42857142857144" x2="700" y2="431.42857142857144" stroke="#2e2e2c" stroke-width="0.4"/>
<line x1="100" y1="340.0" x2="700" y2="340.0" stroke="#2e2e2c" stroke-width="0.4"/>
<line x1="100" y1="351.42857142857144" x2="700" y2="351.42857142857144" stroke="#2e2e2c" stroke-width="0.4"/>
<line x1="100" y1="362.8571428571429" x2="700" y2="362.8571428571429" stroke="#2e2e2c" stroke-width="0.4"/>
<line x1="100" y1="374.2857142857142" x2="700" y2="374.2857142857142" stroke="#2e2e2c" stroke-width="0.4"/>
<line x1="100" y1="282.8571428571429" x2="700" y2="282.8571428571429" stroke="#2e2e2c" stroke-width="0.4"/>
<line x1="100" y1="294.28571428571433" x2="700" y2="294.28571428571433" stroke="#2e2e2c" stroke-width="0.4"/>
<line x1="100" y1="305.7142857142858" x2="700" y2="305.7142857142858" stroke="#2e2e2c" stroke-width="0.4"/>
<line x1="100" y1="317.1428571428571" x2="700" y2="317.1428571428571" stroke="#2e2e2c" stroke-width="0.4"/>
<line x1="100" y1="225.71428571428578" x2="700" y2="225.71428571428578" stroke="#2e2e2c" stroke-width="0.4"/>
<line x1="100" y1="237.14285714285722" x2="700" y2="237.14285714285722" stroke="#2e2e2c" stroke-width="0.4"/>
<line x1="100" y1="248.57142857142867" x2="700" y2="248.57142857142867" stroke="#2e2e2c" stroke-width="0.4"/>
<line x1="100" y1="260.0" x2="700" y2="260.0" stroke="#2e2e2c" stroke-width="0.4"/>
<line x1="100" y1="168.57142857142856" x2="700" y2="168.57142857142856" stroke="#2e2e2c" stroke-width="0.4"/>
<line x1="100" y1="180.0" x2="700" y2="180.0" stroke="#2e2e2c" stroke-width="0.4"/>
<line x1="100" y1="191.42857142857144" x2="700" y2="191.42857142857144" stroke="#2e2e2c" stroke-width="0.4"/>
<line x1="100" y1="202.85714285714278" x2="700" y2="202.85714285714278" stroke="#2e2e2c" stroke-width="0.4"/>
<line x1="100" y1="111.42857142857144" x2="700" y2="111.42857142857144" stroke="#2e2e2c" stroke-width="0.4"/>
<line x1="100" y1="122.85714285714289" x2="700" y2="122.85714285714289" stroke="#2e2e2c" stroke-width="0.4"/>
<line x1="100" y1="134.28571428571433" x2="700" y2="134.28571428571433" stroke="#2e2e2c" stroke-width="0.4"/>
<line x1="100" y1="145.71428571428567" x2="700" y2="145.71428571428567" stroke="#2e2e2c" stroke-width="0.4"/>
<line x1="500" y1="60" x2="520" y2="60" stroke-width="2" stroke="green"/>
<line x1="600" y1="60" x2="620" y2="60" stroke-width="2" stroke="red"/>
<text x="525" y="60" alignment-baseline="middle">predicted</text>
<text x="625" y="60" alignment-baseline="middle">actual</text>
<path d="M 100.0 385.7142857142857 L 106.06060606060606 385.7142857142857 L 112.12121212121212 382.85714285714283 L 118.18181818181819 382.85714285714283 L 124.24242424242425 382.85714285714283 L 130.3030303030303 380.0 L 136.36363636363637 380.0 L 142.42424242424244 380.0 L 148.4848484848485 377.1428571428571 L 154.54545454545456 374.2857142857143 L 160.60606060606062 374.2857142857143 L 166.66666666666669 371.42857142857144 L 172.72727272727275 371.42857142857144 L 178.78787878787878 368.5714285714286 L 184.84848484848484 365.7142857142857 L 190.9090909090909 362.85714285714283 L 196.96969696969697 360.0 L 203.03030303030303 357.1428571428571 L 209.0909090909091 354.2857142857143 L 215.15151515151516 351.42857142857144 L 221.21212121212122 348.57142857142856 L 227.27272727272725 348.57142857142856 L 233.33333333333334 348.57142857142856 L 239.3939393939394 345.7142857142857 L 245.45454545454547 345.7142857142857 L 251.5151515151515 342.8571428571429 L 257.57575757575756 342.8571428571429 L 263.6363636363636 340.0 L 269.6969696969697 340.0 L 275.75757575757575 340.0 L 281.8181818181818 340.0 L 287.8787878787879 340.0 L 293.93939393939394 337.1428571428571 L 300.0 334.2857142857142 L 306.06060606060606 331.42857142857144 L 312.1212121212121 328.57142857142856 L 318.1818181818182 325.7142857142857 L 324.24242424242425 322.8571428571429 L 330.3030303030303 320.0 L 336.3636363636364 320.0 L 342.42424242424244 317.14285714285717 L 348.4848484848485 314.2857142857143 L 354.5454545454545 314.2857142857143 L 360.6060606060606 311.42857142857144 L 366.6666666666667 308.57142857142856 L 372.72727272727275 305.71428571428567 L 378.7878787878788 302.85714285714283 L 384.8484848484849 302.85714285714283 L 390.90909090909093 300.0 L 396.969696969697 297.14285714285717 L 403.030303030303 297.14285714285717 L 409.09090909090907 297.14285714285717 L 415.1515151515151 297.14285714285717 L 421.2121212121212 294.28571428571433 L 427.27272727272725 294.28571428571433 L 433.3333333333333 294.28571428571433 L 439.3939393939394 294.28571428571433 L 445.45454545454544 294.28571428571433 L 451.5151515151515 291.42857142857144 L 457.57575757575756 288.57142857142856 L 463.6363636363636 288.57142857142856 L 469.6969696969697 288.57142857142856 L 475.75757575757575 288.57142857142856 L 481.8181818181818 288.57142857142856 L 487.8787878787879 288.57142857142856 L 493.93939393939394 285.7142857142857 L 500.0 282.8571428571429 L 506.06060606060606 280.0 L 512.1212121212121 277.1428571428571 L 518.1818181818182 274.2857142857143 L 524.2424242424242 274.2857142857143 L 530.3030303030303 271.42857142857144 L 536.3636363636364 268.57142857142856 L 542.4242424242425 265.71428571428567 L 548.4848484848485 262.8571428571429 L 554.5454545454545 260.0 L 560.6060606060606 257.14285714285717 L 566.6666666666667 257.14285714285717 L 572.7272727272727 254.28571428571428 L 578.7878787878788 254.28571428571428 L 584.8484848484849 254.28571428571428 L 590.909090909091 254.28571428571428 L 596.969696969697 254.28571428571428 L 603.030303030303 254.28571428571428 L 609.090909090909 251.42857142857142 L 615.1515151515151 248.57142857142858 L 621.2121212121212 245.71428571428572 L 627.2727272727273 245.71428571428572 L 633.3333333333334 242.85714285714283 L 639.3939393939394 242.85714285714283 L 645.4545454545455 242.85714285714283 L 651.5151515151515 242.85714285714283 L 657.5757575757576 240.0 L 663.6363636363636 240.0 L 669.6969696969697 237.14285714285714 L 675.7575757575758 234.2857142857143 L 681.8181818181819 231.42857142857144 L 687.8787878787879 228.57142857142856 L 693.939393939394 228.57142857142856 L 700.0 225.71428571428572" fill="none" stroke-width="2" stroke="green"/>
<path d="M 100.0 357.1428571428571 L 106.06060606060606 357.1428571428571 L 112.12121212121212 354.2857142857143 L 118.18181818181819 354.2857142857143 L 124.24242424242425 354.2857142857143 L 130.3030303030303 351.42857142857144 L 136.36363636363637 351.42857142857144 L 142.42424242424244 351.42857142857144 L 148.4848484848485 348.57142857142856 L 154.54545454545456 345.7142857142857 L 160.60606060606062 345.7142857142857 L 166.66666666666669 342.8571428571429 L 172.72727272727275 342.8571428571429 L 178.78787878787878 340.0 L 184.84848484848484 337.1428571428571 L 190.9090909090909 334.2857142857142 L 196.96969696969697 331.42857142857144 L 203.03030303030303 328.57142857142856 L 209.0909090909091 325.7142857142857 L 215.15151515151516 322.8571428571429 L 221.21212121212122 320.0 L 227.27272727272725 320.0 L 233.33333333333334 320.0 L 239.3939393939394 317.14285714285717 L 245.45454545454547 317.14285714285717 L 251.5151515151515 314.2857142857143 L 257.57575757575756 314.2857142857143 L 263.6363636363636 311.42857142857144 L 269.6969696969697 311.42857142857144 L 275.75757575757575 311.42857142857144 L 281.8181818181818 311.42857142857144 L 287.8787878787879 311.42857142857144 L 293.93939393939394 308.57142857142856 L 300.0 305.71428571428567 L 306.06060606060606 302.85714285714283 L 312.1212121212121 300.0 L 318.1818181818182 297.14285714285717 L 324.24242424242425 294.28571428571433 L 330.3030303030303 291.42857142857144 L 336.3636363636364 291.42857142857144 L 342.42424242424244 288.57142857142856 L 348.4848484848485 285.7142857142857 L 354.5454545454545 285.7142857142857 L 360.6060606060606 282.8571428571429 L 366.6666666666667 280.0 L 372.72727272727275 277.1428571428571 L 378.7878787878788 274.2857142857143 L 384.8484848484849 274.2857142857143 L 390.90909090909093 271.42857142857144 L 396.969696969697 268.57142857142856 L 403.030303030303 268.57142857142856 L 409.09090909090907 268.57142857142856 L 415.1515151515151 268.57142857142856 L 421.2121212121212 265.71428571428567 L 427.27272727272725 265.71428571428567 L 433.3333333333333 265.71428571428567 L 439.3939393939394 265.71428571428567 L 445.45454545454544 265.71428571428567 L 451.5151515151515 262.8571428571429 L 457.57575757575756 260.0 L 463.6363636363636 260.0 L 469.6969696969697 260.0 L 475.75757575757575 260.0 L 481.8181818181818 260.0 L 487.8787878787879 260.0 L 493.93939393939394 257.14285714285717 L 500.0 254.28571428571428 L 506.06060606060606 251.42857142857142 L 512.1212121212121 248.57142857142858 L 518.1818181818182 245.71428571428572 L 524.2424242424242 245.71428571428572 L 530.3030303030303 242.85714285714283 L 536.3636363636364 240.0 L 542.4242424242425 237.14285714285714 L 548.4848484848485 234.2857142857143 L 554.5454545454545 231.42857142857144 L 560.6060606060606 228.57142857142856 L 566.6666666666667 228.57142857142856 L 572.7272727272727 225.71428571428572 L 578.7878787878788 225.71428571428572 L 584.8484848484849 225.71428571428572 L 590.909090909091 225.71428571428572 L 596.969696969697 225.71428571428572 L 603.030303030303 225.71428571428572 L 609.090909090909 222.85714285714286 L 615.1515151515151 220.0 L 621.2121212121212 217.1428571428571 L 627.2727272727273 217.1428571428571 L 633.3333333333334 214.28571428571428 L 639.3939393939394 214.28571428571428 L 645.4545454545455 214.28571428571428 L 651.5151515151515 214.28571428571428 L 657.5757575757576 211.42857142857144 L 663.6363636363636 211.42857142857144 L 669.6969696969697 208.57142857142858 L 675.7575757575758 205.7142857142857 L 681.8181818181819 202.85714285714283 L 687.8787878787879 200.0 L 693.939393939394 200.0 L 700.0 197.14285714285717" fill="none" stroke-width="2" stroke="red"/>
</svg>