<svg viewBox="0 0 800 600" xmlns="http://www.w3.org/2000/svg">
<line x1="100" y1="500" x2="700" y2="500" stroke="#2e2e2c"/>
<line x1="100.0" y1="500" x2="100.0" y2="505" stroke="#2e2e2c"/>
<line x1="150.0" y1="500" x2="150.0" y2="505" stroke="#2e2e2c"/>
<line x1="200.0" y1="500" x2="200.0" y2="505" stroke="#2e2e2c"/>
<line x1="250.0" y1="500" x2="250.0" y2="505" stroke="#2e2e2c"/>
<line x1="300.0" y1="500" x2="300.0" y2="505" stroke="#2e2e2c"/>
<line x1="350.0" y1="500" x2="350.0" y2="505" stroke="#2e2e2c"/>
<line x1="400.0" y1="500" x2="400.0" y2="505" stroke="#2e2e2c"/>
<line x1="450.0" y1="500" x2="450.0" y2="505" stroke="#2e2e2c"/>
<line x1="500.0" y1="500" x2="500.0" y2="505" stroke="#2e2e2c"/>
<line x1="550.0" y1="500" x2="550.0" y2="505" stroke="#2e2e2c"/>
<line x1="600.0" y1="500" x2="600.0" y2="505" stroke="#2e2e2c"/>
<line x1="650.0" y1="500" x2="650.0" y2="505" stroke="#2e2e2c"/>
<line x1="700.0" y1="500" x2="700.0" y2="505" stroke="#2e2e2c"/>
<text x="100.0" y="510" text-anchor="middle" dominant-baseline="hanging">0</text>
<text x="150.0" y="510" text-anchor="middle" dominant-baseline="hanging">10</text>
<text x="200.0" y="510" text-anchor="middle" dominant-baseline="hanging">20</text>
<text x="250.0" y="510" text-anchor="middle" dominant-baseline="hanging">30</text>
<text x="300.0" y="510" text-anchor="middle" dominant-baseline="hanging">40</text>
<text x="350.0" y="510" text-anchor="middle" dominant-baseline="hanging">50</text>
<text x="400.0" y="510" text-anchor="middle" dominant-baseline="hanging">60</text>
<text x="450.0" y="510" text-anchor="middle" dominant-baseline="hanging">70</text>
<text x="500.0" y="510" text-anchor="middle" dominant-baseline="hanging">80</text>
<text x="550.0" y="510" text-anchor="middle" dominant-baseline="hanging">90</text>
<text x="600.0" y="510" text-anchor="middle" dominant-baseline="hanging">100</text>
<text x="650.0" y="510" text-anchor="middle" dominant-baseline="hanging">110</text>
<text x="700.0" y="510" text-anchor="middle" dominant-baseline="hanging">120</text>
<line x1="100" y1="466.66666666666674" x2="700" y2="466.66666666666674" stroke="#2e2e2c"/>
<line x1="100" y1="433.33333333333326" x2="700" y2="433.33333333333326" stroke="#2e2e2c"/>
<line x1="100" y1="400.0" x2="700" y2="400.0" stroke="#2e2e2c"/>
<line x1="100" y1="366.66666666666674" x2="700" y2="366.66666666666674" stroke="#2e2e2c"/>
<line x1="100" y1="333.33333333333337" x2="700" y2="333.33333333333337" stroke="#2e2e2c"/>
<line x1="100" y1="300.0" x2="700" y2="300.0" stroke="#2e2e2c"/>
<line x1="100" y1="266.66666666666663" x2="700" y2="266.66666666666663" stroke="#2e2e2c"/>
<line x1="100" y1="233.33333333333337" x2="700" y2="233.33333333333337" stroke="#2e2e2c"/>
<line x1="100" y1="200.0" x2="700" y2="200.0" stroke="#2e2e2c"/>
<line x1="100" y1="166.66666666666663" x2="700" y2="166.66666666666663" stroke="#2e2e2c"/>
<line x1="100" y1="133.33333333333337" x2="700" y2="133.33333333333337" stroke="#2e2e2c"/>
<line x1="100" y1="100.0" x2="700" y2="100.0" stroke="#2e2e2c"/>
<line x1="100" y1="100" x2="100" y2="500" stroke="#2e2e2c"/>
<line x1="95" y1="500.0" x2="100" y2="500.0" stroke="#2e2e2c"/>
<line x1="95" y1="466.6666666666667" x2="100" y2="466.6666666666667" stroke="#2e2e2c"/>
<line x1="95" y1="433.3333333333333" x2="100" y2="433.3333333333333" stroke="#2e2e2c"/>
<line x1="95" y1="400.0" x2="100" y2="400.0" stroke="#2e2e2c"/>
<line x1="95" y1="366.6666666666667" x2="100" y2="366.6666666666667" stroke="#2e2e2c"/>
<line x1="95" y1="333.33333333333337" x2="100" y2="333.33333333333337" stroke="#2e2e2c"/>
<line x1="95" y1="300.0" x2="100" y2="300.0" stroke="#2e2e2c"/>
<line x1="95" y1="266.66666666666663" x2="100" y2="266.66666666666663" stroke="#2e2e2c"/>
<line x1="95" y1="233.33333333333334" x2="100" y2="233.33333333333334" stroke="#2e2e2c"/>
<line x1="95" y1="200.0" x2="100" y2="200.0" stroke="#2e2e2c"/>
<line x1="95" y1="166.66666666666669" x2="100" y2="166.66666666666669" stroke="#2e2e2c"/>
<line x1="95" y1="133.33333333333334" x2="100" y2="133.33333333333334" stroke="#2e2e2c"/>
<line x1="95" y1="100.0" x2="100" y2="100.0" stroke="#2e2e2c"/>
<text x="90" y="500.0" text-anchor="end" dominant-baseline="middle">0</text>
<text x="90" y="466.6666666666667" text-anchor="end" dominant-baseline="middle">1,000</text>
<text x="90" y="433.3333333333333" text-anchor="end" dominant-baseline="middle">2,000</text>
<text x="90" y="400.0" text-anchor="end" dominant-baseline="middle">3,000</text>
<text x="90" y="366.6666666666667" text-anchor="end" dominant-baseline="middle">4,000</text>
<text x="90" y="333.33333333333337" text-anchor="end" dominant-baseline="middle">5,000</text>
<text x="90" y="300.0" text-anchor="end" dominant-baseline="middle">6,000</text>
<text x="90" y="266.66666666666663" text-anchor="end" dominant-baseline="middle">7,000</text>
<text x="90" y="233.33333333333334" text-anchor="end" dominant-baseline="middle">8,000</text>
<text x="90" y="200.0" text-anchor="end" dominant-baseline="middle">9,000</text>
<text x="90" y="166.66666666666669" text-anchor="end" dominant-baseline="middle">10,000</text>
<text x="90" y="133.33333333333334" text-anchor="end" dominant-baseline="middle">11,000</text>
<text x="90" y="100.0" text-anchor="end" dominant-baseline="middle">12,000</text>
<line x1="150.0" y1="100" x2="150.0" y2="500" stroke="#2e2e2c"/>
<line x1="140.0" y1="100" x2="140.0" y2="500" stroke="#2e2e2c" stroke-width="0.4"/>
<line x1="130.0" y1="100" x2="130.0" y2="500" stroke="#2e2e2c" stroke-width="0.4"/>
<line x1="120.0" y1="100" x2="120.0" y2="500" stroke="#2e2e2c" stroke-width="0.4"/>
<line x1="110.0" y1="100" x2="110.0" y2="500" stroke="#2e2e2c" stroke-width="0.4"/>
<line x1="200.0" y1="100" x2="200.0" y2="500" stroke="#2e2e2c"/>
<line x1="190.0" y1="100" x2="190.0" y2="500" stroke="#2e2e2c" stroke-width="0.4"/>
<line x1="180.0" y1="100" x2="180.0" y2="500" stroke="#2e2e2c" stroke-width="0.4"/>
<line x1="170.0" y1="100" x2="170.0" y2="500" stroke="#2e2e2c" stroke-width="0.4"/>
<line x1="160.0" y1="100" x2="160.0" y2="500" stroke="#2e2e2c" stroke-width="0.4"/>
<line x1="250.0" y1="100" x2="250.0" y2="500" stroke="#2e2e2c"/>
<line x1="240.0" y1="100" x2="240.0" y2="500" stroke="#2e2e2c" stroke-width="0.4"/>
<line x1="230.0" y1="100" x2="230.0" y2="500" stroke="#2e2e2c" stroke-width="0.4"/>
<line x1="220.0" y1="100" x2="220.0" y2="500" stroke="#2e2e2c" stroke-width="0.4"/>
<line x1="210.0" y1="100" x2="210.0" y2="500" stroke="#2e2e2c" stroke-width="0.4"/>
<line x1="300.0" y1="100" x2="300.0" y2="500" stroke="#2e2e2c"/>
<line x1="290.0" y1="100" x2="290.0" y2="500" stroke="#2e2e2c" stroke-width="0.4"/>
<line x1="280.0" y1="100" x2="280.0" y2="500" stroke="#2e2e2c" stroke-width="0.4"/>
<line x1="270.0" y1="100" x2="270.0" y2="500" stroke="#2e2e2c" stroke-width="0.4"/>
<line x1="260.0" y1="100" x2="260.0" y2="500" stroke="#2e2e2c" stroke-width="0.4"/>
<line x1="350.0" y1="100" x2="350.0" y2="500" stroke="#2e2e2c"/>
<line x1="340.0" y1="100" x2="340.0" y2="500" stroke="#2e2e2c" stroke-width="0.4"/>
<line x1="330.0" y1="100" x2="330.0" y2="500" stroke="#2e2e2c" stroke-width="0.4"/>
<line x1="320.0" y1="100" x2="320.0" y2="500" stroke="#2e2e2c" stroke-width="0.4"/>
<line x1="310.0" y1="100" x2="310.0" y2="500" stroke="#2e2e2c" stroke-width="0.4"/>
<line x1="400.0" y1="100" x2="400.0" y2="500" stroke="#2e2e2c"/>
<line x1="390.0" y1="100" x2="390.0" y2="500" stroke="#2e2e2c" stroke-width="0.4"/>
<line x1="380.0" y1="100" x2="380.0" y2="500" stroke="#2e2e2c" stroke-width="0.4"/>
<line x1="370.0" y1="100" x2="370.0" y2="500" stroke="#2e2e2c" stroke-width="0.4"/>
<line x1="360.0" y1="100" x2="360.0" y2="500" stroke="#2e2e2c" stroke-width="0.4"/>
<line x1="450.0" y1="100" x2="450.0" y2="500" stroke="#2e2e2c"/>
<line x1="440.0" y1="100" x2="440.0" y2="500" stroke="#2e2e2c" stroke-width="0.4"/>
<line x1="430.0" y1="100" x2="430.0" y2="500" stroke="#2e2e2c" stroke-width="0.4"/>
<line x1="420.0" y1="100" x2="420.0" y2="500" stroke="#2e2e2c" stroke-width="0.4"/>
<line x1="410.0" y1="100" x2="410.0" y2="500" stroke="#2e2e2c" stroke-width="0.4"/>
<line x1="500.0" y1="100" x2="500.0" y2="500" stroke="#2e2e2c"/>
<line x1="490.0" y1="100" x2="490.0" y2="500" stroke="#2e2e2c" stroke-width="0.4"/>
<line x1="480.0" y1="100" x2="480.0" y2="500" stroke="#2e2e2c" stroke-width="0.4"/>
<line x1="470.0" y1="100" x2="470.0" y2="500" stroke="#2e2e2c" stroke-width="0.4"/>
<line x1="460.0" y1="100" x2="460.0" y2="500" stroke="#2e2e2c" stroke-width="0.4"/>
<line x1="550.0" y1="100" x2="550.0" y2="500" stroke="#2e2e2c"/>
<line x1="540.0" y1="100" x2="540.0" y2="500" stroke="#2e2e2c" stroke-width="0.4"/>
<line x1="530.0" y1="100" x2="530.0" y2="500" stroke="#2e2e2c" stroke-width="0.4"/>
<line x1="520.0" y1="100" x2="520.0" y2="500" stroke="#2e2e2c" stroke-width="0.4"/>
<line x1="510.0" y1="100" x2="510.0" y2="500" stroke="#2e2e2c" stroke-width="0.4"/>
<line x1="600.0" y1="100" x2="600.0" y2="500" stroke="#2e2e2c"/>
<line x1="590.0" y1="100" x2="590.0" y2="500" stroke="#2e2e2c" stroke-width="0.4"/>
<line x1="580.0" y1="100" x2="580.0" y2="500" stroke="#2e2e2c" stroke-width="0.4"/>
<line x1="570.0" y1="100" x2="570.0" y2="500" stroke="#2e2e2c" stroke-width="0.4"/>
<line x1="560.0" y1="100" x2="560.0" y2="500" stroke="#2e2e2c" stroke-width="0.4"/>
<line x1="650.0" y1="100" x2="650.0" y2="500" stroke="#2e2e2c"/>
<line x1="640.0" y1="100" x2="640.0" y2="500" stroke="#2e2e2c" stroke-width="0.4"/>
<line x1="630.0" y1="100" x2="630.0" y2="500" stroke="#2e2e2c" stroke-width="0.4"/>
<line x1="620.0" y1="100" x2="620.0" y2="500" stroke="#2e2e2c" stroke-width="0.4"/>
<line x1="610.0" y1="100" x2="610.0" y2="500" stroke="#2e2e2c" stroke-width="0.4"/>
<line x1="700.0" y1="100" x2="700.0" y2="500" stroke="#2e2e2c"/>
<line x1="690.0" y1="100" x2="690.0" y2="500" stroke="#2e2e2c" stroke-width="0.4"/>
<line x1="680.0" y1="100" x2="680.0" y2="500" stroke="#2e2e2c" stroke-width="0.4"/>
<line x1="670.0" y1="100" x2="670.0" y2="500" stroke="#2e2e2c" stroke-width="0.4"/>
<line x1="660.0" y1="100" x2="660.0" y2="500" stroke="#2e2e2c" stroke-width="0.4"/>
<line x1="100" y1="473.33333333333337" x2="700" y2="473.33333333333337" stroke="#2e2e2c" stroke-width="0.4"/>
<line x1="100" y1="480.0000000000001" x2="700" y2="480.0000000000001" stroke="#2e2e2c" stroke-width="0.4"/>
<line x1="100" y1="486.66666666666674" x2="700" y2="486.66666666666674" stroke="#2e2e2c" stroke-width="0.4"/>
<line x1="100" y1="493.33333333333337" x2="700" y2="493.33333333333337" stroke="#2e2e2c" stroke-width="0.4"/>
<line x1="100" y1="439.9999999999999" x2="700" y2="439.9999999999999" stroke="#2e2e2c" stroke-width="0.4"/>
<line x1="100" y1="446.66666666666663" x2="700" y2="446.66666666666663" stroke="#2e2e2c" stroke-width="0.4"/>
<line x1="100" y1="453.33333333333326" x2="700" y2="453.33333333333326" stroke="#2e2e2c" stroke-width="0.4"/>
<line x1="100" y1="459.9999999999999" x2="700" y2="459.9999999999999" stroke="#2e2e2c" stroke-width="0.4"/>
<line x1="100" y1="406.66666666666663" x2="700" y2="406.66666666666663" stroke="#2e2e2c" stroke-width="0.4"/>
<line x1="100" y1="413.33333333333337" x2="700" y2="413.33333333333337" stroke="#2e2e2c" stroke-width="0.4"/>
<line x1="100" y1="420.0" x2="700" y2="420.0" stroke="#2e2e2c" stroke-width="0.4"/>
<line x1="100" y1="426.66666666666663" x2="700" y2="426.66666666666663" stroke="#2e2e2c" stroke-width="0.4"/>
<line x1="100" y1="373.33333333333337" x2="700" y2="373.33333333333337" stroke="#2e2e2c" stroke-width="0.4"/>
<line x1="100" y1="380.0000000000001" x2="700" y2="380.0000000000001" stroke="#2e2e2c" stroke-width="0.4"/>
<line x1="100" y1="386.66666666666674" x2="700" y2="386.66666666666674" stroke="#2e2e2c" stroke-width="0.4"/>
<line x1="100" y1="393.33333333333337" x2="700" y2="393.33333333333337" stroke="#2e2e2c" stroke-width="0.4"/>
<line x1="100" y1="340.0" x2="700" y2="340.0" stroke="#2e2e2c" stroke-width="0.4"/>
<line x1="100" y1="346.66666666666674" x2="700" y2="346.66666666666674" stroke="#2e2e2c" stroke-width="0.4"/>
<line x1="100" y1="353.33333333333337" x2="700" y2="353.33333333333337" stroke="#2e2e2c" stroke-width="0.4"/>
<line x1="100" y1="360.0" x2="700" y2="360.0" stroke="#2e2e2c" stroke-width="0.4"/>
<line x1="100" y1="306.66666666666663" x2="700" y2="306.66666666666663" stroke="#2e2e2c" stroke-width="0.4"/>
<line x1="100" y1="313.33333333333337" x2="700" y2="313.33333333333337" stroke="#2e2e2c" stroke-width="0.4"/>
<line x1="100" y1="320.0" x2="700" y2="320.0" stroke="#2e2e2c" stroke-width="0.4"/>
<line x1="100" y1="326.66666666666663" x2="700" y2="326.66666666666663" stroke="#2e2e2c" stroke-width="0.4"/>
<line x1="100" y1="273.33333333333326" x2="700" y2="273.33333333333326" stroke="#2e2e2c" stroke-width="0.4"/>
<line x1="100" y1="280.0" x2="700" y2="280.0" stroke="#2e2e2c" stroke-width="0.4"/>
<line x1="100" y1="286.66666666666663" x2="700" y2="286.66666666666663" stroke="#2e2e2c" stroke-width="0.4"/>
<line x1="100" y1="293.33333333333326" x2="700" y2="293.33333333333326" stroke="#2e2e2c" stroke-width="0.4"/>
<line x1="100" y1="240.0" x2="700" y2="240.0" stroke="#2e2e2c" stroke-width="0.4"/>
<line x1="100" y1="246.66666666666674" x2="700" y2="246.66666666666674" stroke="#2e2e2c" stroke-width="0.4"/>
<line x1="100" y1="253.33333333333337" x2="700" y2="253.33333333333337" stroke="#2e2e2c" stroke-width="0.4"/>
<line x1="100" y1="260.0" x2="700" y2="260.0" stroke="#2e2e2c" stroke-width="0.4"/>
<line x1="100" y1="206.66666666666663" x2="700" y2="206.66666666666663" stroke="#2e2e2c" stroke-width="0.4"/>
<line x1="100" y1="213.33333333333337" x2="700" y2="213.33333333333337" stroke="#2e2e2c" stroke-width="0.4"/>
<line x1="100" y1="220.0" x2="700" y2="220.0" stroke="#2e2e2c" stroke-width="0.4"/>
<line x1="100" y1="226.66666666666663" x2="700" y2="226.66666666666663" stroke="#2e2e2c" stroke-width="0.4"/>
<line x1="100" y1="173.33333333333326" x2="700" y2="173.33333333333326" stroke="#2e2e2c" stroke-width="0.4"/>
<line x1="100" y1="180.0" x2="700" y2="180.0" stroke="#2e2e2c" stroke-width="0.4"/>
<line x1="100" y1="186.66666666666663" x2="700" y2="186.66666666666663" stroke="#2e2e2c" stroke-width="0.4"/>
<line x1="100" y1="193.33333333333326" x2="700" y2="193.33333333333326" stroke="#2e2e2c" stroke-width="0.4"/>
<line x1="100" y1="140.0" x2="700" y2="140.0" stroke="#2e2e2c" stroke-width="0.4"/>
<line x1="100" y1="146.66666666666674" x2="700" y2="146.66666666666674" stroke="#2e2e2c" stroke-width="0.4"/>
<line x1="100" y1="153.33333333333337" x2="700" y2="153.33333333333337" stroke="#2e2e2c" stroke-width="0.4"/>
<line x1="100" y1="160.0" x2="700" y2="160.0" stroke="#2e2e2c" stroke-width="0.4"/>
<line x1="100" y1="106.66666666666669" x2="700" y2="106.66666666666669" stroke="#2e2e2c" stroke-width="0.4"/>
<line x1="100" y1="113.33333333333337" x2="700" y2="113.33333333333337" stroke="#2e2e2c" stroke-width="0.4"/>
<line x1="100" y1="120.0" x2="700" y2="120.0" stroke="#2e2e2c" stroke-width="0.4"/>
<line x1="100" y1="126.66666666666663" x2="700" y2="126.66666666666663" stroke="#2e2e2c" stroke-width="0.4"/>
<line x1="500" y1="60" x2="520" y2="60" stroke-width="2" stroke="green"/>
<line x1="600" y1="60" x2="620" y2="60" stroke-width="2" stroke="red"/>
<text x="525" y="60" alignment-baseline="middle">predicted</text>
<text x="625" y="60" alignment-baseline="middle">actual</text>
<path d="M 100.0 366.6666666666667 L 106.06060606060606 366.6666666666667 L 112.12121212121212 366.6666666666667 L 118.18181818181819 363.3333333333333 L 124.24242424242425 363.3333333333333 L 130.3030303030303 363.3333333333333 L 136.36363636363637 363.3333333333333 L 142.42424242424244 363.3333333333333 L 148.4848484848485 363.3333333333333 L 154.54545454545456 360.0 L 160.60606060606062 360.0 L 166.66666666666669 360.0 L 172.72727272727275 360.0 L 178.78787878787878 360.0 L 184.84848484848484 360.0 L 190.9090909090909 360.0 L 196.96969696969697 360.0 L 203.03030303030303 356.66666666666663 L 209.0909090909091 356.66666666666663 L 215.15151515151516 353.3333333333333 L 221.21212121212122 350.0 L 227.27272727272725 350.0 L 233.33333333333334 350.0 L 239.3939393939394 346.6666666666667 L 245.45454545454547 343.33333333333337 L 251.5151515151515 340.0 L 257.57575757575756 340.0 L 263.6363636363636 340.0 L 269.6969696969697 336.66666666666663 L 275.75757575757575 336.66666666666663 L 281.8181818181818 336.66666666666663 L 287.8787878787879 333.3333333333333 L 293.93939393939394 333.3333333333333 L 300.0 330.0 L 306.06060606060606 326.66666666666663 L 312.1212121212121 323.33333333333337 L 318.1818181818182 323.33333333333337 L 324.24242424242425 320.0 L 330.3030303030303 320.0 L 336.3636363636364 316.6666666666667 L 342.42424242424244 316.6666666666667 L 348.4848484848485 313.33333333333337 L 354.5454545454545 310.0 L 360.6060606060606 310.0 L 366.6666666666667 310.0 L 372.72727272727275 310.0 L 378.7878787878788 310.0 L 384.8484848484849 306.66666666666663 L 390.90909090909093 306.66666666666663 L 396.969696969697 306.66666666666663 L 403.030303030303 306.66666666666663 L 409.09090909090907 303.3333333333333 L 415.1515151515151 300.0 L 421.2121212121212 296.6666666666667 L 427.27272727272725 293.3333333333333 L 433.3333333333333 293.3333333333333 L 439.3939393939394 290.0 L 445.45454545454544 286.66666666666663 L 451.5151515151515 286.66666666666663 L 457.57575757575756 283.33333333333337 L 463.6363636363636 283.33333333333337 L 469.6969696969697 283.33333333333337 L 475.75757575757575 283.33333333333337 L 481.8181818181818 283.33333333333337 L 487.8787878787879 280.0 L 493.93939393939394 276.66666666666663 L 500.0 273.33333333333337 L 506.06060606060606 273.33333333333337 L 512.1212121212121 270.0 L 518.1818181818182 270.0 L 524.2424242424242 270.0 L 530.3030303030303 270.0 L 536.3636363636364 266.66666666666663 L 542.4242424242425 263.33333333333337 L 548.4848484848485 260.0 L 554.5454545454545 260.0 L 560.6060606060606 260.0 L 566.6666666666667 256.6666666666667 L 572.7272727272727 256.6666666666667 L 578.7878787878788 253.33333333333331 L 584.8484848484849 250.0 L 590.909090909091 246.66666666666669 L 596.969696969697 246.66666666666669 L 603.030303030303 243.33333333333331 L 609.090909090909 243.33333333333331 L 615.1515151515151 243.33333333333331 L 621.2121212121212 240.0 L 627.2727272727273 236.66666666666666 L 633.3333333333334 233.33333333333334 L 639.3939393939394 229.99999999999997 L 645.4545454545455 229.99999999999997 L 651.5151515151515 229.99999999999997 L 657.5757575757576 226.66666666666666 L 663.6363636363636 226.66666666666666 L 669.6969696969697 226.66666666666666 L 675.7575757575758 226.66666666666666 L 681.8181818181819 226.66666666666666 L 687.8787878787879 226.66666666666666 L 693.939393939394 223.33333333333334 L 700.0 223.33333333333334" fill="none" stroke-width="2" stroke="green"/>
<path d="M 100.0 333.3333333333333 L 106.06060606060606 333.3333333333333 L 112.12121212121212 333.3333333333333 L 118.18181818181819 330.0 L 124.24242424242425 330.0 L 130.3030303030303 330.0 L 136.36363636363637 330.0 L 142.42424242424244 330.0 L 148.4848484848485 330.0 L 154.54545454545456 326.66666666666663 L 160.60606060606062 326.66666666666663 L 166.66666666666669 326.66666666666663 L 172.72727272727275 326.66666666666663 L 178.78787878787878 326.66666666666663 L 184.84848484848484 326.66666666666663 L 190.9090909090909 326.66666666666663 L 196.96969696969697 326.66666666666663 L 203.03030303030303 323.33333333333337 L 209.0909090909091 323.33333333333337 L 215.15151515151516 320.0 L 221.21212121212122 316.6666666666667 L 227.27272727272725 316.6666666666667 L 233.33333333333334 316.6666666666667 L 239.3939393939394 313.33333333333337 L 245.45454545454547 310.0 L 251.5151515151515 306.66666666666663 L 257.57575757575756 306.66666666666663 L 263.6363636363636 306.66666666666663 L 269.6969696969697 303.3333333333333 L 275.75757575757575 303.3333333333333 L 281.8181818181818 303.3333333333333 L 287.8787878787879 300.0 L 293.93939393939394 300.0 L 300.0 296.6666666666667 L 306.06060606060606 293.3333333333333 L 312.1212121212121 290.0 L 318.1818181818182 290.0 L 324.24242424242425 286.66666666666663 L 330.3030303030303 286.66666666666663 L 336.3636363636364 283.33333333333337 L 342.42424242424244 283.33333333333337 L 348.4848484848485 280.0 L 354.5454545454545 276.66666666666663 L 360.6060606060606 276.66666666666663 L 366.6666666666667 276.66666666666663 L 372.72727272727275 276.66666666666663 L 378.7878787878788 276.66666666666663 L 384.8484848484849 273.33333333333337 L 390.90909090909093 273.33333333333337 L 396.969696969697 273.33333333333337 L 403.030303030303 273.33333333333337 L 409.09090909090907 270.0 L 415.1515151515151 266.66666666666663 L 421.2121212121212 263.33333333333337 L 427.27272727272725 260.0 L 433.3333333333333 260.0 L 439.3939393939394 256.6666666666667 L 445.45454545454544 253.33333333333331 L 451.5151515151515 253.33333333333331 L 457.57575757575756 250.0 L 463.6363636363636 250.0 L 469.6969696969697 250.0 L 475.75757575757575 250.0 L 481.8181818181818 250.0 L 487.8787878787879 246.66666666666669 L 493.93939393939394 243.33333333333331 L 500.0 240.0 L 506.06060606060606 240.0 L 512.1212121212121 236.66666666666666 L 518.1818181818182 236.66666666666666 L 524.2424242424242 236.66666666666666 L 530.3030303030303 236.66666666666666 L 536.3636363636364 233.33333333333334 L 542.4242424242425 229.99999999999997 L 548.4848484848485 226.66666666666666 L 554.5454545454545 226.66666666666666 L 560.6060606060606 226.66666666666666 L 566.6666666666667 223.33333333333334 L 572.7272727272727 223.33333333333334 L 578.7878787878788 220.0 L 584.8484848484849 216.66666666666666 L 590.909090909091 213.33333333333331 L 596.969696969697 213.33333333333331 L 603.030303030303 210.0 L 609.090909090909 210.0 L 615.1515151515151 210.0 L 621.2121212121212 206.66666666666669 L 627.2727272727273 203.33333333333331 L 633.3333333333334 200.0 L 639.3939393939394 196.66666666666669 L 645.4545454545455 196.66666666666669 L 651.5151515151515 196.66666666666669 L 657.5757575757576 193.33333333333331 L 663.6363636363636 193.33333333333331 L 669.6969696969697 193.33333333333331 L 675.7575757575758 193.33333333333331 L 681.8181818181819 193.33333333333331 L 687.8787878787879 193.33333333333331 L 693.939393939394 190.0 L 700.0 190.0" fill="none" stroke-width="2" stroke="red"/>
</svg>