<svg viewBox="0 0 800 600" xmlns="http://www.w3.org/2000/svg">
<line x1="100" y1="500" x2="700" y2="500" stroke="#2e2e2c"/>
<line x1="100.0" y1="500" x2="100.0" y2="505" stroke="#2e2e2c"/>
<line x1="150.0" y1="500" x2="150.0" y2="505" stroke="#2e2e2c"/>
<line x1="200.0" y1="500" x2="200.0" y2="505" stroke="#2e2e2c"/>
<line x1="250.0" y1="500" x2="250.0" y2="505" stroke="#2e2e2c"/>
<line x1="300.0" y1="500" x2="300.0" y2="505" stroke="#2e2e2c"/>
<line x1="350.0" y1="500" x2="350.0" y2="505" stroke="#2e2e2c"/>
<line x1="400.0" y1="500" x2="400.0" y2="505" stroke="#2e2e2c"/>
<line x1="450.0" y1="500" x2="450.0" y2="505" stroke="#2e2e2c"/>
<line x1="500.0" y1="500" x2="500.0" y2="505" stroke="#2e2e2c"/>
<line x1="550.0" y1="500" x2="550.0" y2="505" stroke="#2e2e2c"/>
<line x1="600.0" y1="500" x2="600.0" y2="505" stroke="#2e2e2c"/>
<line x1="650.0" y1="500" x2="650.0" y2="505" stroke="#2e2e2c"/>
<line x1="700.0" y1="500" x2="700.0" y2="505" stroke="#2e2e2c"/>
<text x="100.0" y="510" text-anchor="middle" dominant-baseline="hanging">0</text>
<text x="150.0" y="510" text-anchor="middle" dominant-baseline="hanging">10</text>
<text x="200.0" y="510" text-anchor="middle" dominant-baseline="hanging">20</text>
<text x="250.0" y="510" text-anchor="middle" dominant-baseline="hanging">30</text>
<text x="300.0" y="510" text-anchor="middle" dominant-baseline="hanging">40</text>
<text x="350.0" y="510" text-anchor="middle" dominant-baseline="hanging">50</text>
<text x="400.0" y="510" text-anchor="middle" dominant-baseline="hanging">60</text>
<text x="450.0" y="510" text-anchor="middle" dominant-baseline="hanging">70</text>
<text x="500.0" y="510" text-anchor="middle" dominant-baseline="hanging">80</text>
<text x="550.0" y="510" text-anchor="middle" dominant-baseline="hanging">90</text>
<text x="600.0" y="510" text-anchor="middle" dominant-baseline="hanging">100</text>
<text x="650.0" y="510" text-anchor="middle" dominant-baseline="hanging">110</text>
<text x="700.0" y="510" text-anchor="middle" dominant-baseline="hanging">120</text>
<line x1="100" y1="4700.0" x2="700" y2="4700.0" stroke="#2e2e2c"/>
<line x1="100" y1="9700.0" x2="700" y2="9700.0" stroke="#2e2e2c"/>
<line x1="100" y1="14700.0" x2="700" y2="14700.0" stroke="#2e2e2c"/>
<line x1="100" y1="19700.0" x2="700" y2="19700.0" stroke="#2e2e2c"/>
<line x1="100" y1="24700.0" x2="700" y2="24700.0" stroke="#2e2e2c"/>
<line x1="100" y1="29700.0" x2="700" y2="29700.0" stroke="#2e2e2c"/>
<line x1="100" y1="34700.0" x2="700" y2="34700.0" stroke="#2e2e2c"/>
<line x1="100" y1="39700.0" x2="700" y2="39700.0" stroke="#2e2e2c"/>
<line x1="100" y1="44700.0" x2="700" y2="44700.0" stroke="#2e2e2c"/>
<line x1="100" y1="49700.0" x2="700" y2="49700.0" stroke="#2e2e2c"/>
<line x1="100" y1="54700.0" x2="700" y2="54700.0" stroke="#2e2e2c"/>
<line x1="100" y1="59700.0" x2="700" y2="59700.0" stroke="#2e2e2c"/>
<line x1="100" y1="100" x2="100" y2="500" stroke="#2e2e2c"/>
<line x1="95" y1="500.0" x2="100" y2="500.0" stroke="#2e2e2c"/>
<line x1="95" y1="466.6666666666667" x2="100" y2="466.6666666666667" stroke="#2e2e2c"/>
<line x1="95" y1="433.3333333333333" x2="100" y2="433.3333333333333" stroke="#2e2e2c"/>
<line x1="95" y1="400.0" x2="100" y2="400.0" stroke="#2e2e2c"/>
<line x1="95" y1="366.6666666666667" x2="100" y2="366.6666666666667" stroke="#2e2e2c"/>
<line x1="95" y1="333.33333333333337" x2="100" y2="333.33333333333337" stroke="#2e2e2c"/>
<line x1="95" y1="300.0" x2="100" y2="300.0" stroke="#2e2e2c"/>
<line x1="95" y1="266.66666666666663" x2="100" y2="266.66666666666663" stroke="#2e2e2c"/>
<line x1="95" y1="233.33333333333334" x2="100" y2="233.33333333333334" stroke="#2e2e2c"/>
<line x1="95" y1="200.0" x2="100" y2="200.0" stroke="#2e2e2c"/>
<line x1="95" y1="166.66666666666669" x2="100" y2="166.66666666666669" stroke="#2e2e2c"/>
<line x1="95" y1="133.33333333333334" x2="100" y2="133.33333333333334" stroke="#2e2e2c"/>
<line x1="95" y1="100.0" x2="100" y2="100.0" stroke="#2e2e2c"/>
<text x="90" y="500.0" text-anchor="end" dominant-baseline="middle">0</text>
<text x="90" y="466.6666666666667" text-anchor="end" dominant-baseline="middle">1,000</text>
<text x="90" y="433.3333333333333" text-anchor="end" dominant-baseline="middle">2,000</text>
<text x="90" y="400.0" text-anchor="end" dominant-baseline="middle">3,000</text>
<text x="90" y="366.6666666666667" text-anchor="end" dominant-baseline="middle">4,000</text>
<text x="90" y="333.33333333333337" text-anchor="end" dominant-baseline="middle">5,000</text>
<text x="90" y="300.0" text-anchor="end" dominant-baseline="middle">6,000</text>
<text x="90" y="266.66666666666663" text-anchor="end" dominant-baseline="middle">7,000</text>
<text x="90" y="233.33333333333334" text-anchor="end" dominant-baseline="middle">8,000</text>
<text x="90" y="200.0" text-anchor="end" dominant-baseline="middle">9,000</text>
<text x="90" y="166.66666666666669" text-anchor="end" dominant-baseline="middle">10,000</text>
<text x="90" y="133.33333333333334" text-anchor="end" dominant-baseline="middle">11,000</text>
<text x="90" y="100.0" text-anchor="end" dominant-baseline="middle">12,000</text>
<line x1="150.0" y1="100" x2="150.0" y2="500" stroke="#2e2e2c"/>
<line x1="140.0" y1="100" x2="140.0" y2="500" stroke="#2e2e2c" stroke-width="0.4"/>
<line x1="130.0" y1="100" x2="130.0" y2="500" stroke="#2e2e2c" stroke-width="0.4"/>
<line x1="120.0" y1="100" x2="120.0" y2="500" stroke="#2e2e2c" stroke-width="0.4"/>
<line x1="110.0" y1="100" x2="110.0" y2="500" stroke="#2e2e2c" stroke-width="0.4"/>
<line x1="200.0" y1="100" x2="200.0" y2="500" stroke="#2e2e2c"/>
<line x1="190.0" y1="100" x2="190.0" y2="500" stroke="#2e2e2c" stroke-width="0.4"/>
<line x1="180.0" y1="100" x2="180.0" y2="500" stroke="#2e2e2c" stroke-width="0.4"/>
<line x1="170.0" y1="100" x2="170.0" y2="500" stroke="#2e2e2c" stroke-width="0.4"/>
<line x1="160.0" y1="100" x2="160.0" y2="500" stroke="#2e2e2c" stroke-width="0.4"/>
<line x1="250.0" y1="100" x2="250.0" y2="500" stroke="#2e2e2c"/>
<line x1="240.0" y1="100" x2="240.0" y2="500" stroke="#2e2e2c" stroke-width="0.4"/>
<line x1="230.0" y1="100" x2="230.0" y2="500" stroke="#2e2e2c" stroke-width="0.4"/>
<line x1="220.0" y1="100" x2="220.0" y2="500" stroke="#2e2e2c" stroke-width="0.4"/>
<line x1="210.0" y1="100" x2="210.0" y2="500" stroke="#2e2e2c" stroke-width="0.4"/>
<line x1="300.0" y1="100" x2="300.0" y2="500" stroke="#2e2e2c"/>
<line x1="290.0" y1="100" x2="290.0" y2="500" stroke="#2e2e2c" stroke-width="0.4"/>
<line x1="280.0" y1="100" x2="280.0" y2="500" stroke="#2e2e2c" stroke-width="0.4"/>
<line x1="270.0" y1="100" x2="270.0" y2="500" stroke="#2e2e2c" stroke-width="0.4"/>
<line x1="260.0" y1="100" x2="260.0" y2="500" stroke="#2e2e2c" stroke-width="0.4"/>
<line x1="350.0" y1="100" x2="350.0" y2="500" stroke="#2e2e2c"/>
<line x1="340.0" y1="100" x2="340.0" y2="500" stroke="#2e2e2c" stroke-width="0.4"/>
<line x1="330.0" y1="100" x2="330.0" y2="500" stroke="#2e2e2c" stroke-width="0.4"/>
<line x1="320.0" y1="100" x2="320.0" y2="500" stroke="#2e2e2c" stroke-width="0.4"/>
<line x1="310.0" y1="100" x2="310.0" y2="500" stroke="#2e2e2c" stroke-width="0.4"/>
<line x1="400.0" y1="100" x2="400.0" y2="500" stroke="#2e2e2c"/>
<line x1="390.0" y1="100" x2="390.0" y2="500" stroke="#2e2e2c" stroke-width="0.4"/>
<line x1="380.0" y1="100" x2="380.0" y2="500" stroke="#2e2e2c" stroke-width="0.4"/>
<line x1="370.0" y1="100" x2="370.0" y2="500" stroke="#2e2e2c" stroke-width="0.4"/>
<line x1="360.0" y1="100" x2="360.0" y2="500" stroke="#2e2e2c" stroke-width="0.4"/>
<line x1="450.0" y1="100" x2="450.0" y2="500" stroke="#2e2e2c"/>
<line x1="440.0" y1="100" x2="440.0" y2="500" stroke="#2e2e2c" stroke-width="0.4"/>
<line x1="430.0" y1="100" x2="430.0" y2="500" stroke="#2e2e2c" stroke-width="0.4"/>
<line x1="420.0" y1="100" x2="420.0" y2="500" stroke="#2e2e2c" stroke-width="0.4"/>
<line x1="410.0" y1="100" x2="410.0" y2="500" stroke="#2e2e2c" stroke-width="0.4"/>
<line x1="500.0" y1="100" x2="500.0" y2="500" stroke="#2e2e2c"/>
<line x1="490.0" y1="100" x2="490.0" y2="500" stroke="#2e2e2c" stroke-width="0.4"/>
<line x1="480.0" y1="100" x2="480.0" y2="500" stroke="#2e2e2c" stroke-width="0.4"/>
<line x1="470.0" y1="100" x2="470.0" y2="500" stroke="#2e2e2c" stroke-width="0.4"/>
<line x1="460.0" y1="100" x2="460.0" y2="500" stroke="#2e2e2c" stroke-width="0.4"/>
<line x1="550.0" y1="100" x2="550.0" y2="500" stroke="#2e2e2c"/>
<line x1="540.0" y1="100" x2="540.0" y2="500" stroke="#2e2e2c" stroke-width="0.4"/>
<line x1="530.0" y1="100" x2="530.0" y2="500" stroke="#2e2e2c" stroke-width="0.4"/>
<line x1="520.0" y1="100" x2="520.0" y2="500" stroke="#2e2e2c" stroke-width="0.4"/>
<line x1="510.0" y1="100" x2="510.0" y2="500" stroke="#2e2e2c" stroke-width="0.4"/>
<line x1="600.0" y1="100" x2="600.0" y2="500" stroke="#2e2e2c"/>
<line x1="590.0" y1="100" x2="590.0" y2="500" stroke="#2e2e2c" stroke-width="0.4"/>
<line x1="580.0" y1="100" x2="580.0" y2="500" stroke="#2e2e2c" stroke-width="0.4"/>
<line x1="570.0" y1="100" x2="570.0" y2="500" stroke="#2e2e2c" stroke-width="0.4"/>
<line x1="560.0" y1="100" x2="560.0" y2="500" stroke="#2e2e2c" stroke-width="0.4"/>
<line x1="650.0" y1="100" x2="650.0" y2="500" stroke="#2e2e2c"/>
<line x1="640.0" y1="100" x2="640.0" y2="500" stroke="#2e2e2c" stroke-width="0.4"/>
<line x1="630.0" y1="100" x2="630.0" y2="500" stroke="#2e2e2c" stroke-width="0.4"/>
<line x1="620.0" y1="100" x2="620.0" y2="500" stroke="#2e2e2c" stroke-width="0.4"/>
<line x1="610.0" y1="100" x2="610.0" y2="500" stroke="#2e2e2c" stroke-width="0.4"/>
<line x1="700.0" y1="100" x2="700.0" y2="500" stroke="#2e2e2c"/>
<line x1="690.0" y1="100" x2="690.0" y2="500" stroke="#2e2e2c" stroke-width="0.4"/>
<line x1="680.0" y1="100" x2="680.0" y2="500" stroke="#2e2e2c" stroke-width="0.4"/>
<line x1="670.0" y1="100" x2="670.0" y2="500" stroke="#2e2e2c" stroke-width="0.4"/>
<line x1="660.0" y1="100" x2="660.0" y2="500" stroke="#2e2e2c" stroke-width="0.4"/>
<line x1="100" y1="4706.666666666667" x2="700" y2="4706.666666666667" stroke="#2e2e2c" stroke-width="0.4"/>
<line x1="100" y1="4713.333333333333" x2="700" y2="4713.333333333333" stroke="#2e2e2c" stroke-width="0.4"/>
<line x1="100" y1="4720.0" x2="700" y2="4720.0" stroke="#2e2e2c" stroke-width="0.4"/>
<line x1="100" y1="4726.666666666667" x2="700" y2="4726.666666666667" stroke="#2e2e2c" stroke-width="0.4"/>
<line x1="100" y1="9706.666666666666" x2="700" y2="9706.666666666666" stroke="#2e2e2c" stroke-width="0.4"/>
<line x1="100" y1="9713.333333333334" x2="700" y2="9713.333333333334" stroke="#2e2e2c" stroke-width="0.4"/>
<line x1="100" y1="9720.0" x2="700" y2="9720.0" stroke="#2e2e2c" stroke-width="0.4"/>
<line x1="100" y1="9726.666666666666" x2="700" y2="9726.666666666666" stroke="#2e2e2c" stroke-width="0.4"/>
<line x1="100" y1="14706.666666666666" x2="700" y2="14706.666666666666" stroke="#2e2e2c" stroke-width="0.4"/>
<line x1="100" y1="14713.333333333334" x2="700" y2="14713.333333333334" stroke="#2e2e2c" stroke-width="0.4"/>
<line x1="100" y1="14720.0" x2="700" y2="14720.0" stroke="#2e2e2c" stroke-width="0.4"/>
<line x1="100" y1="14726.666666666666" x2="700" y2="14726.666666666666" stroke="#2e2e2c" stroke-width="0.4"/>
<line x1="100" y1="19706.666666666668" x2="700" y2="19706.666666666668" stroke="#2e2e2c" stroke-width="0.4"/>
<line x1="100" y1="19713.333333333332" x2="700" y2="19713.333333333332" stroke="#2e2e2c" stroke-width="0.4"/>
<line x1="100" y1="19720.0" x2="700" y2="19720.0" stroke="#2e2e2c" stroke-width="0.4"/>
<line x1="100" y1="19726.666666666668" x2="700" y2="19726.666666666668" stroke="#2e2e2c" stroke-width="0.4"/>
<line x1="100" y1="24706.666666666668" x2="700" y2="24706.666666666668" stroke="#2e2e2c" stroke-width="0.4"/>
<line x1="100" y1="24713.333333333332" x2="700" y2="24713.333333333332" stroke="#2e2e2c" stroke-width="0.4"/>
<line x1="100" y1="24720.0" x2="700" y2="24720.0" stroke="#2e2e2c" stroke-width="0.4"/>
<line x1="100" y1="24726.666666666668" x2="700" y2="24726.666666666668" stroke="#2e2e2c" stroke-width="0.4"/>
<line x1="100" y1="29706.666666666668" x2="700" y2="29706.666666666668" stroke="#2e2e2c" stroke-width="0.4"/>
<line x1="100" y1="29713.333333333332" x2="700" y2="29713.333333333332" stroke="#2e2e2c" stroke-width="0.4"/>
<line x1="100" y1="29720.0" x2="700" y2="29720.0" stroke="#2e2e2c" stroke-width="0.4"/>
<line x1="100" y1="29726.666666666668" x2="700" y2="29726.666666666668" stroke="#2e2e2c" stroke-width="0.4"/>
<line x1="100" y1="34706.666666666664" x2="700" y2="34706.666666666664" stroke="#2e2e2c" stroke-width="0.4"/>
<line x1="100" y1="34713.333333333336" x2="700" y2="34713.333333333336" stroke="#2e2e2c" stroke-width="0.4"/>
<line x1="100" y1="34720.0" x2="700" y2="34720.0" stroke="#2e2e2c" stroke-width="0.4"/>
<line x1="100" y1="34726.666666666664" x2="700" y2="34726.666666666664" stroke="#2e2e2c" stroke-width="0.4"/>
<line x1="100" y1="39706.666666666664" x2="700" y2="39706.666666666664" stroke="#2e2e2c" stroke-width="0.4"/>
<line x1="100" y1="39713.333333333336" x2="700" y2="39713.333333333336" stroke="#2e2e2c" stroke-width="0.4"/>
<line x1="100" y1="39720.0" x2="700" y2="39720.0" stroke="#2e2e2c" stroke-width="0.4"/>
<line x1="100" y1="39726.666666666664" x2="700" y2="39726.666666666664" stroke="#2e2e2c" stroke-width="0.4"/>
<line x1="100" y1="44706.666666666664" x2="700" y2="44706.666666666664" stroke="#2e2e2c" stroke-width="0.4"/>
<line x1="100" y1="44713.333333333336" x2="700" y2="44713.333333333336" stroke="#2e2e2c" stroke-width="0.4"/>
<line x1="100" y1="44720.0" x2="700" y2="44720.0" stroke="#2e2e2c" stroke-width="0.4"/>
<line x1="100" y1="44726.666666666664" x2="700" y2="44726.666666666664" stroke="#2e2e2c" stroke-width="0.4"/>
<line x1="100" y1="49706.666666666664" x2="700" y2="49706.666666666664" stroke="#2e2e2c" stroke-width="0.4"/>
<line x1="100" y1="49713.333333333336" x2="700" y2="49713.333333333336" stroke="#2e2e2c" stroke-width="0.4"/>
<line x1="100" y1="49720.0" x2="700" y2="49720.0" stroke="#2e2e2c" stroke-width="0.4"/>
<line x1="100" y1="49726.666666666664" x2="700" y2="49726.666666666664" stroke="#2e2e2c" stroke-width="0.4"/>
<line x1="100" y1="54706.666666666664" x2="700" y2="54706.666666666664" stroke="#2e2e2c" stroke-width="0.4"/>
<line x1="100" y1="54713.333333333336" x2="700" y2="54713.333333333336" stroke="#2e2e2c" stroke-width="0.4"/>
<line x1="100" y1="54720.0" x2="700" y2="54720.0" stroke="#2e2e2c" stroke-width="0.4"/>
<line x1="100" y1="54726.666666666664" x2="700" y2="54726.666666666664" stroke="#2e2e2c" stroke-width="0.4"/>
<line x1="100" y1="59706.666666666664" x2="700" y2="59706.666666666664" stroke="#2e2e2c" stroke-width="0.4"/>
<line x1="100" y1="59713.333333333336" x2="700" y2="59713.333333333336" stroke="#2e2e2c" stroke-width="0.4"/>
<line x1="100" y1="59720.0" x2="700" y2="59720.0" stroke="#2e2e2c" stroke-width="0.4"/>
<line x1="100" y1="59726.666666666664" x2="700" y2="59726.666666666664" stroke="#2e2e2c" stroke-width="0.4"/>
<line x1="500" y1="60" x2="520" y2="60" stroke-width="2" stroke="green"/>
<line x1="600" y1="60" x2="620" y2="60" stroke-width="2" stroke="red"/>
<text x="525" y="60" alignment-baseline="middle">predicted</text>
<text x="625" y="60" alignment-baseline="middle">actual</text>
<path d="M 100.0 366.6666666666667 L 105.0 366.6666666666667 L 110.0 366.6666666666667 L 115.0 363.3333333333333 L 120.0 363.3333333333333 L 125.0 363.3333333333333 L 130.0 363.3333333333333 L 135.0 363.3333333333333 L 140.0 363.3333333333333 L 145.0 360.0 L 150.0 360.0 L 155.0 360.0 L 160.0 360.0 L 165.0 360.0 L 170.0 360.0 L 175.0 360.0 L 180.0 360.0 L 185.0 356.66666666666663 L 190.0 356.66666666666663 L 195.0 353.3333333333333 L 200.0 350.0 L 205.0 350.0 L 210.0 350.0 L 215.0 346.6666666666667 L 220.0 343.33333333333337 L 225.0 340.0 L 230.0 340.0 L 235.0 340.0 L 240.0 336.66666666666663 L 245.0 336.66666666666663 L 250.0 336.66666666666663 L 255.00000000000003 333.3333333333333 L 260.0 333.3333333333333 L 265.0 330.0 L 270.0 326.66666666666663 L 275.0 323.33333333333337 L 280.0 323.33333333333337 L 285.0 320.0 L 290.0 320.0 L 295.0 316.6666666666667 L 300.0 316.6666666666667 L 305.0 313.33333333333337 L 310.0 310.0 L 315.0 310.0 L 320.0 310.0 L 325.0 310.0 L 330.0 310.0 L 335.0 306.66666666666663 L 340.0 306.66666666666663 L 345.0 306.66666666666663 L 350.0 306.66666666666663 L 355.0 303.3333333333333 L 360.0 300.0 L 365.0 296.6666666666667 L 370.0 293.3333333333333 L 375.0 293.3333333333333 L 380.0 290.0 L 385.0 286.66666666666663 L 390.0 286.66666666666663 L 395.0 283.33333333333337 L 400.0 283.33333333333337 L 405.0 283.33333333333337 L 410.00000000000006 283.33333333333337 L 415.0 283.33333333333337 L 420.0 280.0 L 425.0 276.66666666666663 L 430.0 273.33333333333337 L 435.0 273.33333333333337 L 440.0 270.0 L 445.0 270.0 L 450.0 270.0 L 455.0 270.0 L 460.0 266.66666666666663 L 464.99999999999994 263.33333333333337 L 470.0 260.0 L 475.0 260.0 L 480.0 260.0 L 485.00000000000006 256.6666666666667 L 490.0 256.6666666666667 L 495.0 253.33333333333331 L 500.0 250.0 L 505.0 246.66666666666669 L 510.0 246.66666666666669 L 515.0 243.33333333333331 L 520.0 243.33333333333331 L 525.0 243.33333333333331 L 530.0 240.0 L 535.0 236.66666666666666 L 540.0 233.33333333333334 L 545.0 229.99999999999997 L 550.0 229.99999999999997 L 555.0 229.99999999999997 L 560.0 226.66666666666666 L 565.0 226.66666666666666 L 570.0 226.66666666666666 L 575.0 226.66666666666666 L 580.0 226.66666666666666 L 585.0 226.66666666666666 L 590.0 223.33333333333334 L 595.0 223.33333333333334" fill="none" stroke-width="2" stroke="green"/>
<path d="M 100.0 333.3333333333333 L 105.0 333.3333333333333 L 110.0 333.3333333333333 L 115.0 330.0 L 120.0 330.0 L 125.0 330.0 L 130.0 330.0 L 135.0 330.0 L 140.0 330.0 L 145.0 326.66666666666663 L 150.0 326.66666666666663 L 155.0 326.66666666666663 L 160.0 326.66666666666663 L 165.0 326.66666666666663 L 170.0 326.66666666666663 L 175.0 326.66666666666663 L 180.0 326.66666666666663 L 185.0 323.33333333333337 L 190.0 323.33333333333337 L 195.0 320.0 L 200.0 316.6666666666667 L 205.0 316.6666666666667 L 210.0 316.6666666666667 L 215.0 313.33333333333337 L 220.0 310.0 L 225.0 306.66666666666663 L 230.0 306.66666666666663 L 235.0 306.66666666666663 L 240.0 303.3333333333333 L 245.0 303.3333333333333 L 250.0 303.3333333333333 L 255.00000000000003 300.0 L 260.0 300.0 L 265.0 296.6666666666667 L 270.0 293.3333333333333 L 275.0 290.0 L 280.0 290.0 L 285.0 286.66666666666663 L 290.0 286.66666666666663 L 295.0 283.33333333333337 L 300.0 283.33333333333337 L 305.0 280.0 L 310.0 276.66666666666663 L 315.0 276.66666666666663 L 320.0 276.66666666666663 L 325.0 276.66666666666663 L 330.0 276.66666666666663 L 335.0 273.33333333333337 L 340.0 273.33333333333337 L 345.0 273.33333333333337 L 350.0 273.33333333333337 L 355.0 270.0 L 360.0 266.66666666666663 L 365.0 263.33333333333337 L 370.0 260.0 L 375.0 260.0 L 380.0 256.6666666666667 L 385.0 253.33333333333331 L 390.0 253.33333333333331 L 395.0 250.0 L 400.0 250.0 L 405.0 250.0 L 410.00000000000006 250.0 L 415.0 250.0 L 420.0 246.66666666666669 L 425.0 243.33333333333331 L 430.0 240.0 L 435.0 240.0 L 440.0 236.66666666666666 L 445.0 236.66666666666666 L 450.0 236.66666666666666 L 455.0 236.66666666666666 L 460.0 233.33333333333334 L 464.99999999999994 229.99999999999997 L 470.0 226.66666666666666 L 475.0 226.66666666666666 L 480.0 226.66666666666666 L 485.00000000000006 223.33333333333334 L 490.0 223.33333333333334 L 495.0 220.0 L 500.0 216.66666666666666 L 505.0 213.33333333333331 L 510.0 213.33333333333331 L 515.0 210.0 L 520.0 210.0 L 525.0 210.0 L 530.0 206.66666666666669 L 535.0 203.33333333333331 L 540.0 200.0 L 545.0 196.66666666666669 L 550.0 196.66666666666669 L 555.0 196.66666666666669 L 560.0 193.33333333333331 L 565.0 193.33333333333331 L 570.0 193.33333333333331 L 575.0 193.33333333333331 L 580.0 193.33333333333331 L 585.0 193.33333333333331 L 590.0 190.0 L 595.0 190.0" fill="none" stroke-width="2" stroke="red"/>
</svg>